/* XPM */
static char *result[] = {
/* columns rows colors chars-per-pixel */
"64 64 240 2 ",
"   c #030609",
".  c #160807",
"X  c #1B1305",
"o  c #1A1308",
"O  c #0D1317",
"+  c #280E0D",
"@  c #26170A",
"#  c #351817",
"$  c #2B2209",
"%  c #34240D",
"&  c #3D290D",
"*  c #352C13",
"=  c #0A1826",
"-  c #261E20",
";  c #163037",
":  c #272628",
">  c #392827",
",  c #2F3A34",
"<  c #49110E",
"1  c #6B1B16",
"2  c #483713",
"3  c #583B16",
"4  c #4B3730",
"5  c #71393D",
"6  c #314534",
"7  c #584B15",
"8  c #68471B",
"9  c #774A1A",
"0  c #73551A",
"q  c #706A0E",
"w  c #574926",
"e  c #505034",
"r  c #694C21",
"t  c #6C5325",
"y  c #7A5623",
"u  c #795329",
"i  c #685A35",
"p  c #4F732E",
"a  c #696537",
"s  c #796734",
"d  c #063B42",
"f  c #193752",
"g  c #773E42",
"h  c #104756",
"j  c #1C5B5B",
"k  c #275047",
"l  c #245E58",
"z  c #396B59",
"x  c #085A63",
"c  c #315572",
"v  c #0F6A72",
"b  c #31766F",
"n  c #4E514A",
"m  c #625C5A",
"M  c #496648",
"N  c #56694E",
"B  c #6D6E45",
"V  c #457664",
"C  c #587471",
"Z  c #6A6E64",
"A  c #B61C24",
"S  c #9E262D",
"D  c #C71B24",
"F  c #DA1923",
"G  c #814F1B",
"H  c #815426",
"J  c #825C23",
"K  c #886626",
"L  c #906728",
"P  c #946B29",
"I  c #877A2E",
"U  c #A5662F",
"Y  c #817E46",
"T  c #A76953",
"R  c #847470",
"E  c #B5666A",
"W  c #578539",
"Q  c #708F2E",
"!  c #2A827B",
"~  c #358378",
"^  c #57855F",
"/  c #749757",
"(  c #75AF5E",
")  c #4B9373",
"_  c #559875",
"`  c #67896F",
"'  c #58AA7A",
"]  c #76B567",
"[  c #69B170",
"{  c #888A17",
"}  c #938D14",
"|  c #929416",
" . c #989917",
".. c #A59E11",
"X. c #ACA816",
"o. c #B7B416",
"O. c #8E912D",
"+. c #AC9731",
"@. c #97A430",
"#. c #B0AE2E",
"$. c #C5BC16",
"%. c #CA9E3C",
"&. c #CAB22F",
"*. c #E3BD21",
"=. c #BAC72F",
"-. c #CAC618",
";. c #D6CD18",
":. c #CFD11D",
">. c #DCD415",
",. c #DBD31A",
"<. c #D8D61B",
"1. c #E5C91D",
"2. c #E4DB15",
"3. c #E9DD16",
"4. c #E4D41A",
"5. c #E4DA1A",
"6. c #EADE1A",
"7. c #ECE316",
"8. c #EDE21A",
"9. c #F0E51B",
"0. c #C7C527",
"q. c #D6CB26",
"w. c #D9D528",
"e. c #C8C838",
"r. c #D6CA35",
"t. c #CDD235",
"y. c #E5D821",
"u. c #E4D730",
"i. c #E7E025",
"p. c #EBE223",
"a. c #EFE233",
"s. c #94974A",
"d. c #889D58",
"f. c #93B052",
"g. c #94BD56",
"h. c #A7A445",
"j. c #AEB04F",
"k. c #A9BA4C",
"l. c #B7B949",
"z. c #8E887B",
"x. c #918A7F",
"c. c #919270",
"v. c #A59E65",
"b. c #86BC63",
"n. c #A5A16C",
"m. c #ABA87C",
"M. c #D9AB49",
"N. c #D3AE75",
"B. c #96C159",
"V. c #BACA44",
"C. c #ACC450",
"Z. c #B6C271",
"A. c #C7CC51",
"S. c #E6CF51",
"D. c #097A85",
"F. c #117D84",
"G. c #2D6D84",
"H. c #517492",
"J. c #13838D",
"K. c #0A8C98",
"L. c #0B919D",
"P. c #1E9497",
"I. c #298F8C",
"U. c #358A8A",
"Y. c #399A89",
"T. c #249B98",
"R. c #3DAB8D",
"E. c #2DA89A",
"W. c #35AC96",
"Q. c #0B9BA9",
"!. c #149BA7",
"~. c #1A9DA2",
"^. c #3096A2",
"/. c #0CA1AE",
"(. c #13A3AD",
"). c #1BA8AA",
"_. c #0BA4B3",
"`. c #0CA9B7",
"'. c #0CADBC",
"]. c #13A8B5",
"[. c #12ACB5",
"{. c #0DB0BF",
"}. c #23A9A4",
"|. c #24B0AE",
" X c #23A9B4",
".X c #21B1BF",
"XX c #4C948E",
"oX c #6C8D97",
"OX c #51B0B4",
"+X c #68A3A3",
"@X c #0BAFC0",
"#X c #0DB2C1",
"$X c #13B3C1",
"%X c #1CB4C3",
"&X c #1AB9C8",
"*X c #22B2C0",
"=X c #24B9C7",
"-X c #27BAC8",
";X c #2DBCC9",
":X c #38BAC5",
">X c #40BFCA",
",X c #37C0CD",
"<X c #3BC1CD",
"1X c #43C3CE",
"2X c #49C2CC",
"3X c #4CC6D1",
"4X c #57CAD4",
"5X c #62CDD6",
"6X c #71CED6",
"7X c #75D3DB",
"8X c #989088",
"9X c #9E9990",
"0X c #A09C8D",
"qX c #97A58A",
"wX c #A6A588",
"eX c #A8A99A",
"rX c #B0B393",
"tX c #8E9EA5",
"yX c #8BA6AA",
"uX c #99ADBE",
"iX c #ADB1B0",
"pX c #BBCA97",
"aX c #BBC0B5",
"sX c #E5C88E",
"dX c #CFD0B3",
"fX c #A8B7C3",
"gX c #84D7DF",
"hX c #B7C0C9",
"jX c #C5C7C6",
"kX c #D7CECD",
"lX c #D6D7D8",
"zX c #DFDFDF",
"xX c #ECE5D6",
"cX c #DADEE2",
"vX c #DEE1E3",
"bX c #E8E8E9",
"nX c #EEF2EE",
"mX c #F3F3F5",
"MX c #F8F7F7",
"NX c #FEFEFE",
/* pixels */
"#X#X#X#X#X#X#X#X#X#X#X#X#X#X#X#X#X#X#X#X#X#X#X#X#X#X#X#X#X#X#X#X#X#X#X#X#X#X#X#X#X#X#X#X#X#X#X#X#X#X#X#X#X#X#X#X#X#X#X#X#X#X#X#X",
"#X#X#X#X#X#X#X#X#X#X#X#X#X#X$X#X#X#X#X#X#X#X#X#X#X$X#X#X#X#X#X#X#X#X$X#X#X#X#X#X#X#X#X#X#X#X#X#X#X#X#X#X#X#X#X#X#X#X#X#X#X#X#X#X",
"#X#X#X#X#X#X#X#X#X#X#X#X#X#X#X#X#X#X#X#X#X#X#X#X#X#X#X#X#X#X#X#X#X#X#X#X#X#X#X#X#X#X#X#X#X#X#X#X#X#X#X#X#X#X{.{.#X{.{.#X#X#X#X#X",
"#X#X#X#X#X#X#X$X#X#X#X#X#X#X#X#X#X#X#X#X#X#X#X#X#X#X#X#X#X$X#X#X#X#X#X#X#X#X#X#X#X#X#X#X#X#X#X#X#X#X#X#X#X#X{.{.&X&X{.{.#X#X#X#X",
"$X$X#X$X{.$X#X{.{.%X$X'.#X#X#X#X#X#X#X#X#X#X#X#X#X#X#X#X#X#X#X#X#X#X#X#X#X#X#X#X#X#X#X#X#X#X#X#X#X#X#X#X#X#X{.,X,X,X&X{.#X#X#X#X",
".X.X{.$X*X.X*X*X.X*X*X$X#X#X#X#X#X#X#X#X#X#X#X#X#X#X#X#X#X#X#X#X#X{.#X#X#X#X#X#X{.#X{.#X#X#X{.#X#X#X#X#X#X#X{.<X,X{.,X{.{.#X#X#X",
".X.X{.{.*X.X.X.X.X*X.X.X#X#X#X#X#X#X{.#X#X#X#X#X#X#X#X$X#X#X#X#X#X#X#X{.{.#X#X#X{.#X#X#X#X#X#X#X#X#X#X#X#X#X#X&X{.=X,X{.#X{.{.#X",
"%X.X%X.X.X*X*X*X*X*X.X%X#X#X#X#X#X#X#X'.~.[.#X#X#X#X#X#X#X#X#X#X{.#X#X#X#X#X#X#X#X#X#X#X#X#X#X#X#X#X#X#X#X#X#X#X&X{.#X#X1X,X&X#X",
"*X.X.X.X*X*X*X*X*X*X.X*X$X$X@X#X{.{.[.z w M `.#X#X#X#X#X#X#X#X#X#X{.#X#X#X#X#X#X#X#X#X#X#X#X#X#X#X{.#X#X{.{.{.{.-X=X{.{.,X,X{.{.",
"*X.X.X*X*X.X*X*X*X*X*X*X{.$X$X{.'.].z 8 J G XX&X#X#X#X#X#X#X#X#X{.#X#X#X#X#X#X#X#X#X#X#X#X#X#X#X#X#X#X#X{.{.&X,X<X.X,X{.{.&X{.{.",
"*X.X.X.X*X*X*X*X*X*X*X.X*X*X.X#X'.b 8 XXU.9 XX7X,X{.{.#X#X#X#X#X@X#X#X#X#X#X#X#X#X#X#X#X#X#X#X#X#X#X#X#X#X{.&X1X&X{.,X&X#X{.{.#X",
"*X*X.X.X*X*X*X*X*X.X*X*X*X.X.X%XT.w Z ;XP.9 V 3X1X<X#X#X#X#X#X#X#X#X#X#X#X#X#X#X#X#X#X#X#X#X#X#X#X#X#X#X#X#X{.,X{.{.%X{.{.#X#X#X",
".X*X.X.X*X.X*X*X*X*X*X*X].*X*X.XM t OX&X! 9 ! ,X,X3X3X{.{.{.{.#X#X{.#X@X#X{.@X#X#X#X#X#X#X#X#X#X#X#X#X#X#X#X#X&X&X,X&X#X#X#X#X#X",
"*X*X.X.X*X*X*X*X*X*X*X*X*X*X=XU.u Z >X;XN 9 I.,X3X<X7X3X{.{.#X#X#X#X#X@X{.#X@X{.#X{.{.#X#X#X#X#X#X#X#X#X#X#X{.#X{.{.{.#X#X#X#X#X",
"*X*X.X.X*X*X*X*X*X.X*X.X.X.X*XV H ^.6X|.i y ~.$X6X3X,X4X3X&X{.{.{.#X{.#X@X#X#X#X#X#X{.{.#X#X#X#X#X#X#X#X#X#X#X#X{.{.#X#X#X#X#X#X",
"*X.X.X.X*X*X*X*X*X*X*X.X.X.X XN a OX4XI.8 a [.{.7X,X{.5X5X7X3X{.#X#X#X{.@X#X#X#X#X#X#X#X#X#X#X#X#X#X#X{.#X#X#X#X#X{.#X#X#X#X#X#X",
".X*X%X*X*X*X*X*X*X*X*X.X.X.X Xi B :XOXe 9 b #X1X7X{.,XgX=X5X7X4X#X#X#X#X#X#X#X#X#X#X#X#X#X#X#X#X#X#X{.#X#X#X#X#X#X#X#X#X#X#X#X#X",
"].$X@X*X*X*X.X*X*X*X*X.X.X*X Xi V =XXX8 i Q.<X5X3X%X4X4X<X3X7X5X#X{.#X#X#X#X#X#X#X#X#X#X#X{.#X#X{.#X#X#X#X#X#X#X#X#X#X#X#X#X#X#X",
"$X#X#X$X%X*X*X*X*X*X*X.X].*X Xi V P.e 9 U.,X4X-X4X5X,X,X7X6XgX,X{.#X#X#X#X#X{.#X#X#X#X{.{.#X#X#X#X{.#X#X#X#X#X#X#X#X#X#X#X#X#X#X",
"#X#X#X#X'.@X*X.X*X*X*X.X*X*X XB r e 9 C 2X4X1X1X1X1X<X3X7X5X%X{.#X#X{.#X{.#X#X#X#X{.{.#X#X#X#X#X#X#X#X#X#X#X#X#X#X#X#X#X#X#X#X#X",
"#X#X#X#X@X$X*X*X*X.X*X*X*X*X].M G H ` 6X4X<X&X#X{.{.{.{.#X#X#X$X#X{.#X#X#X#X#X#X#X#X@X@X{.{.$X#X#X#X#X#X#X#X#X#X#X#X#X&X#X#X#X#X",
"#X#X#X#X@X$X*X*X*X*X.X.X*X$X(.e i I..X-X|.R.}.{.'.'.{.{.#X[.).].{.{.{.{.).}.W.E.).).|.[ B.b.E.#X#X#X#X#X#X#X#X#X#X#X#X#X#X#X#X#X",
"#X#X#X#X#X$X$X{.$X@X$X$X$X#XP.r I.{.#X{.b.u.V.] B.C.b.' [ B.V.g.( [ ] B.V.t.w.t.=.V.t.i.9.p.B.[.#X#X#X#X#X#X#X#X#X#X#X#X#X#X#X#X",
"#X#X#X#X#X@X@X$X#X#X#X#X#X(.e i (.{.#X{.B.9.9.,.i.9.9.i.p.8.p.a.a.a.i.a.a.i.2.7.9.9.9.7.8.8.=.}.#X#X#X#X#X#X#X#X#X#X#X#X#X#X#X#X",
"#X#X$X#X#X#X#X#X#X#X#X#X#XI.8 B [.#X#X#X[ i.$.p Q 2.<.>.3...7.,.<.8.8.$.8...o.4.$.7.3.X.-.8.k.).#X#X#X#X#X#X#X#X#X#X#X#X#X#X#X#X",
"#X#X#X#X#X#X#X#X#X#X#X#X#Xb 9 z #X#X#X@X' i. .W W :.o.| +.Y #.} ;.7.7. .@.s.s.} ..7.3.{ =.8.] #X#X#X#X#X#X#X#X#X#X#X#X#X#X#X#X#X",
"#X#X#X#X#X#X#X#X#X#X#X#X)./ a P.'.#X#X{.B.p.o.W Q <.$.wXlXbXlXeX#.8.0.m.lXbXzXiXh.4.7.2.7.7.g.[.#X#X@X#X#X#X#X#X#X#X#X#X#X#X#X#X",
"#X#X#X#X#X#X#X#X#X#X#X'._ #.+.h.Y.@X#X[.B.7.7.-.:.;.rXmXNXNXNXmXrXo.m.mXNXNXNXMXjX#.7.7.7.7.=.}.#X#X].(.#X#X#X#X#X#X#X#X#X#X#X#X",
"#X#X#X#X#X#X#X#X#X#X#X(.s.X.o.o.) #X#X'.B.9.2.>.7.#.lXNXNXvXuXfXzXz.lXbXuXfXMXNXmXm.;.7.7.3.C.].#X@XXXg.~.#X(.).{.#X#X#X#X#X#X#X",
"#X#X#X#X%X=X$X#X#X#X@XE.&.o. .#.~.#X#X@X] 8. .Q 7.j.bXNXMXoXf c uXiXzXH.f G.fXNXMXeX-.7.7.3.b.'.#X@XE.j.[ Y.d.d.).#X#X#X#X#X#X#X",
"#X#X#X#X=X-X&X#X#X#X#XT.a K o.s._.{.{.@X[ p.Q Q 2.h.zXNXmXH.= d oXc.9Xc   c fXNXnXwX;.7.7.7.g.{.@X@X!.k.0.r.s.) T.{.#X#X{.&X#X#X",
"#X#X%X%X%X%X%X#X#X#X#X(.e r / V.' `.{.[.B.p.;.-.8.&.N.xXNXfXH.H.c.*.#.oXH.H.cXMXsX%.*.6.7.7.t.E.#X@X) q.>.w.@.d.) {.#X#X{.#X#X#X",
"'.&X,X;X&X#X#X#X#X#X#XP.r N [.Y.l._ XXXXV.7.7.7.1.*.3.S.bXnXcXiX@.5.-.rXlXbXmXdX5.4.*.1.7.7.q.) ^.Y.l./ f.#.d.` !.{.#X#X#X#X#X#X",
"{.%X%X{.%X=X,X#X#X#X#XT.0 ~ #X#XY.l.m.iXA.8.7.7.1.4.$.5.n.eXn.+.$.4.$.#.n.eXm.l.-.} 4.1.3.7.A.iX0Xs.) `.(.(.T._ (.#X{.#X#X#X#X#X",
"{.{.&X&X#X&X&X#X#X#X#Xb r T.#X#X XeXv.aXA.9.7.7.7.3.q q -.>.4.7.7.7.2.7.2.;.$...& | 7.7.7.7.A.eXv.qX`.$X*X#X#X@X#X#X#X{.#X#X#X#X",
"#X{.{.{.{.{.#X#X#X#X[.n u ~.#X#X(.yXiXvXA.9.7.7.7.7.} X & q o.,.2.3.2.>.$.} 2 . $ -.7.7.7.7.A.dXeXyX].$X%X#X#X#X#X{.{.#X#X#X#X#X",
"#X#X#X#X#X#X#X#X#X#XP.8 H P.#X#X{.!.^.+XC.7.7.7.7.8.-.@ . . - c.n.t I wXw . . . q 2.7.7.7.8.C.+XXXP.@X$X$X$X#X#X#X#X{.#X#X#X#X#X",
"#X#X#X#X#X#X#X#X#X#XP.t i ).#X#X#X#X#X[.C.9.7.7.7.7.7.q . + > eXiX- Z fXn + + + o.9.7.7.7.p.[ '.@X$X#X@X@X@X#X#X#X{.#X#X#X#X#X#X",
"#X#X#X#X#X#X#X#X#X#X{.P.).{.#X#X#X#X#X{.b.3.-.<.7.7.7.-.$ + + > > # > 4 # + . q 7.<. .o.7.8.B.{.@X#X#X#X@X#X#X#X#X#X#X#X#X#X#X#X",
"#X#X#X#X#X#X#X#X#X#X#X#X#X#X#X#X#X#X{.'.g.>.Q o.7.7.7.7...$ # 5 g 4 5 g < X 7 >.p. .p Q <.8.=.).#X#X#X#X#X#X$X#X#X#X#X#X#X#X#X#X",
"#X#X#X#X#X#X#X#X#X#X#X#X#X#X#X#X#X#X#X'.B.8.<.7.2.>.7.7.7.o.K T E E E E u { 4.7.7. .p W <.8.g.[.#X#X#X#X#X#X#X#X#X#X#X#X#X#X#X#X",
"#X#X#X#X#X#X#X#X$X#X#X#X#X#X#X#X#X#X#X{.] 8.7.7.{ W ;.7.7.7.*.&.+.T +.&.%.1.7.8.9.;.Q =.7.y.' {.#X#X#X#X#X#X#X#X#X#X#X#X#X#X#X#X",
"#X#X#X#X#X#X#X#X#X#X#X#X#X#X#X#X#X#X#X#XR.w.7.>.p W =.7.7.7.q.%.M.M.%.&.q.3.7.7.o.o.7.7.7.w.R.@X#X#X#X#X#X#X#X#X#X#X#X#X#X#X#X#X",
"#X#X#X#X$X#X#X#X#X#X#X#X#X#X#X#X#X#X#X#XW.t.7.7.X.@.2.8.7.7.7.3.6.6.6.8.7.7.7.7.| #.7.7.7.5.[ '.#X#X#X#X#X#X$X#X#X#X#X#X#X#X#X#X",
"#X$X#X#X#X#X#X#X#X#X#X#X#X#X#X#X#X#X#X#XR.w.2.,.q.:.5.4.,.:.,.3.4.q.w.5.5.,.,.5.<.<.2.2.3.4.( {.#X#X#X#X#X#X#X#X#X#X#X#X#X#X#X#X",
"#X#X#X#X#X#X#X#X#X#X#X#X#X#X#X#X#X#X#X#X).f.l.Z.dXpXZ.k.n.pXZ.j.O.U U h.l.Z.rXf.C.C.Z.Z.A.h.E.{.#X#X#X#X#X#X#X#X#X$X#X#X#X#X#X#X",
"#X#X#X#X#X#X#X#X#X#X#X#X#X#X#X#X#X#X{.#X`.oXbXMXNXNXmXbXjXjXbXhXx.D A Z hXjXhXzXMXmXMXmXbXiXQ.{.#X#X#X#X#X#X#X#X#X#X#X#X#X#X#X#X",
"#X#X#X#X#X#X#X#X#X#X#X#X#X#X#X#X#X#X{.{._.+XMXNXNXNXNXNXNXbXjXjXzXS S lXlXbXNXNXNXNXNXNXNXuX/.{.#X#X#X$X#X#X#X#X#X#X#X#X#X#X#X#X",
"#X#X#X#X#X#X#X#X#X#X#X#X#X#X#X#X#X#X#X#X{.z z.z.x.x.x.x.x.8Xz.z.R D A R 9X9X9X9X9X9X9X9X0XC /.#X#X#X#X#X#X#X#X#X#X#X#X#X#X#X#X#X",
"#X#X#X#X#X#X#X#X#X#X#X#X#X#X#X#X#X#X#X#X#Xk & X X X X % 7 X . X < F F < o o @ 2 @ X @ X % 6 `.{.#X#X#X#X#X#X#X#X#X#X#X#X#X#X#X#X",
"#X#X#X#X#X#X#X#X$X#X#X#X#X$X#X#X#X#X#X#X#Xk 3 * % % % 3 0 % % $ < D F < $ $ @ 2 o @ + @ % 6 _.{.#X#X#X#X#X#X#X#X#X#X#X#X#X#X&X{.",
"#X#X#X#X#X#X#X#X#X#X#X#X#X#X#X#X#X#X$X#X#Xl y P P P P P P P P L r 1 1 3 J t 0 0 w t I O.I 6 `.#X#X#X#X#X#X#X#X#X#X#X#X#X#X#X#X#X",
"#X#X#X#X#X#X#X#X#X#X$X#X#X#X#X#X#X#X#X#X{.v 8 0 J L L L L K y J 0 3 3 y y y K s e.r.e.0.u.M _.{.#X#X#X#X#X#X#X#X#X#X#X#X#X#X#X#X",
"#X$X#X#X#X#X#X#X#X#X#X#X#X#X#X#X#X#X#X#X{.L.l j , 8 0 0 7 , l j l l k 2 y P 0 I  .M I.d.#.b '.{.#X#X#X#X#X#X#X#X#X#X#X#X#X#X#X#X",
"#X#X#X#X#X#X#X$X#X#X#X#X#X#X#X#X#X#X#X#X{.{.#X/., 8 y K 8 v #X@X#X#X_.j w y K 8 > D.^.kXoX/.#X@X$X#X#X#X#X{.#X#X#X#X#X#X#X#X#X#X",
"#X#X#X#X#X#X#X#X#X#X#X#X#X#X#X#X#X#X#X#X$X{.#X{.! a w 6 6 v J.'.#X#X#X@XD.6 w 4 j F.eXfX!.#X#X#X#X#X#X#X&X$X#X#X#X#X{.#X#X#X#X#X",
"#X#X#X#X#X#X#X#X#X#X#X&X#X#X#X#X#X#X#X#X#X#X#X#XE.A./ Q.x O   x #X#X#X#X#X'.L.L./.yXkXG.K./.#X#X#X{.{.&X{.,X{.{.#X#X#X#X#X#X#X#X",
"#X#X#X#X#X&X#X#X#X#X#X#X#X#X#X#X#X#X#X#X#X#X#X#X) r.^ Q.C :   d @X#X#X#X#X#X#X`.+XbXoX; , f K.#X#X{.{.{.{.,X&X{.#X#X{.#X#X#X#X#X",
"#X#X#X#X#X#X#X#X#X#X#X#X#X#X#X#X#X#X#X#X#X#X&X#X' r.^ tXiX,   h '.#X#X#X@X$XQ.d n C h   : - x @X#X#X{.{..X&X.X&X#X{.#X#X#X#X#X#X",
"#X#X#X#X#X#X#X#X#X#X#X#X#X#X#X#X#X#X#X#X#X#X{.#XY.e.h.tXG.h : O D.#X#X#X#X`.d       O - m n v @X#X{.{.&X,X{.&X,X#X#X#X#X#X#X{.#X",
"#X#X#X#X#X#X#X#X#X#X#X#X#X#X#X#X#X#X#X#X#X{.#X#X!.^ b L.L., n O D.$X#X#X#X'.d   .   - n n j [.#X#X#X#X&X&X{.&X&X#X#X#X#X{.#X#X#X",
"#X#X#X#X#X#X#X#X#X#X#X#X#X#X#X#X#X#X#X#X#X{.&X{.#X'.{.{.L.= = d `.#X#X#X#X#Xv - k : ; v J.`.#X{.#X#X{.{.#X#X{.{.{.#X#X{.#X{.#X{.",
"#X#X#X#X#X#X#X#X#X#X#X#X#X#X#X#X#X#X#X#X#X#X#X#X#X#X{.{.#XD.v _.#X#X#X#X#X#XK.d , ; D.#X#X@X#X#X#X#X#X#X#X#X#X#X#X#X#X#X#X#X{.#X",
"#X#X#X#X#X#X$X#X#X#X#X#X#X#X#X#X#X#X#X#X#X#X#X#X#X#X$X{.#X#X#X#X#X#X#X#X#X#X$XQ.L.Q.#X#X#X#X#X#X#X#X#X#X#X#X#X#X#X#X{.#X#X#X#X#X"
};
