/* XPM */
static char *result[] = {
/* columns rows colors chars-per-pixel */
"64 64 235 2 ",
"   c #030202",
".  c #0F1618",
"X  c #321F17",
"o  c #0E2A2F",
"O  c #5C1817",
"+  c #681716",
"@  c #701713",
"#  c #4D2A12",
"$  c #553114",
"%  c #6A2D1A",
"&  c #6A361A",
"*  c #6E372A",
"=  c #704218",
"-  c #5A4128",
";  c #6B4D30",
":  c #7B6B35",
">  c #0A4E55",
",  c #354B4F",
"<  c #085B63",
"1  c #0A6D76",
"2  c #33746F",
"3  c #2A7773",
"4  c #54504F",
"5  c #744A48",
"6  c #596A4F",
"7  c #6D724C",
"8  c #7B7847",
"9  c #447866",
"0  c #557D63",
"q  c #6E766D",
"w  c #B02E19",
"e  c #C4331D",
"r  c #91561A",
"t  c #A85B1E",
"y  c #A8651A",
"u  c #B46C1B",
"i  c #B3731E",
"p  c #875922",
"a  c #965930",
"s  c #866728",
"d  c #98692A",
"f  c #9C732B",
"g  c #896E36",
"h  c #8A733B",
"j  c #957234",
"k  c #A56B23",
"l  c #A9732D",
"z  c #B67526",
"x  c #C67518",
"c  c #D07711",
"v  c #8C5547",
"b  c #9A734B",
"n  c #967263",
"m  c #B46C63",
"M  c #C46B5B",
"N  c #2C837A",
"B  c #368D7B",
"V  c #68995C",
"C  c #739453",
"Z  c #79B25F",
"A  c #4B8966",
"S  c #558E6D",
"D  c #599A6B",
"F  c #4A8672",
"G  c #489779",
"H  c #678B6B",
"J  c #5FAB6F",
"K  c #4AAA7D",
"L  c #55AB77",
"P  c #69AA66",
"I  c #68B36A",
"U  c #63B272",
"Y  c #A6A91C",
"T  c #9A9825",
"R  c #9B9F2D",
"E  c #8A8638",
"W  c #998732",
"Q  c #959A36",
"!  c #A7882A",
"~  c #A89833",
"^  c #B4B322",
"/  c #AAA73B",
"(  c #B0AC32",
")  c #AAB73B",
"_  c #BCB739",
"`  c #CBB72F",
"'  c #E4BC3C",
"]  c #AFC43F",
"[  c #B3C43A",
"{  c #D1CA1E",
"}  c #CAC626",
"|  c #D4CE26",
" . c #D3CC2D",
".. c #DCD325",
"X. c #DBD42B",
"o. c #C8C535",
"O. c #D4CB39",
"+. c #DDD738",
"@. c #ECDE25",
"#. c #E3D729",
"$. c #E9D42F",
"%. c #EADC2B",
"&. c #E6C738",
"*. c #E6D633",
"=. c #E5DB35",
"-. c #EEE225",
";. c #EDE12D",
":. c #F5E525",
">. c #FCEA24",
",. c #F3E52B",
"<. c #F7E828",
"1. c #FCEB2A",
"2. c #FDF22A",
"3. c #F4E731",
"4. c #F6ED32",
"5. c #879D4C",
"6. c #9B9B46",
"7. c #929251",
"8. c #AB8C45",
"9. c #B78657",
"0. c #8AA64B",
"q. c #9AA843",
"w. c #98BA46",
"e. c #87A359",
"r. c #A8A94D",
"t. c #B8B645",
"y. c #BBB758",
"u. c #859171",
"i. c #95BF63",
"p. c #ACAB6C",
"a. c #B5B565",
"s. c #CFB746",
"d. c #CD9B63",
"f. c #9BC35B",
"g. c #ABC24B",
"h. c #B9C571",
"j. c #C7CC46",
"k. c #D5CD44",
"l. c #D7D849",
"z. c #CBCA55",
"x. c #CAD457",
"c. c #D5D752",
"v. c #DFE34C",
"b. c #DCE557",
"n. c #E4E850",
"m. c #E2E955",
"M. c #E2EB59",
"N. c #CAC565",
"B. c #CCC076",
"V. c #0A7984",
"C. c #5F7984",
"Z. c #0B8D9A",
"A. c #138C94",
"S. c #1A9598",
"D. c #1A959C",
"F. c #298A89",
"G. c #338886",
"H. c #2B9388",
"J. c #379888",
"K. c #269894",
"L. c #2E919A",
"P. c #38AB8D",
"I. c #2AAA9C",
"U. c #36A994",
"Y. c #0C9AA7",
"T. c #149CA6",
"R. c #229DA4",
"E. c #0EA1AE",
"W. c #12A1AC",
"Q. c #19A8AB",
"!. c #0DA7B5",
"~. c #0BADBC",
"^. c #11A5B1",
"/. c #13ADB5",
"(. c #10ADB8",
"). c #0CB0BF",
"_. c #1AB0BF",
"`. c #27A9A5",
"'. c #50938F",
"]. c #708C8B",
"[. c #4DADB2",
"{. c #72B5BA",
"}. c #08AFC0",
"|. c #0DB2C1",
" X c #13B3C2",
".X c #1BB6C4",
"XX c #22B8C7",
"oX c #24B9C6",
"OX c #29BAC7",
"+X c #2DBCC9",
"@X c #34BDCA",
"#X c #39BFCB",
"$X c #4BBCC6",
"%X c #3EC0CC",
"&X c #43C2CD",
"*X c #4BC3CE",
"=X c #53C2CD",
"-X c #4DC5D1",
";X c #54C6D0",
":X c #5EC7D2",
">X c #5CC9D4",
",X c #66CBD5",
"<X c #6CCDD6",
"1X c #74CDD6",
"2X c #73D2DB",
"3X c #89908E",
"4X c #B6B193",
"5X c #8D9EA4",
"6X c #9EAEB8",
"7X c #B3B7B0",
"8X c #BAB9B5",
"9X c #C1A39A",
"0X c #C4BAA7",
"qX c #D0BDA6",
"wX c #A9CCAE",
"eX c #CCC885",
"rX c #C9C795",
"tX c #C7C6A9",
"yX c #C7C7B9",
"uX c #D8D8B5",
"iX c #84D5DF",
"pX c #B2C4C8",
"aX c #AAD3E2",
"sX c #CCCBC9",
"dX c #D3D1CB",
"fX c #DBD9CA",
"gX c #D7D9D5",
"hX c #E2DBD1",
"jX c #EAE4CA",
"kX c #E3E4D7",
"lX c #E8E8E7",
"zX c #F0EFED",
"xX c #F4F5F5",
"cX c #F6F7F6",
"vX c #FDFEFD",
/* pixels */
"|.|.|.|.|.|.|.|.|.|.|.|.|.|.|.|.|.|.|.|.|.|.|. X|.|.|.|.|.|.|.|.|.(.K.D.!.~.|.|.|.|.|.|.|.|.|.|.|.|.|.|.|.|.|.|.|.|.|.|.|.|.|.|.",
"|.|.|.|.|.|.|.|.|.|.|.|.|.|.|.|.|.|.|.|.|.|.|.|.|.|.|.|.|.|.|.|.|.N d j 8 F T.|.|.|.|.|.|.|.|.|.|.|.|.|.|.|.|.|.|.|.|.|.|.|.|.|.",
"|.|.|.|.|.).|.|.|.|.|.|.|.|.|.|.|.|.|.|.|.|.|.|.|.|.|.|.|.|.).).XX'.i S S g j F ^.|.|.|.|.|.|.|.|.|.|.|.|.|.|.|.|.|.|.|.|.|.|.|.",
"|.|.|.|. XXX X|.|.|.).|.|.|.|.|.|.|.|.|.|.|.|.|.).|.).|.}.).).%X>X`.f u.-X{.H y h K.|.|.|.|.|.|.|.|.|.|.|.|.|.|.OX@X.X|.|.|.|.|.",
"|.|.|.).+XOX.X X%X X|.|.|.|.|.|.|.|.|.|.|. X)._.%X%X%X%X%XoX%X<X*X.XH y '.iX;XG.l k H.|.|.|.|.|.|.|.|.|.|.|.|..X-XOXOX X|.|.|.|.",
"|.|.|.|..X.X.X XoX.X).|.|.|.|.|.|.|.|.|.|.).).<X,X-X&X&X;X-X X%X+X*X[.: k '.,X+X[.b j K.}.|.|.|.|.|.|.|.|.|.|.XXOX|.XX.X).|.|.|.",
"|.|.|.|.|. XXX.X|.|.|.|.|.|.|.|.|.|.|.|.|.).+X;X,XXX).%X&X%X%X%X}..X,X[.j z u.$X,X`.g 8 /.|.|.|.|.|.|.|.|.|.|. XOXoX.X|. XXX X).",
"|.|.|.|.|.OX+X X.X|.|. X|.|.|.|.|.|.|.|.|.|.+X-X,X_.).%X2X). X,X#X X#XXXR.7.u g '.=XF.k F }.|.|.|.|.|. X|.|.|.|.|.|.|.|.@X&XOX|.",
"|.|.|.|.|..XOX.X X|.|.|.|.|.|.|.|.|.|.|.|.|. X>X<X%X|. X,X&X).%X*X;X>X@X|.$XH l z b H z 8 }.|.|.|.|.|.|.|.|.|.|.@X@XoX|.oX%X.X|.",
"|.|.|.|.|.|. X X|.|.|.|.|.|.|.|.|.|.|.|.|.|.)..X;X1X;XOX*X&X*X&XXX X*X2X&X,XiX[.0 d k u F |.|.|.|.|.|.|.|.).|.%X&X.X.X.X|. X|.}.",
"|.|.|.|.|.|.|.|.|.|.|.|.|.|.|.|.|.|.|.|.|.|.|.|.).OX&X&X&XoX.XOX#X&X#X=X+X+X:X@X-XL.d d T.|.|.|.|.|.|.|.|.|. X%XoX|..XoX|.|.|.|.",
"|.|.|.|.|.|.|.|.|.|.|.|.|.|.|.|.|.|.|.|.|.|.|.|.).).|.).|.).|.).|..X%X,X<X;X>X=X+X|.F.k F ~.|.).|.|.|.|.|.).|.oX.X|..X.X|.|.|.|.",
"|.|.|.|.|.|.|.|.|.|.|.|.|.|.|.|.|.|. X|.|.|.|.|.|.|.|.|.|.|.|.|.|.|.~.|. X.X|.|.|.|.}.0 d F.|.|.|.|.|.|.|.|.|.|.XXoX.X|.|.|.|.|.",
"|.|.|.|.|.|.|.|.|.|.|.|.|.|.|.|.|.|.|.|.|.|.|.|.|.|.|.|.|.|.|.|.|.|.|.|.|.}.|.|.|.|.|.D.a b ^.}.|.|.|.|.|.|.|.|.|.|.|.|.|.|.|.|.",
"|.|.|.|.|.|.|.|. X|.|.|.|.|.|.|.|.|.|.|.|.|.|.|.|.|.|.|.|.|.)._.|.}.|.|.|.|.|.|.|.|.|.}.2 u B }.|.|.|.|.|.|.|.|.|.|.|.|.|.|.|.|.",
"|.|.|.|.|.|.|.|.|.|.|.|.|.|.|.|.|.|.|.|.|.|.|.|.|.|.|. X|.|.|. X.X X|.|.|.|.|.|.|.|.|.|.W.g : Y.(.|.|.|.|.|.|.|.|.|.|.|.|.|.|.|.",
"|.|.|. X|.|.|.|.|.|.|.|.|.|.|.|.|.|.|.|.|.|.|.|.|.|.|.|.|.|.|.|._._.|.|.|.|.|.|.|.|.|.).~.9 T ) V E.|.|.|.|.|.|.|.|.|.|.|.|.|.|.",
"|.|.|.|.|.|.|.|.|.|.|.|.|.|.|.|.|.|.|.|.|.|.|.|.|.|.|.|.|.|.|.|.|. X).|.|.|.|.|.|.).|.|.D.0.:.2.o.K.|.|.|.|.|.|.|.|.|.|.|.|.|.|.",
"|.|.|.|.|.|.|.|.|.|.|.|.|.|.|. X|.|.|.|.|. X|.|.|.|.|.|.|.|.|.|.|.).|.|.|.|.|.|.).|.).K.C | :.<.%.G }.|.|.|.|.|.|.|.|.|.|.|.|.|.",
"|.|.|.|.|.|.|.|.|.|.|.|.|.|.|.|.|.|.|.|.|.|.|.|.|.|.|.|.|.|.|.|.|.|.|.|.|.|.|.|.).).B q.C H.D h ! J.|.|.|.|.|.|. X|.|.|.|.|.|.|.",
"|.|.|.|.|.|.|.|.|.|.|.|.|.|.|.|.|.|.|.|.|.|.|.|.|.|.|.|.|.|.|.|.|.|.|.|.).).|.|.Q.D R D !.}.).B y 3 |.|.|.|.|.|.|.|.|.|.|.|.|.|.",
"|.|.|.|.|.|.|.|. X|.|.|.|.|.|.|.|.|.|.|.|.|.|.|.|.|. X|.|.|.|.|.|.|.|.|.).).).K.0.0.H.~.|.).|.D.a 8 T.}.|.|.|.|.|.|.|.|.|.|. X|.",
"|.|.|.|.|.|.|.|.|.|.|.|.|.|.|.|.|.|.|.|.|.|.|.|.|.|.|.|.|.|.|.|.|.|.|.|.}.~.B ) C D.).}.).|.).~.0 f 0.U.}.|.|.|.|.|.|.|.|.|.|.|.",
"|.|. X|.|.|.|.|.|.|.|.|.|.|.|.|. X|.|.|.|.|.|.|.|.|.|.|.|.|.|.|.|.|.|.|.Y.V ( A E.|.|.).|.|.|.).D / t.e.!. X|.|.|.|.|.|.|.|.|.|.",
"|.|.|.|.|.|.|.|.|.|.|.|.|.|.|.|.|.|.|.|.|.|.|.|.|.|.|.|.).).|.).(.(.~.K.5.Q N !.|.|.|.|.|.|.|.(.e.~ ` o.K.|.|.|.|.|.|.|.|.|.|.|.",
"|.|.|.|.|.|.|.|.|.|.|.|.|.|.|.|.|.|.|.|.|.|. X|.|.|.|.|.)./.I.J f.i.V q.T A }.|.|.|.|.|.|.|.|.).J.5.W E K.}.|.|.|.|.|.|.|.|.|.|.",
"|.|.|.|.|.|.|.|.|.|.|.|.|. X|.|.|.|.|.|.|.|.|.|.|.|.|.|./.Z j.z.c.r.( Q  .+.L (.|.|.).|.|.|.|.|.|.D p : ^.|.|.|.|.|.|.|.|.|.|.|.",
"|.|.|.|.|.|.|.|.|.|.|.|.|.|.|.|.|.|.|.|.|.|.|.|.|.|.|.|.I.] p.u.6./ 6.O.2.1.*.w.P.|.|.).|.|.|.|.|.F.: k K.|.|.|.|.|. X|.|.|.|.|.",
"|.|.|.|.|.|.|.|.|.|.|.|.|.|.|.|.|.|.|.|.|.|.|.|.|.|.).|.K e.sXp.E 6.k.,.X...1.>.[ `.}.).|.|.|.|.}.P q.f 8 |. X|.|.|.|.|.|.|.|.|.",
" X|.|.|.|.%X|.|.|.|.|.|.|.|.|.|.|. X|.|.|. X|.|.|.|.).I.0.8XvXyXn t.3.,.^ | 1.>.<.w.U.).|.|.|.|.^.q.L 7 z L.|.|.|.|.|.|.|.|.|.|.",
"|.|.|.|..X%X.X).|.|.|.|.|.|.|.|.|.|.|.|.|.|.|.|.|.|.|.I a.zXlXtXh.+.1.1.#.,.;.%.>.:.| U ).|.|.}.J.) T.N t 6 ~.|.|.|.|.|.|.|.|. X",
"|.|. X.X.X.X|.|. X|.|.|.|.|.|.|.|.|.|.|.|.|.|.|.|.|.`.g.a.4Xh.x.l.;.1.>.@.+.t.` ` %.2.#.L /. X~.V 0./.T.6 G..X X|.|.|.|.|.|.|.|.",
"|. X%X+X.X|. X|.|.|.|.|.|.|.|.|.|.|.|.|.|.|.|.|.}.I.f.b.M.b.b.c.;.<.1.k.rXfXfXtX7.;.1.>.X.0.U.W.) D }.}.)._._.).|.|.|.).|.).|.).",
"|..X|. X.X.X%X X|.|.|.|.|.|.|.|.|.|.|.|.|.|.|.|.}.P v.v.c.M.b.+.<.<.*.uXcXvXvXvXfXy.X.1.1.>.o.V _ H.|.|.|._._.|.|.|.|.|.|.|.|.|.",
"|.|..X.X|..X.X|.|.|.|.|.|.|.|.|.|.|.|.|. X|.|.|.`.g.l.T T b.c.=.;.#.B.cXvXvXvXpX3X4X;.$.<.1.1.} R Q.|.|.|.|.).|.|.|.|.|.|.).|.|.",
"|.|.|.|.|.|.|.|.|.|.|.|.|.|.|.|.|.|.|.|.|.|.|.I.g.M.j.T [ c.=.3.$.&.s.lXvXvXxXC.o 3Xk./ #. .1.<.} P.|.|.).|.|.|.|.|.|.|.|.|.|.|.",
"|.|.|.|.|.|.|.|.|.|.|.|.|.|.|.|.|.|.|.|.).).).U v.l.b.b.c.+.2.1.+./ *.jXvXvXvXpX5XpXyXtXp.` 1.1.2.] I.~.).).|.|.|.|.|.|.|.|.|.|.",
"|.|.|.|.|.|.|.|.|.|.|.|.|.|.|.|.|.|.|.|.).Q.U g.[ T c.M.l.;.4.2.~ s z.zXvXvXvXvXxXsXlX5X].a.o.,.-.@.[ K ).).|.|.|.|.|.|.|.|.|.|.",
"|.|.|.|.|.|.|.|.|.|.|.|.Y.1 V.1 A.).|.|.!.B j.M.l.j.b.v.+.^ X.+.& = +.rXzXvXvXxXdXlXgX, , 7XO.X.Y } >.) (.).|.|.|.|.|.|.|.|.|.|.",
"|.|.|.|.|.|.|.|.|.|.|.|.<         Z.|.(.3 5Xh.n.M.M.v.3.} Y +.j + % ` 3.N.rXtX0XlXvXxX6X6XhX+.} Y { -.I ).).|.|.|.|.|.|.|.|.|.|.",
"|.|.|.|.|.|.|.|.|.|.|.|.Z.o . 4 o E.E., $ 3XwXg.M.m.=.1.| } ' % + + p ,.>.-. .yXvXvXvXvXvXfX+.-...X.I ).|.|.|.|.|.|.|.|.|.|.|.|.",
"|.|.|.|.|.|.|.|.|.|.|.|.|.~.C.'.Y.).A.& X ; aXwXj.+.;.} ;.4.~ + @ + 5 t.2.-. .a.kXvXvXvXxXB...-.:.I ).|.|.|.|.|.|.|.|.|.|.|.|.|.",
"|.|.|.|.|.|.|.|.|.|.|.|.}.U.0.K.).W.N - $ X 5XpXrXx.:.| ;.,.8.v + + 8XyXr.;.o.$.z.yXzXgXB.+.....[ Q.|.|.|.|.|.|.|.|.|.|.|.|.|.|.",
"|.|.|.|.|.|.|.|.|.|.|.|.|.Q.V C D 6 x r & & 8 fXvXjXk.<.2.4.d.d.v + 5 q 5 s.=.O.;.+.r.s.-.>.-.g.P.|.|.|.|.|.|.|.|.|.|.|.|.|.|.|.",
"|.|.|.|.|.|.|.|.|.|.|.|.|.|.!.I.S : c x = t x 9.kXvXuXO.,.1.*.M M * @ O 3XqX6.O.t.+.*.( <.>.w.Q.|.|.|.|.|.|.|.|.|.|.|.|.|.|.|.|.",
"|.|.|.|.|.|.|.|.|.|.|.|.|.).).|.~.2 c c r u y $ b hXvXtXN.;.*.s.d.m + % r.B.O.r.s.O._ o.X.w.I.|.|.|.|.|.|.|.|. X|.|.|.|.|.|.|.|.",
"|.|.|.|. X|.|.|.|.|.|.|.|.|.|.).).E.F.N 3 3 d r & l dXgXtXj.$.' s.b O ~ 4.4.1.3. .:.<.#.L (.).|.|.|.|.|.|.|.|.|.|.|.|.|. X|.|.|.",
"|.|.|.|.|.|.|.|.|.|.|.|.|.|.|.).).).|.}.}.}.F.d c t b uXlXn ` $.' s.W *.1.1.1.;.^ #.X.I ~.).|.|.|.|.|.|.|.|.|.|.|. X|.|.|.|.|.|.",
"|.|.|.|.|.|.|.|.|.|.|.|.|.|. X|.|.|.|.|.|.|.|.F.j y # a M m 4Xa.=.&.*.3.,.} -.-...[ K |.|.|.|.|.|.|.|.|.|.|.|.|.|.|.|.|.|.|. X|.",
"|.|.|.|.|.|.|.|.|.|.|.|.|.|.|.|.|.|.|.|.|.|.|.|.S.g r w e 9XxX8XN.%.$.1.| Y ..2.[ I.|.|.|.|.|.|.|.|.|.|.|.|.|.|.|.|.|.|.|.|.|.|.",
"|.|.|.|.|.|. X|.|.|.|.|.|.|.|.|.|.|.|.|.|.|.|.|.|.A.: t & ; 0XlXfXeX .<.-...@.] P.).|.|.|.|.|.|.|.|.|.|.|.|.|.|.|.|.|.|.|.|.|.|.",
"|.|.|.|.|.|.|.|.|.|.|.|.|.|.|.|.|.|.|.|. X|.|.|.|.}.T.: y = z 0XvXvXfX+.>.[ K /.).).|. X|.|.|.|.|.|.|.|.|.|.|.|.|.|.|.|.|.|.|.|.",
" X|.|.|.|.|.|.|.|.|. X|.|.|.|.|.|.|.|.|.|.|.|.|.|.|.|.9 k x y - 4XzXdX].I P.|.|.).).|.|.|.|.|.|.|.|.|.|.|.|.|.|.|.|.|.|.|.|.|.|.",
"|.|.|.|.|.|.|.|.|.|.|.|.|.|.|.|.|.|.|.|.|.|.|.|.|.|.).0 x k t $ ; 3XL.~.|.|.|.|.|.|.|.|.|.|.|.|.|.|.|.|.|.|.|.|. X|.|.|.|.|.|.|.",
"|.|.|.|.|.|.|.|.|.|.|.|.|.|.|.|.|.|.|.|.|.|.|.|.|.|.|.0 x z p d 6 S.).).|.|.|.|.|.|.|.|.|.|.|.|.|.|.|.|.|.|.|.|.|.|.|.|.|.|.|.|.",
"|.|.|.|.|.|.|.|.|.|.|.|.|.|.|.|.|.|. X|.|.|.|.|.|.|.|.G.k ~ E 3 E.|.).).|.|.|.|.|.|.|.|.|.|.|.|.|.|.|.|..X|.|.|.|.|.|.|.|.|.|.|.",
"|.|.|.|.|.|.|.|.|.|.|.|.|.|.|.|.|.|.|.|.|. X|.|.|.|.)./.2 A w.'.~.}.|.|.|.|.|.|.|.|.|.|.|.|.|.|.|.|.|.|.|.%X|.).|.|.|.|.|.|.|.|.",
"|.|.|.|. X|.|.|.|.|.|.|.|.|.|.|.|.|.|.|.|.|.|.|.|.|.).|.(.~.'.u.!.|.|.|.|.|.|.|.|.|.|.|.|.|.|.|.|.|.|..X|.%X|.|.|.|.|.|.|.|.|.|.",
"|.|.|.|.|.|.|.|.|.|.|.|.|.|. X|.|.|.|.|.|.|.|.|.|.|.|.|.).).[.3X!.).).).|.|.|.|.|.|.|.|.|.|.|.|.|.|.|.|. X.X.XoX|.|.|.|.|.|.|.|.",
"|.|.|.|.|.|.|.|.|.|.|.|.|.|.|.|.|.|.|.|.|.|.|.|.|.|.|.).|.).{.].A.Y.).}.|.|.|.|.|.|.|.|.|.|.|.|.|.|.|.|.%X X X%X|.|.|.|.|.|.|.|.",
"|.|.|.|.|. X|.|. X|.|.|.|.|.|.|.|.|.|.|.|.|.|.|.|.|.|.|.Y.> , . . o Z.|.|.|.|.|.|.|.|.|.|.|.|.|.|.|.|.oXoX|. X.X|.|.).|.|.|.|.|.",
"|.|.|.|.|.|.|.|.|.|.|.|.|.|.|.|.|.|.|.|.|.|.|.|.|.|.|.|.>   X 4 q 4 V.|.|.|.|.|.|.|.|.|.|.|.|.|.|.|.|.|.|.|.|.|.).).).).|.|.|.|.",
"|.|.|.|.|.|.|.|.|.|.|.|.|.|.|.|.|.|.|.|.|.|.|.|.|.|.|.).3 4 q ].q C.E.|.|.|.|.|.|.|.|.|.|.|.|.|.|.|.|.|.|.|.|.|.|.).).|.|.|.).).",
"|.|.|.|.|.|.|.|.|.|.|.|.|.|.|.|.|.|.|.|. X|.|.|.|.|.|.|.^.L.V.Y.Y.!.|.|.|.|.|.|.|.|.|.|.|.|.|.|.|.|.|.|.|.|.|.|.|.|.|.|.|.|.|.|."
};
