/* XPM */
static char *result[] = {
/* columns rows colors chars-per-pixel */
"64 64 220 2 ",
"   c #040405",
".  c #0A1516",
"X  c #071F22",
"o  c #0F2224",
"O  c #272B2C",
"+  c #6D1215",
"@  c #671A16",
"#  c #592C12",
"$  c #563416",
"%  c #6A2E19",
"&  c #672721",
"*  c #7E4C3C",
"=  c #736636",
"-  c #153B40",
";  c #125057",
":  c #2F4C53",
">  c #0A5D65",
",  c #096D76",
"<  c #2D7571",
"1  c #4A5556",
"2  c #77494A",
"3  c #59755B",
"4  c #6D664B",
"5  c #6C734B",
"6  c #767A4B",
"7  c #6B7B53",
"8  c #7D7D52",
"9  c #615F60",
"0  c #507568",
"q  c #6E6C6B",
"w  c #AA3219",
"e  c #844D1A",
"r  c #88541B",
"t  c #955B1A",
"y  c #A8661A",
"u  c #B66C1B",
"i  c #BF731A",
"p  c #855C27",
"a  c #90512F",
"s  c #A64E20",
"d  c #946A2C",
"f  c #8C6A33",
"g  c #887339",
"h  c #977935",
"j  c #A66A25",
"k  c #AA752B",
"l  c #C97515",
"z  c #D97C11",
"x  c #C24732",
"c  c #955549",
"v  c #836B4D",
"b  c #867946",
"n  c #8B6C58",
"m  c #BD7168",
"M  c #388779",
"N  c #68975A",
"B  c #719556",
"V  c #7AA459",
"C  c #7DB85F",
"Z  c #568B6D",
"A  c #579B6A",
"S  c #488978",
"D  c #499B77",
"F  c #55AF7A",
"G  c #59A979",
"H  c #6EAA67",
"J  c #68B56C",
"K  c #77B867",
"L  c #93941F",
"P  c #B9B81E",
"I  c #968733",
"U  c #999638",
"Y  c #AC912F",
"T  c #9CAA3C",
"R  c #BDB629",
"E  c #AAA931",
"W  c #BAAB37",
"Q  c #B7B837",
"!  c #C0BD1F",
"~  c #CBB532",
"^  c #C4BB37",
"/  c #E2BF3C",
"(  c #B9C639",
")  c #CCC727",
"_  c #D4CB28",
"`  c #D9D52A",
"'  c #DDD429",
"]  c #CCC535",
"[  c #C9C739",
"{  c #D4C835",
"}  c #C9D036",
"|  c #DCD536",
" . c #E8D729",
".. c #E5DB2A",
"X. c #EADE2C",
"o. c #ECCF36",
"O. c #E5D936",
"+. c #EDE22A",
"@. c #F3E426",
"#. c #FDEC25",
"$. c #F4E42B",
"%. c #F7E929",
"&. c #FCEB2B",
"*. c #FDF12A",
"=. c #EDE534",
"-. c #F8EB31",
";. c #FCF030",
":. c #938046",
">. c #8A9846",
",. c #AA8650",
"<. c #8BA449",
"1. c #97A947",
"2. c #8DB152",
"3. c #9BB353",
"4. c #ABAA45",
"5. c #BAB549",
"6. c #B8B658",
"7. c #9E9C6B",
"8. c #AE8E75",
"9. c #83BB62",
"0. c #B5B378",
"q. c #C7B045",
"w. c #D0856B",
"e. c #C99E66",
"r. c #98C14F",
"t. c #ABC144",
"y. c #ACC958",
"u. c #BCCB63",
"i. c #C6CA48",
"p. c #D8D647",
"a. c #CFCF51",
"s. c #C6C458",
"d. c #CFD557",
"f. c #D6D752",
"g. c #DFE048",
"h. c #DCE456",
"j. c #E2E955",
"k. c #E4EC5A",
"l. c #CFCB6A",
"z. c #C7C77C",
"x. c #117C85",
"c. c #5D7882",
"v. c #697A83",
"b. c #0B8490",
"n. c #1A959C",
"m. c #2B8C89",
"M. c #328F8D",
"N. c #2D958B",
"B. c #259897",
"V. c #349894",
"C. c #2CAA9B",
"Z. c #35A893",
"A. c #35AB97",
"S. c #0B9BA8",
"D. c #169CA4",
"F. c #1A9DA4",
"G. c #169EAB",
"H. c #1BA4A7",
"J. c #1AA7AC",
"K. c #0CA6B4",
"L. c #0CACBB",
"P. c #12A6B2",
"I. c #15ADB4",
"U. c #1BABB1",
"Y. c #10ADB9",
"T. c #0DB0BE",
"R. c #29ADA2",
"E. c #51908D",
"W. c #6E918B",
"Q. c #46AE85",
"!. c #4FA996",
"~. c #4FAFB3",
"^. c #6DADB3",
"/. c #0AAFC0",
"(. c #0DB2C1",
"). c #14B4C3",
"_. c #1CB6C5",
"`. c #1FB8C5",
"'. c #23B9C6",
"]. c #28BAC7",
"[. c #2BBBC8",
"{. c #39BBC7",
"}. c #34BECA",
"|. c #4BBAC6",
" X c #3CC0CD",
".X c #44C3CE",
"XX c #4CC4CF",
"oX c #4AC5D1",
"OX c #52C6D1",
"+X c #57C8D3",
"@X c #5DC9D3",
"#X c #63CBD5",
"$X c #6ECDD6",
"%X c #899A8C",
"&X c #9FB59D",
"*X c #AFAE8F",
"=X c #BBBC9A",
"-X c #9AB4BE",
";X c #B1B4B8",
":X c #C5A685",
">X c #A7CAB4",
",X c #C9C58E",
"<X c #C8C590",
"1X c #E6D48A",
"2X c #C4C4AA",
"3X c #D5D3A9",
"4X c #E3DAA5",
"5X c #B3CCCB",
"6X c #C7CACA",
"7X c #CBCDCC",
"8X c #D8D8CB",
"9X c #DCDAD8",
"0X c #E7DEC8",
"qX c #E1DDD8",
"wX c #E7E6D9",
"eX c #ECECEB",
"rX c #F1F1F1",
"tX c #F2F4F4",
"yX c #F8F8F6",
"uX c #FEFEFE",
/* pixels */
"(.(.(.(.(.(.(.(.(.(.(.(.(.(.(.(.(.(.(.(.(.(.(.(.(.(.(.(.(.(.(.(.(.(.(.(.(.(.(.(.(.(.(.(.(.(.(.(.(.(.T.(.(.(.(.(.(.(.(.(.(.(.(.(.",
"(.(.(.(.(.(.(.(.(.(.(.(.(.(.(.(.(.(.(.(.(.(.(.(.(.(.(.(.(.(.(.(.(.(.(.(.(.(.(.(.(.(.(.(.(.(.(.(.(.(.(.(.(.(.(.(.(.(.(.(.(.(.(.(.",
"(.(.(.(.T.(.(.(.(.(.(.(.(.(.(.(.(.(.(.(.(.(.(.(.(.(.(.(.(.(.(.(.(.(.(.(.(.(.(.(.(.(.(.(.(.(.(.(.(.(.(.(.(.(.(.(.(.(.(.(.(.(.(.(.",
"(.(.(.(.(.(.(.(.(.(.(.(.(.(.(.(.(.(.(.(.(.(.(.(.(.(.(.(.(.(.(.(.(.(.(.(.(.(.(.(.(.(.(.(.(.(.(.(.(.(.(.(.(.T.(.(.(.(.).).(.(.(.(.",
"(.(.(.(.(.(.(.(.(.(.(.(.(.).T.(.(.(.(.(.(.(.(.(.(.(.T.L.K.L.T.(.(.(.(.(.(.(.).T.(.(.(.(.(.(.(.(.(.(.(.(.(.(.(.(.(.). X.X[.).(.(.",
"(.(.(.(.(.(.(.(.(.(.(.(.(.(.(.(.(.(.(.(.(.(.(.(.(.P.E.7 g 3 L.T.(.(.(.(.(.(.(.(.(.(.(.(.(.(.(.(.(.(.(.(.(.(.(.(.(.'.[.'.}.).(.(.",
"(.(.(.(.(.(.(.(.(.T.(.(.(.(.(.(.(.(.(.(.(.(.(.L.S b b W.,.b [.T.T.(.(.(.(.(.(.(.(.(.(.T.(.(.(.(.(.(.(.(.(.(.(.(.(._._.).].).(.(.",
"(.(.(.(.(.(.(.(.(.(.(.(.(.(.(.(.(.(.(.(.(.(.H.8 k Z ~.~.h Z .X@X[.).(.(.(.(.(.(.(.(.(.(.(.(.(.(.(.(.(.(.(.).]. X].)._.].).(.(.(.",
"(.(.(.(.(.(.(.(.(.(.(.(.(.(.(.(.(.(.(.(.(.P.b k V.#X$X:.g U.{.#X.X#X+XOXOXXX}.T.T.(.(.(.(.(.(.(.(.(.(.(./._. X X X_.(.(./.(.(.(.",
"(.(.(.(.(.(.(.(.(.(.(.(.(.(.(.(.(.(.(.(.Y.7 b ~.oX~.b d !.oX).].'.#X.X X].@X#X'.T.(.(.(.(.(.(.(.(.(.(.(./. X).(.(.].(.`. X).(.(.",
"(.(.(.T.(.(.(.(.(.(.(.(.(.(.(.(.(.(.(.(.E.d !.|.W.k d M.|.].).#X+X X@X`.T.@XXX[.(.(.(.(.(.(.(.(.(.(.(.(.(._._.(._.'.(. X X X/.(.",
"(.(.(.(.(.(.(.(.(.(.(.(.(.(.(.(.(.(.(./.6 h W.b u B G.(.oX|.XXOX)..XOX(.`.#X@X).(.(.(.(.(.(.(.(.(.(.(.(.(.(.). X'.(.(.'._._.(.(.",
"(.(.(.(.(.(.(.(.(.(.(.(.(.(.(.(.(.(.(.(.3 j j n M.#X|.oX$X[.'.oX@X@X.X X$X+X'.(.(.(.T.(.(.(.(.(.(.(.(.(.(.(.(.(.(.(.(.(.(.(.(.(.",
"(.(.(.(.(.(.(.(.(.(.(.(.(.(.(.(.(.(.(.(.V.j Z |.}.|.}.oXOX.XoXoXoX X X X[.).(.(.(.(.(.(.(.(.(.(.(.(.(.(.(.(.(.(.(.(.(.(./.(.(.(.",
"(.(.(.(.(.(.(.(.(.(.(.(.(.(.(.(.(.(.).Y.6 7 /.).[.|.oX+X{.`.(./.(./.(./.(.(.(.(.(.(.(.(.(.(.(.(.(.(.(.(.(.(.(.(.(.(.(.(.(.(.(.(.",
"(.(.(.(.(.(.(.(.(.(.(.T.(.(.(.(.(.(.(.0 d n.(.(.(.(.(.(.(.(.(.(.(.(.(.(.(.(.(.(.(.(.(.(.(.(.(.(.(.(.(.(.(.(.(.(.(.(.(.(.(.(.(.(.",
"(.(.(.(.(.(.(.(.(.(.(.(.(.(.(.(.(.).H.d 3 T.T.T.(.(.(.(.(.(.(.(.(.(.(.(.(.(.(.(.(.(.(.(.(.(.(.T.(.(.(.(.(.(.(.(.(.(.(.(.(.(.(.(.",
"(.(.(.(.(.(.(.(.(.(.(.(.(.(.(././.K.0 d n.T.(.(.(.(.(.(.(.(.(.(.(.(.(.(.(.(.(.(.(.(.(.(.(.(.(.(.(.(.(.(.(.(.(.(.(.T.(.(.(.(.(.(.",
"(.T.(.(.(.(.(.(.(.(.(.(.(.(.(.(.B.<.I Z (.(.(.(.(.(.(.(.(.(.(.(.(.(.(.(.(.(.(.(.(.(.(.(.(.(.(.(.(.(.(.(.(.(.(.(.(.(.(.(.(.(.(.(.",
"(.).(.(.(.(.(.(.(.(.(.(.(.(.(.L.V &.*.1.H.(.(.(.(.(.(.(.(.(.(.(.(.(.(.(.(.(.(.(.(.(.(.(.(.(.(.(.(.(.(.(.(.(.(.(.(.(.(.(.(.(.(.(.",
"(.(.(.(.(.(.(.(.(.(.(.(.(.(./.P.1.' } Q <.B.T./.(.(.(.(.(.(.(.(.(.(.(.(.(.(.(.(.(.(.(.(.(.(.(.(.(.(.(.(.(.(.(.(.(.(.(.T.(.(.(.(.",
"(.(.(.(.(.(.(.(.(.(.(.(.(./.(.L.B h N.H.A >.D L.(.(.(.(.(.(.(.(.(.(.T.).(.T.(.(.(.(.(.(.(.(.(.(.(.(.(.(.(.(.(.(.(.(.(.(.(.(.(.(.",
"(.(.(.(.(.(.(.(.(.(.(.(.(.(./.D.p 3 /.(.T.N.<.N H.(.(.(.(.(.(.(.(.(.(.(.(.(.(.(.(.(.(.(.(.(.(.(.(.(.(.(.(.(.(.(.(.(.(.(.(.(.(.(.",
"(.(.(.(.(.(.(.T.(.(.(.(.(.(.C.B d B./.(.T.T.H.N 1.V./.(.(.(.(.(.(.(.(.(.(.(.(.(.(.(.(.(.(.(.(.(.(.(.(.(.(.(.(.(.(.(.(.(.(.(.(.(.",
"(.(.(.(.(.(.(.(.(.(.(.(.(.P.2.5.>.U.(.(.(.(.(.K.A 1.D K.(.(.(.(.(.(.(.(.(.(.(.(.(.(.(.(.(.(.(.(.(.(.(.(.(.(.(.(.(.(.(.(.(.(.(.(.",
"(.(.(.(.(.(.(.(.(.(.(.(./.Z.^ W 4.V./.(.(.(.(.(.L.M U N F.I.I.(.(.(.(.(.(.(.(.(.(.(.(.(.(.(.(.(.(.(.(.(.T.(.(.(.(.(.(.(.(.(.(.(.",
"(.(.(.(.(.(.(.(.(.(.(.(./.B.I I A L.(.(.(.(.T.).(.L.A E 1.9.y.9.Q.U.(.T.(.(.(.(.(.(.T.(.(.(.(.(.(.(.(.(.(.(.(.(.(.(.(.(.(.(.(.(.",
"(.(.(.(.(.(.(.(.(.(.(.(.(.n.= = J.(.(.(.(.(.(.T.R.C +.` U E 6.6.i.9.T.T.(.(.(.(.(.(.(.(.(.(.(.(.(.(.(.(.(.(.(.(.(.(.(.(.(.(.(.(.",
"(.(.(.(.(.(.(.(.T.(.(.(.(.S y >.J.(.(.(.(.(.(.A.} @.@.$.p.4.U 7.*X3.U.T.(.(.(.(.(.(.).(.(.(.(.(.(.(.(.(.(.(.(.(.(.(.(.(.(.(.(.(.",
"(.(.T.(.(.(.(.(.(.(.(.(.J.k 7 3.Q.(./.).(./.C.( #.#.) ) &.i.8 *XeX7.F T.(.(.(.(.(.(.(.(.(.(.(.(.(.(.(.(.(.(.(.(.(.(.(.(.(.(.(.(.",
"(.(.(.(.(.(.(.(.(.(.(.(.S s m.G V L./.(.Y.J _ &.$.@.X.' &.X.6.2XtX8X3.C.(.(.(.(.(.(.(.(.(.(.(.(.(.(.(.(.(.(.(.(.(.(.(.(.(.(.T.(.",
"(.(.(.(.(.(.(.(.(.(.(.(.m.3 P.C.1.n.(.Y.J +.&._ ^ 5.O.@.&.&.O.l.u.=Xu.J T.(.(.(.(.(.(.(.(.T.(.(.(.(.(.(.(.(.(.(.(.(.(.(.(.(.(.(.",
"(.(.(.(.(.(.T.(.(.(.(.(.T.T.T.K.1.D A.2.+.#.-.6.2XqX0X,Xo.&.$.p.k.f.j.f.F (.(.(.(.(.(.(.(.(.(.(.(.(.(.(.(.(.(.(.(.(.(.(.(.(.(.(.",
"(.(.(.(.(.(.(.(.(.(.(.(./.(./.T.H T } #.&.&.q.2XrXuXuXyX3XX.%.O.h.h.( g.y.J.(.(.(.(.(.(.(.(.(.(.(.(.(.(.(.(.(.(.(.(.(.(.(.(.(.(.",
"(.(.(.(.(.(.(.(.(.(.(.(.(.(.T.T.A _ %.-.+._ s.q q tXuXuX0X/  .=.f.d.L E h.K I.(.(.(.(.(.(.(.(.(.(.(.(.(.(.(.(.(.(.(.(.(.(.(.(.(.",
"(.(.(.(.(.(.(.(.(.(.(.(.(.(.T.R.} #.&.[ q.0.*Xv.E.tXuXuX1X^ { ;.-.p.a.i.h.g.Q./.(.(.(.(.(.(.(.(.(.(.(.(.(.(.(.(.(.(.(.(.(.(.(.(.",
"(.(.(.(.(.(.(.(.(.(.(.(.(.T.Z.( @.#...6.%X7XqX9XyXuXuXuX4XQ I ;.-.=.h.k.Q Q y.A.).(.(.(.(./.(.(.(.(.(.(.(.(.(.(.(.(.(.(.(.).(.(.",
"(.(.(.(.(.(.(.(.(.(.(.(.(.U.( #.P ) { *X: c.rX9XtXuXyXeXl.Y & [ ` ) | h.a.i.k.t.B._.(.(.b.x.x.x.Y.(.(.(.(.(.(.(.(.(.(.(.(.(.(.(.",
"(.(.(.(.(.(.(.(.(.(.(.(.T.T.C +.P P O.8X;X5XuXtX7X<X,Xf.=.p + d } E ` =.h.k.j.u.v.x./.S.X .   . S.(.(.(.(.(.(.(.(.(.(.(.(.(.(.(.",
"(.(.(.(.(.(.(.(.(.(.(.(.T.T.I.K ..X.=.3XuXuXuXuX8X] #.#.~ @ + @ R _ +.+.h.k.u.5X4 $ x./.; 1 - , /.(.(.(.(.(.(.(.(.(.(.(.(./.(.(.",
"(.(.(.(._.).(. X'.(.(.(.(.(.(.L.r.@._ a.wXuXuX8Xs.} =.| *X2 + & Y ;.` ` X.s.>X-X# # < L.L.V.Z /.(.(.(.(.(.(.(.(.(.(.(.(.(.(.(.(.",
"(.(.(.). X).(._.'.(.(.(.(.(.(.(.A.( ..@.p.=X,Xp.| | { v ;X* & m e.@.%. .h.wX7Xq # % = 0 B.A 2.L.(./.).(.(.(.(.(.(.(.(.(.(.(.(.(.",
"(.(.(.(. X).).).).(.(.(.(.(.(.(.T.R.r.%.$.W ..{ [ q.2X2 @ @ c w.q.*.@.p.wXyX:Xj e e z j N D H.(.(.(.(.(.(.(.(.(.(.(.(.(.(.(.(.(.",
"(.(.T.(.(.T. X_._.).(.(.(.(.(.(.T./.R.( ..^ ^ [ W 5.z.:.+ a m 5.X.=.s.8XrX*X% u t y l = K./.(.(.(.(.(.(.(.(.(.(.(.(.(.(.(.(.(.(.",
"(.(.(.(./.(. X)._.).(.(.(.(.(.(.(.(.(.I.J X.%...O.&.-.=.f & q./ o.s.6XqXe.e e f M M M D.(.(.(.(.(.(.(.(.(.(.(.(.(.(.(.(.(.(.(.(.",
"(.(.(.(.(.(.)._.).(.(.(.(.(.(.(.(.(.(.(.Y.K ' ! ' &.%.;.^ ~ /  .W 8.qX8.r l g n././.(.(.(.(.(.(.(.(.(.(.(.(.(.(.(.(.(.(.(.(.(.(.",
"(.(.(.(.(.(.(.(.(.(.(.(.(.(.(.(.(.(.(.(.(.L.Q.( @...R =.=.o.o.z.7Xm x % t g D.(./.(.(.(.(.(.(.(.(.(.(.(.(.(.(.(.(.(.)./.(.(.(.).",
"(.(.(.(.(.(.(.(.(.(.(.(.(.(.(.(.(.(.(.(.(.(.(.Q.` @.!  .$.o.z.7XqXn w s 6 F././.(.(.(.(.(.(.(.(.(.(.(.(.(.(.(.(.(.(./.(.(.(.(.Y.",
"(.(.(.(.(.(.(.(.(.(.(.(.(.(.(.(.(.(.(.(.(.(.(.L.A.9.' #.f.0XyXqX,.$ y 5 G.(.(.(.(.(.(.(.(.(.(.(.(.(.(.(.(.(.(.)./.(.(.(.(.(.(.(.",
"(.(.(.(.(.(.T.(.(.(.(.(.(.(.(.(.(.(.(.(.(.(.(.(.(.T.J 2.&XuXqXv y i f F.(.(.(.(.(.(.(.(.(.(.(.(.(.(.(.(.(.(.(.(.(.(.(.(.(.(.(.T.",
"(.(.(.(.(.(.(.(.(.(.(.(.(.(.(.(.(.(.(.(.(.(.(.(.(.(.T.L.G.W.v $ t u u B.(.(.(.(.(.(.).T.(.(.(.(.(.(.(.(.(.(.(.(.(.(.(.(.(.(.(.(.",
"(.(.(.(.(.(.(.(.(.(.(.(.(.(.(.(.(.(.(.].].).(.(.(.(././.(.P.< p t Y k F.(.(.(.(.(.(.(.(.(.(.(.(.(.(.(.(.(.(.(.(.(.(.(.(.(.(.(.(.",
"(.(.(.(.(.(.(.(.(.(.(.(.(.(.(.(.(.(.).}._._.)._.(.(.(.(.(.(./.m.>.h 4 Y.(.(.(.(.(.(.(.(.(.(.(.(.(.(.(.(.(.(.(.(.(.(.(.(.(.(.(.(.",
"(.(.(.(.(.(.(.(.(.(.(.(.(.(.(.(.(.(./.).'.).'.}.(.(.(.(.(.(./.G 2.n.G.(.(.(.(.(.(.(.(.(.(.(.(.(.(.(.(.(.(.(.(.(.(.(.(.(.(.(.(.(.",
"(.(.(.(.(.(.(.(.(.(.(.(.(.(.(.(.(.(././.'.'.).).(.(.(.(.(.(.T.W.E.(.(.(.(.(.(.(.(.(.(.(.(.(.(.(.(.(.(.(.(.(.(.(.(.(.(.(.(.(.(.(.",
"(.(.(.(.(.(.(.(.(.(.(.T.(.(.(.(.(.).(._.{.(.'.(.(.(.(.(.(.T.S.!.^.(.(.(.(.(.(.(.T.(.(.(.(.(.(.(.(.(.(.(.(.(.(.(.T.).(.(.(.(.(.(.",
"T.(.(.(.(.(.(.(.(.(.(.(.(.(.(.(.(.(.(.).[._._.(.(.(.(.(./.> o O : , /././.(.(.(.(.(.(.(.(.(.(.(.(.(.(.(.(.(.(.(.)._.[.).(.(.(.(.",
"(.(.(.(.(.(.(.(.(.(.(.(.(.(.(.(.(.(.(.(.).).(.(.(.(.(.(.L.: q 9 O . x.(.(.(.(.(.(.(.(.(.(.(.(.(.(.(.(.(.(.(.(.(.).).}.).(.(.(.(.",
"(.(.(.(.(.(.(.(.(.(.(.(.(.(.(.(.(.(.(.(./.(.(.(.(.(.)././.n.c.E.0 9 n.(.(.(.(.(.(.(.(.(.(.T.(.(.(.(.(.(.(.(.(.(.)._.].).).(.(.(.",
"(.(.(.(.(.(.(.(.(.(.(.(.(.(.(.(.(.(.(.(.(.(.(.(.(.(././.)./.L./.P.J././.(.(.(.(.(.(.(.(.(.(.(.(.(.(.(.(.(.(.T.(.).'.)._.[.(.(.(.",
"(.(.(.(.(.(.(.(.(.(.(.(.(.(.(.(.(.(.(.(.).(.(.(.(.(.(.(.(.(.(.(.(.(.(.(.(.(.(.(.(.(.(.(.(.(.(.(.(.(.(.(.(.(.(.(.'.[.).'.].).(.(.",
"(.(.(.(.(.(.(.(.(.(.T.(.(.T.(.(.(.(.(.(./.(.(.(.(.(.(.(.(.(.(.(.(.(.(.(.(.(.(.(.(.(.(.(.(.(.(.T.(.(.(.(.(.(.(.(.).(.(.(.(.(.(.(.",
"(.(.(.(.(.(.(.(.(.(.(.(.).(.(.(.(.(.(.(.(.(.(.(.(.(.(.(.(.(.(.(.(.(.(.(.(.(.(.(.(.(.(.(.(.(.(.(.(.(.(.(.(.(.(.(.(.(.(.(.(.(.(.(.",
"(.(.(.(.(.(.(.(.(.(.(.(.(.(.(.(.(.(.(.(.(.(.(.(.(.(.(.(.(.(.(.(.(.(.(.(.(.(.(.(.(.(.(.(.(.(.(.(.(.(.(.(.(.(.(.(.(.(.(.(.(.(.(.(."
};
