/* XPM */
static char *result[] = {
/* columns rows colors chars-per-pixel */
"64 64 248 2 ",
"   c #160607",
".  c #1B0506",
"X  c #1C0609",
"o  c #1D0A0B",
"O  c #1F1211",
"+  c #250607",
"@  c #21070A",
"#  c #240A0D",
"$  c #2B0C0D",
"%  c #310D0E",
"&  c #2C110E",
"*  c #31110E",
"=  c #34180F",
"-  c #250D11",
";  c #2B0D11",
":  c #320E12",
">  c #241414",
",  c #2B1415",
"<  c #281818",
"1  c #2B1B1B",
"2  c #351313",
"3  c #3C1514",
"4  c #3D1916",
"5  c #36171A",
"6  c #3C1A1A",
"7  c #2B211E",
"8  c #392D1D",
"9  c #351E23",
"0  c #3D0E35",
"q  c #1B3D3E",
"w  c #2D2423",
"e  c #362625",
"r  c #3C3924",
"t  c #2F3537",
"y  c #43120E",
"u  c #421515",
"i  c #411916",
"p  c #431719",
"a  c #491618",
"s  c #441B1B",
"d  c #491D1D",
"f  c #56191B",
"g  c #70121D",
"h  c #46221C",
"j  c #56251E",
"k  c #65201E",
"l  c #491C22",
"z  c #561D26",
"x  c #531735",
"c  c #6A1D23",
"v  c #4C2222",
"b  c #4B2929",
"n  c #522424",
"m  c #56282A",
"M  c #4D322A",
"N  c #5A342B",
"B  c #483636",
"V  c #593739",
"C  c #662729",
"Z  c #732D31",
"A  c #3F4A23",
"S  c #4D4A36",
"D  c #6D6B31",
"F  c #2B3F45",
"G  c #4D3547",
"H  c #643E41",
"J  c #611567",
"K  c #1A494B",
"L  c #264449",
"P  c #325055",
"I  c #1C5C6B",
"U  c #1A6971",
"Y  c #306972",
"T  c #594849",
"R  c #515150",
"E  c #684748",
"W  c #73554E",
"Q  c #675B55",
"!  c #755956",
"~  c #506354",
"^  c #6D6850",
"/  c #76635C",
"(  c #4F7070",
")  c #6A6F6A",
"_  c #786A65",
"`  c #7B7369",
"'  c #767A73",
"]  c #893639",
"[  c #94343D",
"{  c #8E5A31",
"}  c #9C6A3A",
"|  c #AC733E",
" . c #903D42",
".. c #AB3D42",
"X. c #9A4549",
"o. c #8F4A50",
"O. c #A7444B",
"+. c #A95459",
"@. c #B7525A",
"#. c #9B655E",
"$. c #917452",
"%. c #B35968",
"&. c #8B7870",
"*. c #B36C6D",
"=. c #CA575E",
"-. c #C75C65",
";. c #CD6872",
":. c #DA6D75",
">. c #D7737B",
",. c #E56C77",
"<. c #E6747C",
"1. c #658432",
"2. c #7B9750",
"3. c #70897E",
"4. c #78887B",
"5. c #919E5D",
"6. c #AD8E4D",
"7. c #B9854A",
"8. c #8FB451",
"9. c #B1A153",
"0. c #8A8B6E",
"q. c #878579",
"w. c #96977B",
"e. c #A79172",
"r. c #B5AA6A",
"t. c #C08D49",
"y. c #D1846D",
"u. c #D8827A",
"i. c #E1837B",
"p. c #C1AB63",
"a. c #A7DA65",
"s. c #ABD172",
"d. c #187B87",
"f. c #257B85",
"g. c #497887",
"h. c #9B2E9C",
"j. c #9A2DAD",
"k. c #995193",
"l. c #A75688",
"z. c #A651AD",
"x. c #AE67B4",
"c. c #DB7685",
"v. c #EB7984",
"b. c #EE7E8C",
"n. c #F17C87",
"m. c #F17E8D",
"M. c #F37F90",
"N. c #AA17D0",
"B. c #A623C6",
"V. c #148895",
"C. c #14909D",
"Z. c #2D8891",
"A. c #0E9DAA",
"S. c #1699A7",
"D. c #2D99A4",
"F. c #0EA6B5",
"G. c #0DADBC",
"H. c #12ABB9",
"J. c #16ABB8",
"K. c #17B1BF",
"L. c #33A6AD",
"P. c #28AEB9",
"I. c #36B3BB",
"U. c #5A9993",
"Y. c #788D83",
"T. c #6B938B",
"R. c #7C9389",
"E. c #7DA79C",
"W. c #4699A3",
"Q. c #47A8AC",
"!. c #59AAA8",
"~. c #4BADB2",
"^. c #4FB3B7",
"/. c #6FB0AC",
"(. c #69B8B7",
"). c #0DB2C1",
"_. c #13B4C2",
"`. c #1BB6C4",
"'. c #1FB8C6",
"]. c #23B9C7",
"[. c #25B8C5",
"{. c #2ABBC8",
"}. c #32BECA",
"|. c #5DBDC1",
" X c #3CC1CD",
".X c #46C4CF",
"XX c #4AC6D1",
"oX c #7FC1C4",
"OX c #8E8A86",
"+X c #869686",
"@X c #9A9A88",
"#X c #A99891",
"$X c #90A794",
"%X c #96A696",
"&X c #A4A38D",
"*X c #A8A58A",
"=X c #A5A492",
"-X c #AFAF90",
";X c #AAAA94",
":X c #A8A897",
">X c #ADAD9B",
",X c #B2AE9C",
"<X c #B8AD98",
"1X c #B7B39D",
"2X c #8AB6AE",
"3X c #94B8AF",
"4X c #B5B2A2",
"5X c #BAB5A4",
"6X c #BCBAA5",
"7X c #B7B5AA",
"8X c #BDBBAB",
"9X c #BCB8B0",
"0X c #D18692",
"qX c #EC808D",
"wX c #F1818E",
"eX c #F58290",
"rX c #CEA8AC",
"tX c #C3BBA9",
"yX c #C3BEB1",
"uX c #8BC1BA",
"iX c #ACC3B7",
"pX c #B9C4B9",
"aX c #C4C1AD",
"sX c #C6C3B4",
"dX c #CAC5B5",
"fX c #CBC5BA",
"gX c #C8C9B8",
"hX c #CDCABC",
"jX c #D6CBBD",
"kX c #D2CCBD",
"lX c #D3D1BD",
"zX c #81BDC0",
"xX c #D3BEC1",
"cX c #88C7CB",
"vX c #D3CDC2",
"bX c #D1CFCB",
"nX c #D8CFC8",
"mX c #D6D2C3",
"MX c #DAD4C5",
"NX c #DAD3C9",
"BX c #DAD5C8",
"VX c #DDD9CB",
"CX c #E1DBC7",
"ZX c #E1DCCC",
"AX c #E3DED1",
"SX c #E9E3D6",
"DX c #EBE5D6",
"FX c #E7E3E6",
/* pixels */
").).).).).).).).).).).).).).).).).).).).).).).).).).).).).).).).).G.).).).).).).).).).).).).).).).).).).).).).).).).).).).).).).",
").).).).).).)._.{.'.).).).).).).).).).).).).).).).).).).).).).).).).).)._.).).).).).).)._.).G.).).).).).).).).).).).).).).).).).",
").).).).).)._. XXXXX{.).).).).).).).).).).).).).G.).).).).).).).).).).).).).).).).).).).).).).).).).).).).).).).).).).).).).).).",
").).).).).).`.]._.]. X).).).).).).).).).).).).).).).).).).).).).).).).).).).).).).).).).).).).).).).).).).).).G.).).).)._.).).).",
").).'.{.].)._.{._.`.{.).).).).).).).).).).).).).).).).).).).).).).).).G.).).).).).).).).).G.).).).).).).).).).).).).).).).G.).).",
").[.XXXX.X X).'.{.[._.).).).).).).).).).G.).).).).).).).).).).).).).).).).).).).).).).).).).).).).).).).).).).).).).).).).).).).",
"_.{.`._._.{._.).).).).).).).).).).).).).).).).).).).)._.).).).).).).).).).).).).).).).).).).).).).).).).).).).).).).).).).).).).",
"_.{.).).).].`.)._.).).).).).).).).).).).).).).).).).).).).).).).).).).).).).).).).).).).).).).).).).).).).)._.).).).).).).).).).",
").].]._.[.[.).`.XXXX_.).).).).).).).).).).).G.).G.G.G.H.G.G.G.).).G.G.).).).).).).).).).).).).).).).).).).).).).).).).).).).)._.",
").).`.].[._.).[.]. X'.).).).).).)._.).).S.f.Y Y P L q q q K K I V.S.G.).).).).).).).).).).)._.).).).).).).).).).).).).).).).).G.",
").).).).).).)._.{.].).).).).).).).V.Y P G C C z h 4 = a s 6 u u 5 w K d.H.).).).).).).).).).).).).).).).).).).).).).).).).).).).",
").).).).).).).).).).).).).).F.d.P B m C m d 5 3 6 s 3 s v h s a a u i 6 L V.).).).).).).).).).).).).).).).).).).).).).).).).).).",
").).).).).).).).).).)._.H.d.P m m z m l 2 2 3 s s 4 4 h j j a p 4 s p p u 7 U G.).).).).).).).).).).).).).)._.).).).).).).).).).",
").).).).).).).).).).).C.P m m x z 3 2 : * 3 u i 4 4 i v +.%.k 3 i i u u 3 a p U G.).).).).).).).).).).).).).G.).).).).).).).).).",
").).).).).).)._.).G.f.T V x z z 2 # % 3 3 u i 4 i i 4  .v.v.[ y d h s p s h a 6 U ).).).).).).).).).).).).).).).).).).).).).).).",
").).).).).).)._.J.f.R E E z 5 ; $ + % 3 : 3 3 h s s i %.m.m.O.a n v h n v s s u e V.).).).).).).).).).).).).).).).).).).).).).).",
").).).).).).).F.Y T E E V p ; ; ; $ 2 3 2 2 * 6 s s z >.c.m.@.z m m v l d p u 4 u q F.).).).).).).G.).).).).).).).).).).).).).).",
").).).).).).).Y T E V E b ; : ; # # = 3 4 3 3 h p 5 ] >.o.>. .l m N n l d s u u u 5 U ).).).).).)._.).).G._.).).).).).).).).).).",
").).).)._.).Z.Q ! E E V , < : : # $ 2 2 3 2 3 h a u @.n.0Xc.o.l v N m s p s p p u 3 t S.).).).).).).).).).).).).).).).).).).).).",
").).).).).S.( / E ! T 1 , , , ; # $ 2 2 2 2 2 5 3 z -.rXFXvX9XB v m N m s u u 3 3 3 p U ).).).).).).).).).).).).).).).).).).).).",
").).).).).g._ ! ! ! e , , 2 ; $ $ $ 2 2 2 2 2 2 3 Z c.xXFXbXbXV d n N m s s p s p 4 3 F G.).).).).).).).).).).).).).).).).).).).",
").).).).C./ _ E E B 9 , , ; ; $ # ; : 2 5 2 2 3 3  .+.#X#X#X#Xn u v m m s p p s z v u e S.).).).).).).).).).).).).).).).).).).).",
").).).).Y / ! E H 9 1 < ; ; % $ a n C f a u 3 3 u -. .g H %.;.Z 3 j m m s 3 s p b m l p U ).).).).).).).).).).).).).).)._.).).).",
").).).S.) _ ' / M 1 e < , $ ; 3 %.<.<.:.-.@.[ k g ,.c.[ ] c c. .y n N N h 3 p p v m m s I ).).).).).).).).).).).).).).).G.).).).",
").).).f.` ` Y.' e 9 7 < , - # ; Z ;.n.eXwXwXn.,.;.n.wXv.-.+.c.=.Z [ O.O.X.] Z f a n n s t F.).).).).).).).).).).).).).).).).).).",
").).J.g._ 4.R.~ 1 1 1 7 , @ X ; * f O.:.wXwXm.m.n.wXb.b.M.M.b.c.,.<.n.n.n.m.<.;.C d b v e V.).).).).).).).).).).).).).).).).).).",
").).D.' q.4.R.T < 9 < 1 , # # - ; 2 * j X.:.qXwXqXb.b.qXqXm.qXv.,.<.M.M.n.>.-.] f s n l 4 I ).).).).).).).).).).).).).).).).).).",
").).D.Y.4.R.R.t < 5 , 1 < @ - , ; * : : * a X.,.M.b.M.b.b.qXb.b.,.,.,.@.] C a i s s v v 6 t F.).).).).).).).).).).).).).).).).).",
").).W.R.+XR.T.e 1 < < , < - - ; ; $ : : * % ] <.b.b.b.b.b.b.b.b.n...f y y d d s p s v l u w A.).).).).).).).).).).).).).).)._.G.",
").).W.R.+XR.T.w w < ; 5 < - ; - $ $ ; % + 3 ;.eXb.b.b.b.m.b.b.b.m.O.y u 4 h v s s s v s u < V.).).).).).).).).)._.`.).).).).).).",
").[.W.OX+XR.3.7 7 < - , 1 , - ; ; $ : $ % 4 :.wXm.M.b.b.wXb.b.b.m.=.y 3 3 4 p p p v s p 4 5 d.).).).).).).).)._. X X XG.).).).).",
").[.W.g.q.R.3.< < < - - ; ; ; ; - $ % $ + M 6.y.i.b.m.M.b.;.c.M.M.=.f 3 3 3 3 v v s p 4 4 5 V._.).).).).).).).]. X).`.`.).`. X`.",
").).D.' q.Y.3.7 > < - # # - - ; # $ ; $ , S a.a.9.6.>.u.u.y.>.0Xi.+.u 3 3 u 4 l s 3 u 4 u 5 d.).).).).).).).)._.}.'.]._._..X}.].",
").).S.' ` 4.3.t < < > # - , - ; # # $ ; # G l.6Xs.j.j.k.k.k.*.%.*.W 2 2 3 3 p 2 3 3 3 p 4 9 C.).).).).).).).).)._.'._._.).].].'.",
").).S.) ` ' Y.t 1 < , # > , # ; # # # ; ; J x.s.5.j.x.z.N.N.z.z.k.S 2 2 2 3 4 4 3 4 4 3 4 t A.).).).).).).).).).)._.].].'.)._.).",
").).J.( ` _ ' T 1 1 > - < > # - ; # # - 0 j.x.#Xa.s.a.l.N.B.>X-X_ 0 3 3 3 3 3 4 4 4 i 4 3 L ).).).).).).).).).).).{.}.'.'.'.).).",
").).).g.` _ _ V 7 1 < - > 1 - - ; # @ # x h.N.z.-Xa.8.2.` 0.s.@Xj.J 2 3 2 3 3 3 4 i i u 5 I ).).).).).).).).).)._.}.}.)._.]._.).",
").)._.f.) ` ! V 1 7 < X > < > # @ # # @ m ;.l.#.8.A A A A 8.a.o.h.x 3 3 3 3 3 3 4 4 4 2 9 C.).).).).).).).).).)._.}.{._.'._.).).",
").)._.S.) _ _ E e < < > > > > - # - @ @ j >.:.C & .     X r ^ >.>.Z 3 * 3 3 3 4 3 u 4 3 L H.).).).).).).).).).).)._.'.].'.).).).",
").).)._.( ! ` Q V < 1 < < > 1 < - # @ @ = o.Z + . . & & $ # a %.<.c 2 $ 2 2 3 3 3 3 i 4 V.).).).).).).).).).).).).).)._.).).).).",
").).).).J.) ! ! H w 7 1 < > < 1 - @ @ @ @ @ @ . . o $ * $ $ $ a Z y = % * 2 3 2 3 4 4 L H.).).).).).).).).).).).).).).).).).).).",
").).).).).g./ ! E B 7 7 > - O < - # @ X X X o X . . + * ; # $ % * & $ * 2 5 2 3 2 3 5 V.).).).).).).).).).).).).).).).).).).).).",
").).).).).F.( ! ! E 1 w O < 7 O - o X X X X @ o . . $ $ $ $ $ ; 2 : * = 2 2 2 2 2 = K K.).).).).).).).).).).).).).).).).).).).).",
").).).).).).S.R E E B 1 < 1 w < > o X X   . X # @ X # $ $ # $ - , 2 2 2 3 3 2 : $ w S.).).).).).).).).).).).).).).).).).).).).).",
").).).).).).).D.R H Q G > O < 1 > O o o . X X X o # & $ & + * # ; 2 3 2 2 2 2 : 1 f.).).).).).).).).).).).).).).).).).).).).).).",
").).).).).).).).S.~ H T e o O < < O - # @ # # @ # - & $ # # * + ; : : : : 2 2 5 Y K.).).).).).).).).).).).).).).).).).).).).).).",
").).).).).).).).).F.Y T b , o O < O > ; - $ @ X o + & $ # & $ + - ; ; : 2 : 2 I J.).).).).).).).).).).).).).).).).).).).).).).).",
").).).).).).).).).).).d.G m 5 o O O o # # # X X o # # + # $ $ o @ ; $ % : 5 ~ ).K.G.).).).).).).).).).).).).).).).).).).).).).).",
").).).).).).).).).).).).F.Y B 5 - o     X @ o o , M M A = & + o # # $ + 5 Q R.P.K.K.)._.).G.).).).).).).).).).).).G.).).).).).).",
").).).).).).).).).).).).G.).Z.T e o   o o o o o M 6.t.6.j $ & + # # # B Q q.4.Y.T.L.K.K.K.[._.).).).).).).).).).).).).).).).).).",
").).).).).).G.G.).K.G.G._.).D.) T r w O       . A 6.6.6.h # # o , e Q q.OXOXOXq.0.q.4.%XiXpXiX(.[.).`.`.K.).).G.).).).).).).).).",
").).).).).).G.J.K.K.!.T.U.Z.( ) 4.q.&._ T t < 8 { 9.9.9.D h 7 B Q &.` ` 0.q.@X=X1XiX1XaXlXpXtXaX9XE.$X:X3XuX(.I.).).).).).).).).",
").).G.).G.D.U.$X%X+X>X8XpX1XaXhXyX7X:X#X@X+X$.0.9.p.p.p.p.e.@X#X@X;X*X&X&X&X=X;X;X-X&X;X>X>XpXdX8X;X5XaXjXCXCXsX(.K.K.G.).).).).",
").).I./.$X;XhXCXBXlXkXsXaXdXlXaX>X;X>X:X>X>X:X&X-X-X<X1X1X8XyXyXaXgXdXaXyXsXsXdXgXgXgXaX6X,X-X=X&X&X@X&X;XtXdXlXpX2X(.~.K.G.).).",
").~.+X@X1XlXCXZXhXyX5X1X>X,X1X<X6XtXsXsXgXhXvXvXlXMXMXdXtXnXjX<Xr.<XtXfXjXjXvXvXnXMXlXjXhXhXvXlXfXsX6X,X*X@Xw.w.-XaXlXMX3XQ.K.).",
"|.:X=X,XpXCXVX6X1X,X>X>X6XdXkXkXvXvXvXhXvXmXvXvXlXlXtX$.$.$.$.6.*.7.| 6.e.sXvXlXjXmXkXkXvXvXbXBXnXNXVXnXkXyX1X-X*X-XaXlXlXgXuXI.",
"2XjXkXtX=X-X-X@X;XyXsXgXvXkXnXNXnXnXnXvXjXvXvXvXjXtX$.| t.| { { } | 6.| e.dXmXlXlXyX' %X:X>XpXMXvXvXnXvXvXvXmXvXgX6X&X;XaXaXtXpX",
"$X5X5X5XlXMXaX*X&X4X,X>XyXfXfXhXNXMXNXNXvXvXyX@Xe.6.t.t.7.| 7.7.{ ^ q.,XMXjXhXkXkXY.P 1.1.1.*XvXjXkXkXlXvXfXfXvXlXhX;X;XgXlXlXCX",
"P.%X:X5XdXhXkXpXdXmXgX;X>XsXfX4X7XvXvXnXvXbXxX4Xe.$.$.} | | | W ^ 5XjXnXvXvXhXmXpX3.P D D 2.:XgXlXdXsX6X4X9XtX>X>X6X8XVXZXVXkXtX",
").[.(.3X>X>X>X5XyXyX8XlXVXAXSXVX5X=X9X9X9XpXbXbXbXsX1X*Xe.*.$.#XdXmXkXkXjXvXgX6X4X>X:X@Xw.:XfXNXCXVXhX4XhXSXZXhX6XMXmXVXvX8X8X3X",
").).).[.I.Q.!.T.$X:X>X4X5X8X8XpXE.Z.P.[.[.L.~.^.(.zXcXcXoX2XuXpXvXgXpXgXdXsX=X:XmXZXhX>X5XBXVXNXVXCXBXBXlXdXyX6X>X>X5X5X>X/.|.[.",
").).).).).).G.G.`.^.!.^.!.~.Q.P.J.).).).).).).G.).).).).).).'.[.[.I.I.I.~.+X7XSXDXDXSXZXAXSXVXAXBXyX4X4X;X@X@X+X4.U.U.!.~.).).).",
").).).).).).).).).).).).).).).).).).).).).).).).).).).).).).).).G.).).).G.Q.vXmXBXBXMXlXpX2X/.(.(.~.~.~.L.L.D.P.P.[.]._._.).).).",
").).).).).).).).).).).).).).).).).).).).).).).).).).).).).).).).).).).).).[.|.!.!.$X$XU.D.H.G.).).).).).).).).).G._.'.'.).).).)."
};
