/* XPM */
static char *result[] = {
/* columns rows colors chars-per-pixel */
"64 64 76 1 ",
"  c #0DB2C1",
". c #0FB3C2",
"X c #0FB3C1",
"o c #1CB7C5",
"O c #3AC0CC",
"+ c #2DBCC9",
"@ c #15B4C3",
"# c #3EC1CD",
"$ c #33BECB",
"% c #18B6C4",
"& c #23B9C7",
"* c #0CB2C1",
"= c #0EB2C1",
"- c #0FB2C1",
"; c #32BECA",
": c #1BB7C5",
"> c #1AB6C4",
", c #21B8C6",
"< c #23B9C6",
"1 c #14B4C3",
"2 c #34BECB",
"3 c #2FBDC9",
"4 c #15B5C3",
"5 c #10B3C2",
"6 c #45C4CF",
"7 c #33BECA",
"8 c #1EB7C5",
"9 c #30BDCA",
"0 c #40C2CE",
"q c #17B5C3",
"w c #26BAC7",
"e c #11B3C2",
"r c #18B5C4",
"t c #13B4C2",
"y c #2BBBC9",
"u c #29BBC8",
"i c #27BAC8",
"p c #16B5C3",
"a c #1FB8C6",
"s c #36BFCB",
"d c #25BAC7",
"f c #19B6C4",
"g c #12B4C2",
"h c #28BBC8",
"j c #2ABBC8",
"k c #44C3CF",
"l c #1DB7C5",
"z c #25B9C7",
"x c #1BB6C5",
"c c #35BFCB",
"v c #17B5C4",
"b c #22B8C6",
"n c #1FB8C5",
"m c #27BAC7",
"M c #24B9C7",
"N c #12B3C2",
"B c #13B4C3",
"V c #22B9C6",
"C c #0BB1C0",
"Z c #20B8C6",
"A c #2FBDCA",
"S c #1BB6C4",
"D c #2EBDC9",
"F c #46C4CF",
"G c #2EBCC9",
"H c #31BDCA",
"J c #37BFCC",
"K c #2CBCC9",
"L c #2BBCC9",
"P c #28BAC8",
"I c #47C4D0",
"U c #3DC1CD",
"Y c #0BB2C1",
"T c #48C5D0",
"R c #50C7D2",
"E c white",
/* pixels */
"                                                                ",
"                                                 .X             ",
"                                                oO+@            ",
"                                               .#$%& **         ",
"           =-                                  X;:>,*><.        ",
"          123>                                  4&,5.678*       ",
"          90qwe 11                  **          *5rt=yu%**      ",
"          7+.i5p6+p*                a&e         1s$df g 5f5     ",
"          1ww>*r0hf*             **tj3a*       *wkp5dlzqxcv*    ",
"           =5vq=qf=              fbq8nr*       *ms e&+moefX     ",
"           X+s<M *              1;;weN          gM,M44af,lB     ",
"          *>kVC&r*             *v:XZ@AS*         5pg  *8Dg>     ",
"          *>F>Car*              X>lp4G8*          *    4G84     ",
"           .u,Z<=                 =  g-                 5e      ",
"            =f>.                                                ",
"             **                                                 ",
"                                                                ",
"                                                                ",
"                                                                ",
"                                                                ",
"                                                                ",
"                                                                ",
"                                                                ",
"                                                                ",
"                                                                ",
"                                                                ",
"                                                                ",
"                                                                ",
"                               =                                ",
"                              ,u4**                             ",
"                             =HZo1,5                            ",
"                              vot8H4*                           ",
"                              =&Vqt=                            ",
"                              4J4l=                             ",
"                              ed>f                              ",
"                               .1=                              ",
"                                                                ",
"                                                                ",
"             *  =                                               ",
"            g%.%K@                                              ",
"            LMSvy1**                                            ",
"            Pw>4q=tV1                                           ",
"            -glPfqh+Z=                                          ",
"             *Z;prfl>-=                                         ",
"              5a:eSo5AZ                                         ",
"               **asZv&o                                         ",
"                *nlpf                                           ",
"                 .S>.                                           ",
"                                                    ***         ",
"                                                    qGi1        ",
"                                                   5;IFO5       ",
"                                               *  *vw=r$p*      ",
"                                              =ZHLp5y%fj5       ",
"                                             *n6IkUg@wd1        ",
"   *  5e                                     =ho41wnY**         ",
"  =8o.yj5                                     ugYC,l*14         ",
"  12lp>o=                                    *xhraj54TRa*       ",
"  5wnfor=                                      4aZe*lKjd*       ",
"    -Gofg                                      ***  5dit        ",
"     jP:e                                                       ",
"     5qg                                                        ",
"      *                                                         ",
"                                                                ",
"                                                                "
};
