/* XPM */
static char *result[] = {
/* columns rows colors chars-per-pixel */
"64 64 187 2 ",
"   c #020000",
".  c #0D0301",
"X  c #280902",
"o  c #4A1004",
"O  c #591406",
"+  c #7E1F09",
"@  c #297A77",
"#  c #3D777B",
"$  c #5A5D5D",
"%  c #6E5142",
"&  c #4F6052",
"*  c #546F6F",
"=  c #5C6E6D",
"-  c #5C6D7C",
";  c #447174",
":  c #437679",
">  c #4B7678",
",  c #537273",
"<  c #666869",
"1  c #766B68",
"2  c #657468",
"3  c #74716D",
"4  c #666E76",
"5  c #776E75",
"6  c #787279",
"7  c #96230B",
"8  c #983519",
"9  c #A9260B",
"0  c #B82B0D",
"q  c #BC3E1A",
"w  c #873722",
"e  c #CB3714",
"r  c #866437",
"t  c #A86A3A",
"y  c #D4431B",
"u  c #CE5125",
"i  c #D25426",
"p  c #CF602F",
"a  c #CE6532",
"s  c #855944",
"d  c #91724C",
"f  c #95685B",
"g  c #9E6D5B",
"h  c #8A7655",
"j  c #A36C5E",
"k  c #836E68",
"l  c #8C6E6E",
"z  c #9B6E67",
"x  c #936E6B",
"c  c #9D716E",
"v  c #886F71",
"b  c #817175",
"n  c #A27067",
"m  c #AB7163",
"M  c #A4716A",
"N  c #AB736A",
"B  c #B17264",
"V  c #B3736A",
"C  c #B5756B",
"Z  c #B9776B",
"A  c #BD786E",
"S  c #C87C42",
"D  c #C27A6E",
"F  c #C47C72",
"G  c #CB7F72",
"H  c #338A7C",
"J  c #3A8A78",
"K  c #4D8C6F",
"L  c #588F6C",
"P  c #5C946D",
"I  c #4B8D71",
"U  c #539778",
"Y  c #798E61",
"T  c #699669",
"R  c #749A66",
"E  c #769D69",
"W  c #7DA169",
"Q  c #878356",
"!  c #8A8B59",
"~  c #829659",
"^  c #8D955D",
"/  c #929A5F",
"(  c #B98E4F",
")  c #B2A25D",
"_  c #8C9D63",
"`  c #89A567",
"'  c #83A368",
"]  c #93A967",
"[  c #9CB36B",
"{  c #BBAB63",
"}  c #A0B56C",
"|  c #A4BC6F",
" . c #BBB267",
".. c #B8B86C",
"X. c #B8BA6C",
"o. c #A5BC72",
"O. c #C58F4F",
"+. c #CE8074",
"@. c #D28376",
"#. c #D5877B",
"$. c #D9877A",
"%. c #D6887B",
"&. c #D8887A",
"*. c #ABC373",
"=. c #B3C373",
"-. c #B3CA77",
";. c #B4CD7A",
":. c #B8CE79",
">. c #B6D07B",
",. c #187F8D",
"<. c #297D87",
"1. c #347883",
"2. c #477E83",
"3. c #57778A",
"4. c #647382",
"5. c #6C7E8D",
"6. c #727783",
"7. c #667E90",
"8. c #1C8A8E",
"9. c #0F8794",
"0. c #1B8A95",
"q. c #168C9A",
"w. c #1B8C98",
"e. c #0D919D",
"r. c #199295",
"t. c #14959C",
"y. c #1C979D",
"u. c #2B8A81",
"i. c #278789",
"p. c #24848B",
"a. c #258695",
"s. c #2C8493",
"d. c #328394",
"f. c #0E95A2",
"g. c #0D9AA6",
"h. c #079EAC",
"j. c #0D9DA9",
"k. c #1295A1",
"l. c #119BA4",
"z. c #0CA1AE",
"x. c #0BA5B3",
"c. c #0AA9B7",
"v. c #0AADBD",
"b. c #0BB0BF",
"n. c #478498",
"m. c #4C8499",
"M. c #58879D",
"N. c #6B8293",
"B. c #558BA1",
"V. c #5D8DA5",
"C. c #5A90A8",
"Z. c #628BA4",
"A. c #6593AC",
"S. c #6E93A8",
"D. c #6A97B1",
"F. c #6B99B5",
"G. c #76A5BC",
"H. c #0AAFC0",
"J. c #0DB2C1",
"K. c #13B3C2",
"L. c #1AB5C4",
"P. c #21B1C0",
"I. c #24B9C7",
"U. c #28BAC7",
"Y. c #2DBCC9",
"T. c #34BECA",
"R. c #76A8C4",
"E. c #7AADCB",
"W. c #7EB2CD",
"Q. c #7EB3D2",
"!. c #3DC1CD",
"~. c #42C3CE",
"^. c #91B48E",
"/. c #A0BE8A",
"(. c #8AB5AE",
"). c #93BDAD",
"_. c #8BB9BB",
"`. c #9CC19E",
"'. c #ADC985",
"]. c #A5C58D",
"[. c #ABC688",
"{. c #ABC88A",
"}. c #B1CC81",
"|. c #A4C592",
" X c #A3C496",
".X c #87B7C2",
"XX c #82B5CA",
/* pixels */
"J.J.J.J.J.J.J.J.J.J.J.J.J.J.J.J.J.J.J.J.J.J.J.J.J.J.J.J.J.J.J.J.J.J.J.J.J.J.J.J.J.J.J.J.J.J.J.J.J.J.J.J.J.J.J.J.J.J.J.J.J.J.J.J.",
"J.J.J.J.J.J.J.J.J.J.J.J.J.J.J.J.J.J.J.J.K.J.J.J.J.J.J.J.J.J.J.J.J.J.J.J.J.J.J.J.J.J.J.K.J.J.J.J.J.J.J.J.J.J.J.J.J.J.J.J.J.J.K.J.",
"J.J.J.J.J.J.b.J.J.J.J.J.J.J.J.J.J.J.J.J.J.J.J.J.J.J.J.J.J.J.J.J.J.J.J.J.J.J.J.J.J.J.J.J.J.J.J.J.J.J.J.J.J.J.J.J.J.J.J.J.J.J.J.J.",
"J.J.J.J.K.I.K.J.J.b.J.J.J.J.J.J.J.J.J.J.J.J.J.J.J.J.J.J.J.J.J.J.J.J.J.K.J.J.J.J.J.J.J.J.J.J.J.J.J.J.K.J.J.J.J.J.J.J.J.J.J.J.J.J.",
"J.J.J.b.Y.U.L.K.Y.L.J.J.J.J.J.J.J.J.J.J.J.J.J.J.J.J.J.K.J.J.J.J.J.J.K.J.J.J.J.J.J.J.J.J.J.J.J.J.J.J.J.J.J.J.J.J.J.J.J.J.J.J.J.J.",
"J.J.J.J.L.I.L.K.Y.L.b.J.J.J.J.J.J.J.J.J.J.J.J.J.J.J.J.J.J.J.J.J.J.J.J.J.J.J.J.J.J.J.J.J.J.J.J.J.J.J.J.J.J.J.J.K.J.J.J.J.J.J.J.J.",
"J.J.J.J.J.K.I.L.K.J.J.J.J.J.J.J.J.J.J.J.J.J.J.J.J.J.J.J.J.J.J.J.J.J.J.J.J.J.J.J.J.J.J.K.J.J.J.J.J.J.J.J.J.J.J.J.J.J.J.J.J.J.J.J.",
"J.J.J.J.b.I.Y.K.L.J.J.J.J.J.J.J.J.J.J.J.J.J.J.J.J.J.J.J.J.J.J.J.J.J.J.J.J.J.J.J.J.J.J.J.J.J.J.J.J.J.J.J.J.J.J.J.J.J.J.J.J.J.J.J.",
"J.J.J.J.J.L.U.L.K.J.J.J.J.J.J.J.J.J.J.J.J.J.J.J.K.H.H.H.c.h.H.c.J.J.J.J.b.b.J.J.J.J.J.J.J.J.J.J.J.J.J.J.J.J.J.J.J.J.J.J.J.J.J.J.",
"J.J.J.J.J.J.K.K.J.J.J.J.J.J.J.J.J.J.J.J.J.J.J.J.H.x.,.1.1.3.3.4.: 1.0.j.v.J.J.J.J.J.J.J.J.J.J.J.J.J.J.J.J.J.J.J.K.J.J.J.J.J.J.J.",
"J.J.J.J.J.b.J.J.b.J.J.J.J.J.J.J.J.J.J.J.J.J.c.w.3.1 N F F @.#.#.+.G C x = p.x.J.J.J.J.J.J.J.b.K.J.J.J.J.J.J.J.J.J.J.J.J.J.J.J.J.",
"J.J.J.J.J.J.J.J.J.J.J.J.J.J.J.J.J.J.J.J.v.w.= N G #.$.$.#.$.#.#.$.$.&.&.$.Z 3 p.v.J.J.J.J.J.J.b.J.J.J.K.J.J.J.J.J.J.J.J.J.J.J.J.",
"J.J.J.J.J.J.K.J.J.J.J.J.J.J.J.J.J.J.J.z.: M G #.#.#.#.$.#.#.#.#.@.%.%.+.Z m B g ; z.J.b.j.r.8.y.c.J.J.J.J.J.J.J.J.J.J.J.J.J.J.J.",
"J.J.J.J.J.J.J.J.J.J.J.J.J.J.J.J.J.J.k.4 F $.$.#.#.#.#.#.#.#.#.#.%.@.m h ^ ] / d s & e.H R [ / t % u.b.J.J.J.J.J.J.J.J.J.J.J.J.J.",
"J.J.J.J.J.J.J.J.J.J.J.J.J.J.J.J.J.k.5 G G $.#.#.%.$.G $.#.#.#.#.%.g ^ *.>. .a y q w & | >. .u 7 7 8 @ J.J.J.J.J.J.J.J.J.K.J.J.J.",
"J.J.J.J.J.J.J.J.J.J.J.J.J.J.J.J.j.1 G %.%.%.#.#.%.$.$.$.#.#.#.#.m ^ >.;.=.p 7 X o 0 r *.>.S 9 .   + r g.J.J.J.J.J.J.J.J.J.J.J.J.",
"J.J.J.J.J.J.J.J.J.J.J.J.J.J.J.c.* G #.#.#.#.#.#.#.#.#.#.#.#.#.#.h *.;.;.X.y O   . 7 t / ;.S 0 X . 7 ( H H.J.J.J.J.J.J.J.J.J.J.J.",
"J.J.J.J.J.J.J.J.J.J.J.J.J.J.J.i.C $.#.#.#.#.#.%.#.#.#.#.#.#.#.F ! ;.;.;.=.u 9 o O e ( Y ;.{ u 0 9 p ..I v.J.J.J.J.J.J.J.J.J.J.J.",
"J.J.J.J.J.J.J.K.J.J.J.J.J.J.x.1 $.#.#.#.#.#.#.#.#.#.#.#.#.#.#.V ^ ;.;.;.;.) i e y S =.~ -.-. .O.O.X.*.K v.J.J.J.J.J.J.J.J.J.J.J.",
"J.J.J.J.J.J.J.J.J.J.J.J.J.J.<.A #.#.#.$.#.#.#.#.#.#.#.#.#.#.#.F ! ;.;.;.;.;.X.{  .-.*.Y -.;.;.;.>.>.*.H J.J.J.J.J.J.J.J.J.J.J.J.",
"J.J.J.J.J.J.J.J.J.J.J.J.J.c.4 #.#.#.#.+.#.#.#.#.#.#.#.#.#.#.#.#.h *.>.;.;.;.;.;.>.>.[ ~ ;.;.;.;.>.>.W e.J.J.J.J.J.J.J.J.J.J.J.J.",
"J.J.J.J.J.J.J.J.J.J.J.J.J.k.c %.#.#.#.#.#.#.#.#.#.#.#.#.#.#.#.#.m / >.;.-.;.;.;.;.-.Y ] ;.;.;.;.>.] H b.J.J.J.J.J.J.J.J.J.J.J.J.",
"J.J.J.J.J.J.J.J.J.J.J.J.J.a.A %.#.#.#.#.#.#.#.#.#.#.#.#.#.#.#.#.+.f ] -.:.;.;.;.*.! d d / } o.[ Y @ c.J.J.J.J.J.J.J.J.J.J.J.J.J.",
"J.J.J.J.J.J.J.J.J.J.J.J.J.# +.#.#.#.#.#.#.#.#.#.#.#.#.#.#.#.#.#.%.@.g Q ] [ [ _ 2 f $.@.Z j & # A.w.H.J.J.J.J.J.J.J.J.J.J.J.J.J.",
"J.J.K.J.J.J.J.J.J.J.J.J.J.> @.#.#.#.#.#.#.#.#.#.#.#.#.#.#.#.#.#.%.%.#.D m g g < F.x $.$.$.$.< <.G.a.J.J.J.J.J.J.J.J.J.J.J.J.J.J.",
"J.J.J.J.J.J.J.J.J.J.J.J.b.2.@.%.#.#.#.#.#.#.#.#.#.#.#.#.#.#.#.#.%.%.$.#.%.&.&.z F.b @.#.#.$.3 ,.F.s.b.J.J.J.J.J.J.J.J.K.J.J.J.J.",
"J.J.J.J.J.J.J.J.J.J.J.J.b.> #.#.#.#.#./.#.#.#.#.#.#.#.#.G.$.#.#.#.#.@.%.#.#.#.D 5.6.G #.$.$.3 9.A.a.b.J.J.J.J.J.J.J.J.J.J.J.J.J.",
"J.J.J.J.J.J.J.J.J.J.J.J.b.d.+.#.#.#.@.@.#.#.#.#.#.#.#.#.#.#.#.#.#.#.#.%.$.%.#.@.b 7.A $.#.$.3 e.B.s.b.J.J.J.J.J.J.J.J.J.J.J.J.J.",
"J.J.J.J.b.J.J.J.J.J.J.J.J.s.F %.#.#.#.#.#.#.#.#.#.#.#.#.#.#.#.#.#.#.#.#.%.$.#.$.n 3.N $.$.#.2 f.m.d.v.J.J.J.J.J.J.J.J.J.J.J.J.J.",
"J.J.J.J.L.U.K.J.J.J.J.J.J.y.N %.@.#.#.#.#.#.#.#.#.#.#.#.#.#.#.#.#.#.#.#.#.#.$.$.D 3.c #.#.@., h.m.d.v.J.J.K.J.J.J.J.J.J.J.J.J.J.",
"J.J.J.J.I.U.L.J.J.J.J.J.J.z.k %.#.#.#.#.#.#.#.#.#.#.#.#.#.F #.#.#.#.#.$.#.$.$.#.@.5 5 @.#.G # x.n.d.v.J.K.b.b.L.J.J.J.J.J.J.J.J.",
"J.J.L.L.L.L.L.J.J.J.J.J.J.b., +.#.#.#.#.#.#.#.#.#.#.#.#.#.#.#.#.#.#.$.@.#.#.#.$.$.x 4 G $.D p.x.n.d.v.K.L.b.b.b.J.J.J.J.b.J.J.J.",
"J.L.T.Y.K.K.K.J.J.J.J.J.J.J.p.Z #.#.#.#.#./.#.#.#.#.#.#.#.#.#.#.#.#.%.%.&.%.%.%.$.M 4.V $.M k.x.3.d.H.J.H.L.P.J.J.J.J.v.J.J.J.v.",
"H.K.L.K.L.I.T.J.J.J.J.J.J.J.x.1 #.#.#.#.#.#.#.#.#.#.#.#.#.#.#.@.#.#.@.#.@.%.@.&.$.A 4.z $.1 x.z.m.a.H.J.J.L.K.H.J.H.J.J.J.J.J.J.",
"J.J.L.L.K.K.L.K.J.J.J.J.J.J.J.<.F #.#.#.#.#.#.#.#.#.#.#.#.@.#.#.#.@.#.$.%.@.%.%.$.G 4.x G > H.z.B.a.H.J.H.J.J.K.L.K.J.H.J.J.J.J.",
"J.b.J.H.J.J.J.J.J.J.J.J.J.J.J.j.6.#.#.#.#.#.#.#.#.#.#.#.#.#.#.#.#.#.%.%.%.&.&.%.$.G b 6.V ,.J.g.B.a.J.J.J.J.K.T.~.T.K.J.J.J.H.J.",
"J.J.J.J.J.J.J.J.J.J.J.J.J.J.J.H.<.M @.#.#.#.#.#.#.#.#.#.#.#.#.#.&.%.@.&.&.%.%.&.%.$.v 4.$ H.K.k.Z.w.H.J.J.J.L.~.L.K.I.J.H.J.J.J.",
"J.J.J.J.J.J.J.J.J.J.J.J.J.J.J.J.x.4.+.#.#.#.#.#.#.#.#.#.#.#.#.#.&.%.%.%.@.%.%.@.%.%.c 3.<.J.J.q.Z.w.J.J.J.J.K.Y.L.U.K.J.J.J.J.J.",
"K.J.J.J.J.J.J.J.J.J.J.J.J.J.J.J.H.k.l #.#.#.#.#.#.#.#.#.#.#.#.#.@.%.%.%.%.%.%.%.%.%.N 7.,.H.J.a.D.q.H.J.J.J.J.K.L.L.J.L.~.U.J.J.",
"J.J.J.J.J.J.J.J.J.J.J.J.J.K.J.J.H.H.1.V #.#.#.F #.#.#.#.#.#.#.#.%.%.@.&.%.@.&.%.%.#.c 7.<.H.J.,.A.k.J.J.J.J.H.K.L.K.J.U.T.U.K.v.",
"J.J.J.J.J.J.J.J.J.J.J.J.J.J.J.J.H.H.H.= G #.#.#.#.#.#.#.#.#.#.#.&.%.%.&.#.#.$.#.$.+.% 2.2.H.v.n.V.g.J.J.J.J.L.!.!.U.L.J.I.L.J.J.",
"J.J.J.J.J.J.J.J.J.J.J.J.J.J.J.J.H.K.H.k.z $.G #.#.#.#.#.#.#.#.#.@.%.%.@.$.#.#.$.#.@.j - C.9.h.7.B.x.J.J.J.J.T.!.K.J.I.J.J.J.J.J.",
"J.J.J.J.J.J.J.J.J.J.J.J.J.J.J.J.K.H.K.H.> G $.$.+.#.#.#.#.#.#.#.&.%.%.@.#.#.+.N l 6 6 3.F.1.1.3.1.g.v.J.J.J.U.U.J.J.U.J.J.J.J.J.",
"J.J.J.J.J.J.J.J.J.J.J.J.J.J.J.J.K.H.H.J.w.N $.%.#.#.#.#.#.#.#.#.@.%.%.&.+.x 6 S.R.E.E.M.R.V.E.R.A.n.s.e.c.J.L.U.L.U.L.J.J.J.J.J.",
"J.J.J.J.J.J.J.J.J.J.J.J.J.J.J.J.J.J.J.K.z.l $.@.#.#.#.#.@.#.#.$.%.%.$.V 5 D.Q.Q.Q.Q.Q.R.Q.E.Q.Q.Q.Q.E.A.d.k.J.J.L.K.J.J.J.J.J.J.",
"J.J.J.J.J.J.J.J.K.J.J.J.J.J.J.J.J.J.J.v.,.l $.#.#.#.#.#.#.#.#.$.@.&.n N.E.Q.Q.Q.Q.Q.Q.Q.Q.Q.Q.Q.Q.Q.Q.Q.E.B.0.c.J.J.J.J.J.J.J.J.",
"J.J.J.J.J.J.J.J.J.J.J.J.J.J.J.J.J.J.J.w.z G $.#.%.%.#.#.#.#.$.$.%.m N.W.Q.W.Q.Q.Q.Q.Q.Q.Q.Q.Q.Q.Q.Q.Q.Q.Q.Q.D.p.k.z.b.J.J.J.J.J.",
"J.J.J.J.J.J.J.K.J.J.J.J.J.J.J.J.J.J.J.l.$ x N A A +.+.#.#.#.$.@.B N.W.Q.Q.Q.Q.Q.Q.Q.Q.Q.Q.Q.Q.Q.Q.Q.Q.Q.W.Q.Q.G.^.W U y.H.J.J.J.",
"J.J.J.J.J.J.J.J.J.K.J.J.J.J.J.J.b.v.j.p.M.G.S.N.4 = 1 k l l v 6 N.E.Q.Q.Q.W.W.XX_._._._._.XXQ.Q.Q.Q.XX).].|. X|.-.-.=.R g.J.J.J.",
"J.J.J.J.J.J.J.J.J.J.J.J.J.J.J.J.l.I W o.[././.].{.].^.^.(.G.R.W.W.W..X).`.].'.;.'.;.;.-.'.[. X)._.).|.;.:.;.*.R I J J u.x.b.J.J.",
"J.J.J.J.J.J.J.J.J.J.J.J.J.J.J.J.r.R ' T I H u.L o.>.}.:.>.'.{.{.'.'.'.>.;.;.;.;.;.;.:.;.:.:.>.;.;.:.:.;.;.*.I j.v.v.J.J.K.b.J.J.",
"J.J.J.J.J.J.J.J.J.J.J.J.J.J.J.J.b.z.z.c.v.H.J.x.J ` o.] T P P P T E ] *.:.;.>.>.o.*.;.>.;.| E T T ` o.;.;.' t.J.K.J.J.J.J.J.J.J.",
"J.J.J.J.J.J.J.J.K.J.J.J.J.J.J.J.J.J.J.J.J.J.J.J.v.t.i.r.x.c.c.c.c.z.t.J W ] ] T H H E [ ' H l.c.x.t.u.L T i.v.J.J.J.J.J.J.J.J.J.",
"J.J.J.J.J.J.J.J.J.J.J.J.J.J.J.J.J.J.J.J.J.J.J.J.J.J.J.J.J.J.J.J.J.H.J.b.z.k.t.z.b.v.l.r.t.v.J.J.K.J.J.c.c.H.J.J.J.J.J.J.J.J.J.J.",
"J.J.J.J.J.J.J.J.J.J.J.J.J.J.J.J.J.J.J.J.J.J.J.J.J.J.J.J.J.J.J.J.J.J.J.J.J.J.J.J.J.J.J.J.J.J.J.J.J.J.J.J.H.J.J.J.J.J.J.J.J.J.J.J.",
"K.J.J.J.J.J.J.J.J.J.J.J.J.J.J.J.J.K.J.J.J.J.J.J.J.J.J.J.J.J.J.J.J.J.J.J.J.J.J.J.J.J.J.J.J.K.J.J.J.J.J.J.K.J.J.J.J.J.J.J.J.J.J.J.",
"J.J.J.J.J.J.J.J.J.J.J.J.J.J.J.J.J.J.J.J.J.J.J.J.J.J.J.J.J.J.J.J.J.J.J.J.J.J.J.J.J.J.J.J.J.J.J.J.J.J.J.L.L.Y.K.J.J.J.J.b.J.J.J.J.",
"J.J.J.J.J.J.J.J.J.J.J.J.J.J.J.J.J.J.J.J.J.J.J.J.J.J.J.J.J.J.J.J.J.J.J.J.J.J.J.J.J.J.J.J.J.J.J.J.J.J.J.L.L.Y.K.J.b.J.b.J.J.J.J.J.",
"J.J.J.J.J.J.J.J.J.J.J.J.J.J.J.J.J.J.K.J.J.J.J.J.J.J.J.J.J.J.J.J.J.J.J.J.J.J.J.J.J.J.J.J.J.J.J.J.J.J.J.J.L.L.L.I.J.J.J.J.b.J.J.J.",
"J.J.J.J.J.J.K.J.J.J.J.J.J.J.J.J.J.J.J.J.J.J.J.J.J.J.J.J.J.J.J.J.J.J.J.J.J.J.J.J.J.J.J.J.J.J.J.J.J.J.J.L.U.K.L.Y.K.b.J.J.J.J.J.J.",
"J.J.J.J.J.J.J.J.J.J.J.J.J.J.J.K.J.J.J.J.J.J.J.J.J.J.J.J.J.K.J.J.J.J.J.J.J.J.J.J.J.J.J.J.J.J.J.J.J.J.J.L.I.J.L.L.J.J.J.b.J.J.b.J.",
"J.J.J.J.J.J.J.J.J.J.J.J.J.J.J.J.J.J.J.J.J.J.J.J.J.J.J.K.J.J.J.J.J.J.J.J.J.J.J.J.K.J.J.J.J.J.J.K.J.H.J.J.J.b.J.b.J.J.J.J.b.J.b.J.",
"J.J.J.J.J.J.J.J.J.J.J.J.J.J.J.J.J.J.J.J.J.J.J.J.J.J.J.J.J.J.J.J.J.J.J.J.J.J.J.J.J.J.J.J.J.J.J.b.K.b.J.J.J.J.J.J.J.J.b.J.J.J.J.b.",
"J.K.J.J.J.J.J.J.J.J.J.J.J.J.J.J.J.J.J.J.J.J.J.J.J.J.J.J.J.J.J.J.J.J.J.J.J.J.J.J.J.J.J.b.J.b.K.b.P.K.b.J.J.J.J.J.J.J.J.J.J.J.J.J."
};
