/* XPM */
static char *result[] = {
/* columns rows colors chars-per-pixel */
"64 64 111 2 ",
"   c #C1326E",
".  c #C43773",
"X  c #C43874",
"o  c #C83D79",
"O  c #CA417D",
"+  c #BC6EA3",
"@  c #AA7BA6",
"#  c #A77EAB",
"$  c #A97CA9",
"%  c #BB76A5",
"&  c #B67CA5",
"*  c #B97BA6",
"=  c #CC4581",
"-  c #CF4985",
";  c #D04B87",
":  c #D34F8B",
">  c #D4518E",
",  c #D65491",
"<  c #D95996",
"1  c #DC5E9A",
"2  c #D4659C",
"3  c #DF629E",
"4  c #D5699C",
"5  c #C5789B",
"6  c #E1629F",
"7  c #CC67A0",
"8  c #C56EA4",
"9  c #DE64A0",
"0  c #D56BA1",
"q  c #DD68A1",
"w  c #C275A5",
"e  c #CB73A5",
"r  c #C778A7",
"t  c #C67FA8",
"y  c #D275A4",
"u  c #DE72A2",
"i  c #E063A0",
"p  c #E16BA4",
"a  c #E270A7",
"s  c #E47BAC",
"d  c #1CAFBF",
"f  c #19B0BF",
"g  c #23AEBE",
"h  c #2BABBD",
"j  c #3DA7BA",
"k  c #33AABC",
"l  c #3CAABC",
"z  c #22B1BF",
"x  c #579EB6",
"c  c #5E9DB5",
"v  c #7B8DAF",
"b  c #7492AC",
"n  c #7C8EB1",
"m  c #6795B2",
"M  c #6B96B4",
"N  c #639BB4",
"B  c #689CB3",
"V  c #7496B2",
"C  c #7A95B3",
"Z  c #739BB3",
"A  c #7B9BB3",
"S  c #48A5B7",
"D  c #44A6B9",
"F  c #4BA4B9",
"G  c #46A9BB",
"H  c #56A3B7",
"J  c #5CA2B7",
"K  c #59A4B8",
"L  c #50AABB",
"P  c #61A0B5",
"I  c #07B3C1",
"U  c #0DB2C1",
"Y  c #13B3C1",
"T  c #1AB5C3",
"R  c #2BAFC0",
"E  c #21B1C0",
"W  c #24B9C7",
"Q  c #28BAC7",
"!  c #2DBCC9",
"~  c #34BECA",
"^  c #3DC1CD",
"/  c #42C3CE",
"(  c #8787AC",
")  c #8589AE",
"_  c #8D8DAC",
"`  c #9483AD",
"'  c #998CAE",
"]  c #8491AF",
"[  c #8298AF",
"{  c #9494AE",
"}  c #9B94AD",
"|  c #8F8EB0",
" . c #8395B3",
".. c #8B97B1",
"X. c #8C9EB4",
"o. c #9597B4",
"O. c #AE85A6",
"+. c #A28DAC",
"@. c #AB8BA9",
"#. c #B484A6",
"$. c #B882A8",
"%. c #B189A9",
"&. c #A992AD",
"*. c #84A2B5",
"=. c #E484B2",
"-. c #E58AB5",
";. c #E58EB8",
":. c #E692BA",
">. c #E799BE",
",. c #E9A3C4",
"<. c #EAABC9",
/* pixels */
"U U U U U U U U U U U U U U U U U U U U U U U U U U U U U U U U U U U U U U U U U U U U U U U U U U U U U U U U I Y U I Y U U U ",
"U U U U U U U U U U U U U U U U U I U U U U U U U U U U U U U U U Y U U Y I U U U U U U U U U U U U U U Y I U U U U U U U U I U ",
"U U U U U U U U U U U U U U U U U Y U U U U U U U Y U U U U U U U U U U U U U U U U U U U U Y U U U U U U U U Y U U Y U U U Y U ",
"U U U U Y W Y U U U U U U U U U U U U U U U U U U U U U U U U U U U U U U U U U U U U U U U U U U U U U U U U I U U U U I U U U ",
"U U U f Q W T Y ^ T U U U U U U U U U U U U I Y U U U U U U U U U U Y U U U U U U U U U U U U U U U U U U Y U U U U U U Y U U U ",
"U U U U T T T Y Q Y U U U U U U U U Y U U U U U U U I Y U U U U U U U U U U U U U U U U U U Y U U U U U U U U U U I Y U U U I U ",
"U U U U U Y W T U U U U U U U U I U U U U Y U U U U U U U U U U U U U U U U U U U U U U U U U U U U U U U U I U U U U U U U Y U ",
"U U U U U W ! Y Y U U U U U U U Y U U U U I U U U U U U U U U U U U U U U U U U U U U U U U U U U U U Y U U Y U Y U U Y I U U U ",
"U U U U U Y ^ T Y U U U U U U U U U U I U U I U U U U U U U U U U U U U U U U U U U U U U U U U U U U U U U U U I U U Y I U U U ",
"U U U U U U I Y U U U U U U U U U U U Y U U Y U U U U Y U U U U U U I Y U U U U U U U U U U U U U U U U U U U U U U U U U U Y U ",
"U U U U U U U U U U U U U U U U Y I U U U U U U U U U U U U U U U U U U U U U U U U U U U U U U U U U U U U U U U Y I U Y U U U ",
"U U U U U U U U U U U U U U U U U U U U U Y U U U U U U U U U U U U U U U U U U U U U U U U U U U U U U U U U U U U U U I U U U ",
"U U U U U U U U U U U U U U U U U U U I U U U U U U U U U U U U U U U U U U U U U U U U U U U U U U U U U U U U U U U U U U U U ",
"U U U U U U U U Y U U U U U U U U U U Y U U U U U U U U U U U U U U U U U U U U U U U U U U U U U U U U U U U U U U U U U U U U ",
"U U U U U U U U U U U U U U U U Y I U U U U U U U U U U U U U U U U U U U U U U U U U U U U U U U U Y U U Y U U U U U U U U U U ",
"U U U U U U U U U U U U U U U U U U U U Y U U U U U U U U U U U U U U U Y U U U U Y U U U U U U U U U U U U U U U U U U U U Y U ",
"U U U U U U U U U U U U U U U U U U U U U U U U U U U U U U U U U U U U U U U U U U U U U U U U U U U U U U U U U U U U U U U U ",
"U U U U U U U U U U U U U U U U U Y U U U U U U U U U U Y U U U U U U U U U U U U U U U U U U U U U U U U U U U U U U U U U U U ",
"U U U U U U U U U U U U U U U U U U U U U U U U U U U U U U U U U U U U U U U U U U U U U U U U U U U U U U U U U U U U U U U U ",
"U U U U U U U U U U U U U U U U U U U U U U U U U U U U U U U U U U U U U U U U U U U U U U U U U U U U U U U U U U U U U U U U ",
"U U U U U U U U U U U U U U U U U U U U U U U U U U U U U U U U U U U U U U U U U U U U U U U U U U U U U U U U U U U U U U U U ",
"U U U U U U U U U U U U U U U U U U U U U U U U U U U U U U U U U U U U U U U U U U U U U U Y U U U U U U U U U U U U U U U U U ",
"U U U U U U U U U U U U U U U U U U U Y U U U U U U U U U U Y U U U U U U U U U Y U U U U U U U U U U U U U U U U U U U U U U U ",
"U U U U U U U Y U U U Y U U U U U U U U U U U U U U U U U U U U U U U U U U U U U U U U U U U U U U U U U U Y U U U U U U U U U ",
"U U U U U U U U U U U U U U U U U U U U U U U U U U U U U U U U U U U U U U U U U U U U U U U U U U U U U U U U U U Y U U U U U ",
"U U U U U U U U U U U U U U U U U U U U U U U U U U U U U U U U U U U U U U U U U U U U U U U U U U U U U U U U U U U U U U U U ",
"U U U U U U U U U U U U U U U U U U U U U U U U U U U U U U U U U U U U Y U U U U U U U U U U U U U U U U U U U U U U U U Y U U ",
"U U U U U U U U U U U U U U U U U U U U U U U U Y U U U U U U U U U U U U U U U U U U U U U U U U U U U U U U U U U U U U U U U ",
"U U U U U U U U U U U U U U U U U U U U U U U U U U Y I U U U U U U U U U U U U U U Y U U U U U U U U U U U U U U U U U U U U U ",
"U U U U Y Q Y U U U U U U U U U U U U U U U U U U U U U U U U U U U U U U U U U U U U U U U U U U U U U U U U U U U U U U U U U ",
"U U U U Q ^ T U U U U U U U U U U U U U U U U U U U U U U U U U U U U U U Y U U U U U U U U U U U U U U U U U Y U U U U U U U U ",
"U U T T T T U U U U U U U U U U U U U Y U U Y I U U U U U U U U U U U U U U U U U U U U U U U U U U U Y U U T Y U U U U U U U U ",
"U T ~ ! T Y Y U U U U U U U U U U U U U U U U U U U U U U U Y U U U U U U U U U U U U U U U U U U U U U U Y T U U U U U U U U U ",
"U Y T Y T W ! Y U U U U U U U U U U U I U U U U U U U U U U U U U U U U Y U U U U U U Y U U U U U U U U U T T U U U U U U U U U ",
"U U T T U Y T U U U U U U U U U U U U U U U U U U U U U U U U U U U U U U U U U U U U U U U U U U U U U U U Y Y T Y U U I I U U ",
"U U U U U U U U U U U U U U U U U U U U U U U U U U U U U U U U U U U U U U U U U U U U U U U U U U U U U U U ~ / ! Y U I f U U ",
"U U U U U U U U U U U U U U U U Y U U U U U U U U U I U U U U U U U U U U U U U U U U U U U U U U U U U U U T / T T T U f U U U ",
"U U U U U U U U U U U U U U U U U U U U U Y U U Y h l l h Y I U U U U U U U U U U U U U U U U U U U U U U U Y ! Y W T U I U f U ",
"U U U U U U U U U U U U U U U U U U U U U I E N # r y y t o.R I U U U U U U U U U U U U U U U U U U U U U U U Y W Y U T / W I I ",
"U U U U Y U U U U U U U U U U U U U U U I j # q p p a -.p 6 t D U U U U U U U U U U U U U U U U U U U U U U U Y T Y U ! ~ E I f ",
"U U U U U U U U U U U U U U U U U U U U F w i s ,.:.,.<.;.;.s * Q U U U U U U U U U U U U U U U U U U U U U T / ~ Q T U W T U U ",
"U U U U U U U U U U U U U U U Y U U U k % s >.,.<.>.s <.<.<.:.u M Y U U U U U U U U U U U U U U U U U U U U ~ ~ Y Y W U U U U U ",
"U U U U U U U U U U U U U U U U U U Y ` a ,.:.:.-.p 9 ;.;.-.<.>.' T U U U U U U U U U U U U U U U U U U U U ! W U Y Q U U U U U ",
"U U U U U U U U U U U U U U U U U U F 0 p =.p i i 9 i p 9 p ;.=.* T I U U U U U U U U U U U U U U U U U U U T W T W T U U U U U ",
"U U U U U U U U U U U U U U U U U U | 6 i i 3 6 i 3 < , 3 6 9 6 * W Y U U U U U U U U U U U U U U U U U U U U Y Y Y U U U U U U ",
"U U U U U U U U U U U U U U U U U E * 6 i , O 1 i < X   > i 6 6 %  .R U U U U U U U U U U U U U U U U U U U U U U U U U U U U U ",
"U U U U U U U U U U U U U U U U U R e 6 i , = 3 i 3 : ; 1 6 6 6 # 8  .Y U U U I U U U Y U U U U U U U U U U U U U U U U U U U U ",
"U U Y U U U U U U U U U U U U U U R e 6 i 3 3 3 1 3 i i i 3 6 0 ` 7 e ' j E D L E E x ` F U U U U U U U U U U U U U U U U U U U ",
"U U U U U U U U U U U U U U U U U g w 6 6 i < o . , i i i i 3 $ @ % m O.@.[ Z X.*.X.& 5 x I U E T U U U U U U U U U U U U U U U ",
"U U U U U U U U U U U U U U U U U Y ` 6 i 6 =     : i i i 6 8 ` 2 _ U d h f f f d f h h U f E E E T U U U U U U U U U U U U U U ",
"U U U U U U U U Y U U U U U U U U I D 0 6 6 - . = 1 i 6 3 7 ( @ 2 x I I f I I I f f f f U Y E g E Y U U U U U U U U U U U U U U ",
"U U U U U U U U U U U U U U U U I I f V 4 3 1 < 3 i 6 6 + v c h ) @.l d d I f f f x ' k I f Y Y U U U U U U U U U U U U U U U U ",
"U U U U U U U U U U U Y U U U U U f I f c & 2 3 9 9 8 # v N Y I f Z Z { &.A D j c ( b f U U U U U U U U U U U U U U U U U U U U ",
"Y U U U U U U U U U U U U U U U U U I U I g F N m n ] C @ ) Y U U U f g H #.#.B f f f f U U U U U U U U U U U U U U U U U U U Y ",
"U U U U U U U U U U U U U U U U U U U U U U I U E ' y F k %.S Y U I f I U g z f I I f f U U U U U U U U U U U U U U U U U U U U ",
"U U U U U U U U U U U U U U U U U U U U U U U I U E $.J I J +.Z K f f I I I I I I I f f U U U U U U U U Y Y U U U U U U U U U U ",
"U U U U U U U U U U U U U U U U U U U U U U U Y I I ..H I f h j H P J F J Z J j j R U U U U U U U U U T T ! U U U U U U U U U U ",
"U U U U U Y U U U U U U U U U U U U U U U U U U U f J [ f I f f I f g j k k S Z ] D U U U U U U U U U T T ! Y U U U U U U U U U ",
"U U U U U U U U U U U U U U U U U U U U U U U U U U f Z ..D k G k f f I U I f I U U U U U U U U U U U Y T T E W U U U U f U U U ",
"U U U U U U U U U U U U U U U U U U U U U U U U I f f g A { ....} Z j f U U U U U U U U U U U U U U U T W Y E ! U U U U I U U U ",
"U U U U U U U U U U U U U U U U U U U U U U U U I U U U U f U U f P } l I U U U U U U U U U U U U U U T E U Y Y U U I f I f I I ",
"U U U U U U U U U U U U U U U Y U U U U U U U U U U U U U U U U U U f f U U U U U U U U U U U U U I U U U U U U U I I I f I I f ",
"U U U U U U U U U U U U U U U U U U U U U U U U U U U U U U U U U U U U U U U U U U U U U U U U Y U U U U U U U U U f I U U f I ",
"U U U U U U U U U U U U U U U U U U U U U Y U U U U U U U U U U U U U U U U U U U U U U U U U Y E Y U U U U U U U U I f U U I I "
};
