/* XPM */
static char *result[] = {
/* columns rows colors chars-per-pixel */
"64 64 112 2 ",
"   c #BF306C",
".  c #C1336F",
"X  c #C23571",
"o  c #C63A76",
"O  c #C73D79",
"+  c #CA427E",
"@  c #9B7DA9",
"#  c #A47CAB",
"$  c #AF7FA9",
"%  c #B573A4",
"&  c #BA70A2",
"*  c #B57CA6",
"=  c #BA7FA5",
"-  c #CE4683",
";  c #D04B87",
":  c #D4518D",
">  c #D75692",
",  c #D85693",
"<  c #DA5A96",
"1  c #DD5E9B",
"2  c #CB6C9D",
"3  c #D7669B",
"4  c #DE629E",
"5  c #C6769B",
"6  c #E1629F",
"7  c #CB6CA3",
"8  c #D067A0",
"9  c #DE64A0",
"0  c #D56CA2",
"q  c #D86DA2",
"w  c #C274A1",
"e  c #CA73A1",
"r  c #C279A5",
"t  c #D475A5",
"y  c #DA72A2",
"u  c #E063A0",
"i  c #E16DA4",
"p  c #E273A9",
"a  c #E37CAD",
"s  c #1CAFBF",
"d  c #15B0BF",
"f  c #19B0BF",
"g  c #24ADBE",
"h  c #2CABBD",
"j  c #3CA6B9",
"k  c #33AABC",
"l  c #3BABBD",
"z  c #22B2BF",
"x  c #529FB7",
"c  c #5E9CB5",
"v  c #7C94AE",
"b  c #7D8CB0",
"n  c #6F95B4",
"m  c #629EB5",
"M  c #6C9DB4",
"N  c #7494B1",
"B  c #7C93B2",
"V  c #729DB3",
"C  c #7C9AB1",
"Z  c #44A6B9",
"A  c #4AA4B9",
"S  c #45A9BB",
"D  c #55A2B7",
"F  c #5AA2B6",
"G  c #51A5B8",
"H  c #5AA2B9",
"J  c #5EA8BA",
"K  c #63A1B5",
"L  c #68A4BB",
"P  c #75A3B5",
"I  c #07B3C1",
"U  c #0DB2C1",
"Y  c #13B2C1",
"T  c #1BB4C3",
"R  c #21B1C0",
"E  c #24B9C6",
"W  c #28BAC7",
"Q  c #2DBCC9",
"!  c #33BDCA",
"~  c #3EC1CD",
"^  c #42C3CE",
"/  c #4AC5D0",
"(  c #8487AD",
")  c #848DAC",
"_  c #9D8AA7",
"`  c #9582AD",
"'  c #9688AD",
"]  c #9C8AAD",
"[  c #8696AF",
"{  c #8E94AD",
"}  c #9293AD",
"|  c #9D92AE",
" . c #838DB0",
".. c #8E8EB0",
"X. c #8395B1",
"o. c #839CB3",
"O. c #8D9EB3",
"+. c #A382AA",
"@. c #A38FAC",
"#. c #A88CAC",
"$. c #B682A4",
"%. c #BB83A4",
"&. c #B985AA",
"*. c #A991AC",
"=. c #80A3B7",
"-. c #D884AB",
";. c #E383B1",
":. c #E68FB8",
">. c #E89EC1",
",. c #E9A3C4",
"<. c #EAA8C7",
"1. c #EAABC9",
/* pixels */
"U U U U U U U U U U U U U U U U U U U U U U U U U U U U U U U U U U U U U U U U U U U U U U U U U U U U U U U U U U U U U U U U ",
"U U U U U U U U U U U U U U U U U U U U U U U U U U U U U U U U U U U U U U U U U U U U U U U U U U U U U U U U U U U U U U U U ",
"U U U U I I U U U U U U U U U U U U U U U Y U U U d U I U U d U U U U U U U U U U U U U U U U U U U U U U U U U U U U U U U U U ",
"U U U U I ~ Y U U U U U U U U U U U U U U U U U d h ! S l R U U U U U U U U U U U U U U U Y U U U U U U U U U U E ! E U U U U U ",
"U U U d W E T Y W T U U U U U U U U U U U U Y A @ & t t t &.L Y U U U U U U U U U U U U U U U U U U U U U U U T / W E Y d I U U ",
"U U U U T T Y Y W T U U U U U U U U U U U R  .8 i q u ;.a u q X.T U U U U U U U U U U U U U U U U U U U U U U E Q U E T I d U U ",
"U U U U U Y E T Y U U U U U U U U U U U R @ 9 i >.>.>.,.>.:.:.q M U U U U U U U U U U U U U U U U U U U U U U U E E E U Y E U U ",
"U U U U U E ~ U T U U U U U U U U U U Y ..q >.>.1.,.a >.1.1.<.a = R I U U U U U U U U U U U U U U U U U Y U U U U Y U U ! ^ E U ",
"U U U U U Y ~ T Y U U U U U U U U U I x q :.>.;.:.p u a >.a >.<.-.S U U U U U U U U U U U U U U U U U U U U U U Q ! T U ~ W E U ",
"U U U U U I I Y U U U U U U U U U U R $ u ;.p 4 u u u u u u a :.y H I U U U U U U U U U U U U U U U U U U U U ~ ^ T T T I U U U ",
"U U U U U U U U U U U U U U U U U I A q u 6 6 1 u u < : < 6 u u 9 m U U U U U U U U U U U U U U U U U U U U Y ~ W U Y E U U U U ",
"U U U U U U U U U U U U U U U U U U N u u 6 + : u u - . + 1 u u 9 ..V U U U U U U U U U U U U U U U U U U I U E T Y E T U U U U ",
"U U U U U U U U U U U U U U U U I U ..u 6 1 - , u u < ; , 9 u u w # r k U U U I U U U U Y U U I U U U U U U U Y E E Y U U U U U ",
"U U U U U U U U U U U U U U U U U U ..u u 6 4 4 < 1 u u u u u 1 # % 4 = M s l J l f Z { [ d I d d I U U U U U U U U U U U U U U ",
"U U U U Y U U U U U U U U U U U U U b 6 4 u 1 - X - 4 u u u u 7 ..8 N ( $.} C P O.=.@.5 { d U I U U U U U U U U U U U U U U U U ",
"U U U U U U U U U U U U U U U U U I A 0 6 u > X   O 4 u u u 9 ` & w R Y g g d d d f f k s d d I U U U U U U U U U U U U U U U U ",
"U U U U U U U U U U U U U U U U U U Y +.6 4 < o O , 9 u u 4 @ ( 2 +.Y U I U U U I d d d U U U U U U U U U U U U U U U U U U U U ",
"U U U Y U U U U U U U U U U U U U U U ! * 6 1 < 1 9 u u 7 @ n k Z $.M h g d I d U j _ N U U U U U U U U Y U U U U U U U U U U U ",
"U U U U U U U U U U U U U U U U U U U U h ' e 3 4 9 7 # ( ) R U U Z V v *.| m j G v ) j U U U U U U U U U U U U U U U U U U U U ",
"U U U U U U U U U U U U U U U U U U U U U Y k x c n b B ) = j U U U U d k [ %.} h d U I U U U U U U U U U U U U U U U U U U U U ",
"Y U U U U U U U U U U U U U U U U U U U U U U I U J e ] Y X.} Y d U U U I d g d I U U U U U U U U U U U U U U U U U U U U U U U ",
"U U U U U U U U U U U U U U U U U U U U U U U U U U N #.Y g ' { P j d U d d I I U I I d U U U U U U U U U U U U U U U U U U U U ",
"U U U U U U U U Y U U U U U U U U U U U U U U U U I A | d U Y j Z F F F D M M G Z S d U U U U U U U U U U U U U U U U U U U Y U ",
"U U U U U U U U U U U U U U U U U U U U U U U U U U z } Z U U I I U Y k k h k F C m Y U U U U U U U U U U U U U U U U U U U U U ",
"U U U U U U U U U U U U U U U U U U U U U U U U U U U l *.M l Z G g U I U I U I U U U U U U U U U U U U U U U U U U U U U U U U ",
"U U U U U U U U U U U U U U U U U U U U U U U U U U U U G { { o.{ } K k U U U U U U U U U U U U U U U U U U U U U U U U U U U Y ",
"U U U U U U U U U U U U U U U U U U U U U U U U U U U U U U Y U U k { P U U U U U U U U U U U U U U U U U U U U U U U U U U U U ",
"U U U U U U U U U U U U U U U U U U U U U U U U U U U U U U U U U U d Y U U U U U U U U U U U U U U U U U U U U U U U U U U U U ",
"U U U U U U U U U U U U U U U U U U U U U U U U U U U U U U U U U U U U U U U U U U U U d U U U U d d U U U U U U U U U U U U U ",
"U U U U Y E U U U U U U U U U U U U U U U U U U U U U U U U U U U U U U U U U U U U U U I U U d R T U U U I I U U U U U U U U U ",
"U U U U W ~ T U U U U U U Y U U U U U U U U Y U U U U U U U U Y U U U U U U U U U U U I U d d Y g T d I U d U U U U U U U U U U ",
"U U T T T T U U U U U U U U U U U U U U U U U U U U U U U U U U U U U U U U U U U U U I d I U f z f U U U d T T U U U U U U U U ",
"I E ! ! E U Y U U U U U U U U U U U U U U U U U U U U U U U U U U U U U U U U U U U U U U U d T s d U U U d T d U U U d I U d I ",
"I Y T Y Y Q ! Y U U U I U U U U U U U U Y U U U U U U U U U U U U U U U U U U U U U U U U U d T d U U U U Y f U U U U I U U U I ",
"I U E Y U Y E I U U U Y U U U U U U U U U U U U Y U U U U U U U U U U U Y U U U U U U U U U U U U U U U U U Y U U U U U I d d I ",
"U U I U U U U U U U U U U U U Y U U U U U U U U U U U U U U U U U U U U U U U U U U U U U U U U U U U U U U U U U U U U I U U I ",
"U U U U U U U U U U U U U U U U U U U U U U U U U U U U U U U U U U U U U U U U U U U U U U U U U U U U U U U U U U U U U U U U ",
"U U U U U U U U U U U U U U U U U U U U U U U U U U U U U U U U U U U U U U U U U U U U U U U Y U U U U U U U U U U U U U U U U ",
"U U U U U U U U U U U U U U U U U U U U U U U U U U U U U U U U U U U U U U U U U U U U U U U U U U U U U U U U U U U U U U U U ",
"U U U U U U U U U U U U U U U I U U U U U U U U U U U U U U U U U U U U U U U U U U U U U U U U U U U U U U U U U U U U U U U U ",
"U U U U U U U U U U U U U U U Y U U U U U U U U U U U U U U Y U U U U U U Y U U U U U U U U U U U U U U U U U U U U U U U U U U ",
"U U U U U U U U U U U U U U U U U U U U U U U U U U U U U U U U U U U U U U U U U U U U U U U U U U U U U U U U U U U U U U U U ",
"U U U U U U U U U U U U U U U U U Y U U U U U U U U U U U U U U U Y U U U U U U U U U U U U U U U U U U U U U U U U U U U Y U U ",
"U U U U U U U U U I Y U U U U U U U Y I U U I Y U U U U U U U U U U U U U U U U U U U U U U U U U U U U U U U U U U U U U U U U ",
"U U U U U U U U Y U U U U U U U U U Y U U U U U U U U U U U U U U U U U U U U U U U U U U U U U U U U U U Y U U U U U U U U U U ",
"U U U U U U U Y U U U U U U U U U U U U U U U U U U U U U U U U U U U U U U U U U U U U U U U Y Y I U U U U U U U U U U U U U U ",
"U U U U U U U U U U U U U U U U U U U U U U U U U U U U U U U U U U U U U U U U U U U U U Y T R R Y U U U U U U U U U U U U U U ",
"U U U U U U U U U U U U U U U U I Y U U U U U U U U U U Y U U U U U U U U U U U U U U U U T R z R Y U U U U U U U U U U U U U U ",
"U U U U U U U U U U U U U U U U U U U U U U U U U U U U U U U U U U U U U U U U U U U U U T R T Y U U U U U U U U U U U U U U U ",
"U U U U U U U U Y U U U U U U U U U U U U Y U U U U U U U U U U U U Y U U U U U U U U U U U U U U U U U U U U U U U U U U U U U ",
"U U U U U U U U U U U U U U U U U U U U U U U U U U U U U U U U U U U U U U U U U U U U U U U U U U U U U U U U U U U U U U U U ",
"U U U U U U U U U U U U U U U U U U U U U U U U U U U U U U U U U U U U U U U U U U U U U U U U U U U U U U U U U U U U U U U U ",
"U U U U U U U U U U U U U U U U U U U U U U U U U U U U Y U U U U U U U U U U U U U U U U U U U U U U U U U U U U U U U U U U U ",
"U U U U U U U U U U U U U U U U U U U U U U U U U U U U U U U U U U U U U U U U U U U U U U U U U U U U U U U U U U U U U U U Y ",
"Y U U U U U U U U U Y U U U U U U U U U U U U Y U U U U U U U U U U U U U U U U U U U U U U U U U U U U U U U U U U U U U U U U ",
"U U U U U U U U U U U U U U U U U U U U U U U U U U U U U U U U U U U U U U U U U U U U U U U U U U U U Y Y U U U U U U U U U U ",
"U U U U U U U U U U U U U U U U U U U U U U U U U U U U U U U U U U U U U U U U U U U Y U U U U U U I T T Q Y U U U U d I U U U ",
"Y U U U U U U U U U U U U U U U U U U U U U U U U U U U U U U U U U U U U U U U U U U U U U U U U U U T T Q Y U U U U U U U U U ",
"U U U U U U U U U U U U U U U U U U U U U U U U U U U U U U U U U U U U U U U U U U U U U U U U U U U U T T T E U U U U I I U U ",
"U U U U U U U U U U U U U U U U U U U U U U U U U U U U U U U U U U Y U U U U U U U U U U U U U U U U T E Y T Q U U U U U d U U ",
"U U U U U U U U U U U U E U U U U U U U U U U U U U U U U U U U U U U U U U U U U U U U U U U U U I U T T U Y T U U I I d I d I ",
"U U U U U U U U U U U U I I U U U U U U U U U U U U U U U U U U U Y U U U U U U U U U U U U U U U U U U d U U U d U U d I d d I ",
"U U U U U U U U U U U U U U U U Y U U U U U U U U U U U U U U U U U U U U U U U U U U U U U U U U U U U U U U U I U I I U U I d ",
"U U U U U U U U U U U U U U U U U U U U U Y U U U U U U U U U U U U U U U U U U U U U U U U U Y U U U U U U U U U U d U U U I I "
};
