/* XPM */
static char *result[] = {
/* columns rows colors chars-per-pixel */
"64 64 109 2 ",
"   c #BF306C",
".  c #C0326D",
"X  c #C63B77",
"o  c #C93F7B",
"O  c #B37E9F",
"+  c #997CA8",
"@  c #AF7FA7",
"#  c #A07BA9",
"$  c #BC72A4",
"%  c #BB7BA6",
"&  c #CD4581",
"*  c #D04A87",
"=  c #D14D89",
"-  c #D5528F",
";  c #D55390",
":  c #D85794",
">  c #DA5996",
",  c #DC5D9A",
"<  c #CF6F9F",
"1  c #DE629E",
"2  c #D36B9F",
"3  c #D9699D",
"4  c #D27097",
"5  c #E1629F",
"6  c #CB6CA4",
"7  c #DE64A0",
"8  c #D46BA1",
"9  c #DC68A1",
"0  c #C474A4",
"q  c #CB75A5",
"w  c #C37DA0",
"e  c #CD7AA6",
"r  c #D474A4",
"t  c #D979A5",
"y  c #E064A0",
"u  c #E16DA5",
"i  c #E478AB",
"p  c #1DAFBF",
"a  c #1AB0BF",
"s  c #23AEBE",
"d  c #2DACBD",
"f  c #3AA7BB",
"g  c #34AABC",
"h  c #3AAABB",
"j  c #22B2BF",
"k  c #519FB7",
"l  c #7C8CB1",
"z  c #639DB4",
"x  c #6C9DB4",
"c  c #7196B3",
"v  c #7B94B2",
"b  c #729CB3",
"n  c #7C9AB2",
"m  c #44A6BA",
"M  c #4CA4B9",
"N  c #42AABD",
"B  c #56A2B7",
"V  c #5DA1B6",
"C  c #50A3B8",
"Z  c #64A0B6",
"A  c #66A7B8",
"S  c #67AABC",
"D  c #07B3C1",
"F  c #0DB2C1",
"G  c #13B3C1",
"H  c #1BB4C3",
"J  c #21B1C0",
"K  c #24B9C6",
"L  c #28BAC7",
"P  c #2DBCC9",
"I  c #33BDCA",
"U  c #69AEC0",
"Y  c #3EC1CD",
"T  c #42C3CE",
"R  c #4AC5D0",
"E  c #8584AC",
"W  c #8E86AE",
"Q  c #858DAD",
"!  c #888BAD",
"~  c #9385AD",
"^  c #9B82AB",
"/  c #958AAD",
"(  c #9D8CAB",
")  c #8795AF",
"_  c #8B94AE",
"`  c #908EB0",
"'  c #8696B0",
"]  c #8B96B1",
"[  c #819AB0",
"{  c #9296B0",
"}  c #9199B1",
"|  c #A682AB",
" . c #AA82AA",
".. c #A48EA9",
"X. c #B385A5",
"o. c #B788A7",
"O. c #B487A8",
"+. c #A490AC",
"@. c #AE90B1",
"#. c #81A1B5",
"$. c #8FA1B6",
"%. c #C884AA",
"&. c #E484B2",
"*. c #E58DB7",
"=. c #E58EB8",
"-. c #E694BC",
";. c #E89EC1",
":. c #E9A2C3",
">. c #EBACC9",
/* pixels */
"F F F F F F F F F F F F D F F F F F F F F F F F F F F F F F F F F F F F F F F F F F F F F F F F F F F F F F F F F F F F F F F F ",
"F F F F F F F F F F F F F F F F G F F F F F F F F F F F F F F F F F F F F F F F F F F F F F F F F F F G F F F F F F F F F F F F ",
"F F F F F F F F F F F F F F F F F F F F F F F F F F F F F F F F F F F F F F F F F F F F F F F F F F F F F F D D F F F F F F F F ",
"F F F F G K G F F F F F F F F F F F F F F F F F F F F F F F F F F F F G F F F F F F F F F F F F F F F F F F F F L I H F F F F F ",
"F F F a L K H F Y H F F F F F F F F F F F F F F F F F F F F F F F F F F F F F F F F F F F F F F F G F F F F F K R L L G F F F F ",
"F F F F H H H F K H F F F F F F F F F F F F F F F F F F F F F F F F F F F F F F F F F F F F F F F F F F F F F K P D K H F F F F ",
"F F F F F G K H F D F F F F F F F F G F F F F F F F F F F F F F F F F F F F F F F F F F F F F F F F F F F F F G L L L F F L F F ",
"F F F F F K Y F H F F F F F F F F F F F F F F F F F F G F F F F F F F F F F F F F F F F F F F F F F F F F F F F F F F F I T L F ",
"F F F F D H L H H D F F F F F F F F F F F F F F F F F F F F F F F F F F F F F F F F F F F F F F F F F F F F F H P I K D L P K D ",
"F F F F F F F H F F F F F F F F F F F F F F F F F F F F F F F F F F F F F F F F F F F F F F F F F F F F F F F I T H H H D H F F ",
"F F F F F F F F F F F F F F F F F F F F F F F F F F F F F F F F F F F F F F F F F F F F F F F F F F F F F F F Y P D H K F F F F ",
"F G F F F F F F F F F F F F F F F F F F F F F F F F F F F F F F F F F F F F F F F F F F F F F F F F F F F F F L H F K H F F F F ",
"F F F F F F F F F F F F F F F F F F F F F F F F F F F F F F F F F F F F F F F F F F F F F F F F F F F F F F F F K K H F F F F F ",
"F F F F F F F F F F F F F F F F F F F F F F G F F F F F F F F F F G F F F F F G F F G F F F F F F F F F F F F F F F F F F F F F ",
"F F F F F F F F F F F F F F F F F F F F F F F F F F F F F F F F F F F F F F F F F F F F F F F F F F F F F F F F F F F F F F F F ",
"F F F F F F F F F F F F F F F F F F F F F F F F F F F F F F F F F F F F F F F F F F F F F F F F F F F F F F F F F F F F F F F F ",
"F F F F F F F F F F F F F F F F F F F F F F F F F F F F F F F F F F F F F F F F F F F F F F F F F F F F F F F F F F F F F F F F ",
"F F F F F F F F F F F G F F F F F F F F F F F F F F F F F F F F F F F F F F F F F F F F F F F F F F F F F F F F F F F F F G F F ",
"F F F F F F F F F F F F F F F F F F F F F F F F F F F F F F a F F F F F F F F G F F F G F F F F F F F F F F F F F F F F F F F F ",
"F F F F G F F F F F F F F F F F F F F F F F F F F H J N N P G F F F F F F F F F F F F F F F F F F F F F F F F F F F F F F F F F ",
"F F F F F F F F F F F F F F F F F F F F F F D H z | e r r e @.U H F F F F F F F F F F F F F F F F F F F F F F F F F F F F F F F ",
"F F F F F F F F F F F F F F F F F F F F F F I | 9 u 9 u &.u 7 t #.G F F F F F F F F F F F F F F F F F F F F F F F F F F F F F F ",
"F F F F F F F F F F F F F F F F F F F F F m 6 5 i :.-.;.>.-.=.&.r M F F F F F F F F F F F F F F F F F F F F F F F F F F F F G F ",
"F F F F F F F F F F F F F F F F F F F F g % i -.:.>.;.&.:.>.>.;.9 ( G F F F F F F F F F F F F F F F F F F F F F F F F F F F F F ",
"F F F F F F F F F F F F F F F F F F F F ` u ;.-.-.=.u y *.;.i :.:.%.J F G F F F F F F F F F F F F F F F F F F F F F F F F F F F ",
"F F F F F F F F F F F F F F G F F F D k 9 u *.u y y y y u 7 7 =.-.t N F F F F F F F F F F F F F F F F F F F F F F F F F F F F F ",
"F F F F F F F F F F F F F F F F F F F ` y y 7 5 7 y y , : 5 7 7 1 2 m D F F F F F F F F F F F F F F F F F F F F F F F F F F F F ",
"F F F F F F F F F G F F F F F F F F J % 5 y : & , y , o . = y 5 5 8 n C F F F F F F F F F F F F F F F F F F F F F F F F F F F F ",
"G F F F F F D F F F F F F F F F F D d q 5 y - o , y 5 * & : 7 7 7 0 @  .H F F F F F F F F D F F F F F F F F F F F F F F F F F F ",
"F F F D H L H F F F F F F F F F F F g 8 5 y y , 5 , 5 5 5 7 7 5 5 ^ $ 3 / m F J N J F s z c p G J J G F F F F F F F F F F F F F ",
"F D F F L Y G D F F F F F F F F F F d q 5 5 y , & X ; y 5 5 7 5 6 W < E @ w ' n [ $.S ..4 X.d G J J G F F F F F F F F F F F F F ",
"F F H H H H G D F F F F F F F F F F G # 5 y y * . . * y 7 7 5 7 ~ $ 0 d p m m p F s J d k g G J J J F F F G J G F F F F F F F F ",
"D G Y Y H G G D F F G F F F F F F F F k 3 1 5 &   X > 7 5 5 5 # + 1 ! a a D D D a D D a a D a a J F D F F G a a D F F F a F a D ",
"F G F G G L I G D F F F F F F F F F F a / 1 5 > ; , 7 7 5 7 + v k l X.g a a D D a a a z M a F a G a F F F a G F F F F F D D D D ",
"F F H H G G H F F F F F F F F F F F a D j Q 6 5 5 5 7 9 $ E c J a a x v n } Z d s f _ O z a a D F F F F F F G F F F F F D a a D ",
"F F D F F F F F F F F F F F F F F F F F D a f v ~ + + l v @ ~ G a a a a f x o.w ( M s p a a D D F F F F F F F F F F F F D D F D ",
"F F F F F F F F F F F F F F F F F F F F F F D F F J ] 0 x N O.C D D D a F D d k f F F D F F F F F F F F F F F F F F F F F F F F ",
"F F F F F F F F F F F F F F F F F F F F F F F F F G N % v F k ..M s a a F F D a F F F F F F F F F F F F F F F F F F F F F F F F ",
"F F F F F F F F F F F F F F F F F F F F F F F F F F F ' c F G k n b b B d d m h s G a F F F F F F F F F F F F F F F F F F F F F ",
"F F F F F F F F F G F F F F F F F F F F F F F F F F F z ] F F D a a p f z Z V x n _ [ p F F F F F F F F F F F F F F F F F F F F ",
"F F G F F F F F F F F F F F F F F F F F F G F F F F F H ] x H F a a D D F a D F a d s a F F F F F F F F F F F F F F F F F F F F ",
"F F F F F F F F F F F F F F F F F F F F F F F F F F F F J @.+.] ) { C a F F D F F D D D F F F F G F F F F F F F F F F F F F F F ",
"F F F F F F F F F F F F F F F F F F F F F F F F F F F F F J m M g f v ..A F F F F F F F F F F F F F F F F F F F F F F F F F F F ",
"F F F F F F F F F F F F G F F F F F F F F F F F F F F F F F F D a a a M g F F F F F F F F F F F F F F F F F F F F F F F F F F F ",
"F F F F F F F F F F F F F F F F F F F F F F F F F F F F F F F F a a F D F F F F F F F F F F D D F F F F F F F F F F F F F F F F ",
"F F F F F F F F F F F F F F F G F F F F F F F F F F F F F F G F D D F F F F F F F F F F F F a G F F F F F F F F F F F F F F F F ",
"F F F F F F F F F F F F F F F F F F F F F F F F F F F F F F F F D F F F F F F F F F F F F G a J J F F F F F F F F F F F F F F F ",
"G F F F F F F F F F F F F F F F F F F F F F F F F F F F F F F F D F F F F F F F F F F F F a j j J F F F F F F F G F F F F F F F ",
"F F F F F F F F F F F F F F F F F F G F F F F F F F F F F F F F F F F F F F F F F F F F F H J J H F F F F F F F F F F F F F F F ",
"F F F F F F F F F F F F F F F F F F F F F F F F F F F F F F F F F F F F F F F F F F F F F F F F F F F F F F F F F F F F F F F F ",
"F F F F F F F F F F F F F F F F F G F F F F F F F F F F F F F F F F F F F F F F F F F F F F F F F F F F F F F F F F F F F F F F ",
"F F F F F F F G F F F F F F F F F F F F F F F F F F F F F F F F F F F F F F F F F F F F F F F F F F F F F F F F F F F F F F F F ",
"F F F F F F F F F F F F G F F F F F F F F F F F F F F F F F F F F F F F F F F F F F F F F F F F F F F F F F F F F F F F F F F F ",
"F F F F F F F F F F F F F F F F F F F F F F F F F F F F F F F F F F F F F F F F F F F F F F F F F F F F F F F F F F F F F F F F ",
"F F F F F F F F F F F F F F F F F F F F F F F F F F F F F F F F F F F F F F F F F F F F F F F F F F F F F F F F F F F F F F F F ",
"F F F F F F F F F F F F F F F F F F F F F F F F F G F F F F F F F F F F F F F F F F F F F F F F F F F F F G F F G F F F F F F F ",
"F F F F F F F F F F F F F F F F F F F F F F F F F F F F F F F F F F F H F F F F F F F F F F F F F F D H H P F F F F D a D F F F ",
"F F F F F F F F F F F F G F F F F F F F F F F F F F F F F F F F F F F F F F F F F F F F F F F F F F F H H P G F F F a F D F F F ",
"F F F F F F F F F F F F F F F F F F F F F F F F F F F F F F F F F F F F F F F F F F F F F F F F F F F F H H H K F F F F a F F F ",
"F F F F F F F F F F F F F F F F F F F F F F F F F F F F F F F F F F F F F F F F F F F F F F F F F F F H P F H P F F F F D D F F ",
"F G F F F F F F F F F F F F F F F F F F F F F F F F F F F F F F F F F F F F F F F F F F F F F F F F F H J F G H F F D a D a D D ",
"F F F F F F F F F F F F F F F F F F F F F F F F F F F F F F F F F F F F F F F F F F F F F F F F F F F F F F F F a D D D a D D a ",
"F F F F F F G F F F F F F F F F F F F F F F F F F F F F F F F F F F F F F F F F F F F F F F F F F F F F F F F F D D a D F F a D ",
"F F F F F F F F F F F F F F F F F F F F F F F H F F F F F F F F F F F F F F F F F F F F F F F F F F F F F F F F F F D a F D D D "
};
