/* XPM */
static char *result[] = {
/* columns rows colors chars-per-pixel */
"64 64 174 2 ",
"   c #0A0D0B",
".  c #0B251E",
"X  c #091F20",
"o  c #0B2B27",
"O  c #1C2926",
"+  c #0C3D3B",
"@  c #353625",
"#  c #2B3832",
"$  c #7C240D",
"%  c #7A2A14",
"&  c #703A28",
"*  c #11473B",
"=  c #74412E",
"-  c #72503E",
";  c #0C4645",
":  c #1D4E4E",
">  c #0E504B",
",  c #125247",
"<  c #11554B",
"1  c #115A4F",
"2  c #0C4F51",
"3  c #0D575A",
"4  c #115B53",
"5  c #394F49",
"6  c #10625D",
"7  c #37685D",
"8  c #0C5E63",
"9  c #0F6463",
"0  c #0F6862",
"q  c #116564",
"w  c #106A65",
"e  c #116A6D",
"r  c #0C6F77",
"t  c #0D747A",
"y  c #0F787B",
"u  c #157979",
"i  c #665849",
"p  c #6C6858",
"a  c #7D7C52",
"s  c #4A6960",
"d  c #507067",
"f  c #4A7B71",
"g  c #6A7B6D",
"h  c #8D1D03",
"j  c #8E2006",
"k  c #862108",
"l  c #852B15",
"z  c #87301B",
"x  c #8E4736",
"c  c #FD613E",
"v  c #B1775F",
"b  c #9C756A",
"n  c #FE6B56",
"m  c #43827F",
"M  c #4E817B",
"N  c #53827A",
"B  c #688778",
"V  c #BCBC7D",
"C  c #FB8556",
"Z  c #C98C72",
"A  c #CC947B",
"S  c #D0977E",
"D  c #DCB87D",
"F  c #FBAD78",
"G  c #0E7E83",
"H  c #0E7F89",
"J  c #0F858A",
"K  c #0D838C",
"L  c #0E8C94",
"P  c #138E98",
"I  c #0E929C",
"U  c #1C969E",
"Y  c #2A888A",
"T  c #388483",
"R  c #3C8C8B",
"E  c #259197",
"W  c #2A9195",
"Q  c #22969D",
"!  c #2C969A",
"~  c #2B989D",
"^  c #3C9594",
"/  c #359698",
"(  c #359799",
")  c #0E96A0",
"_  c #0E9AA6",
"`  c #0D9EAA",
"'  c #1C9BA4",
"]  c #169FAA",
"[  c #249CA3",
"{  c #289BA1",
"}  c #0DA1AE",
"|  c #15A2AD",
" . c #0DA6B3",
".. c #0EA9B6",
"X. c #0DADBB",
"o. c #11A6B3",
"O. c #11A9B6",
"+. c #0CB0BF",
"@. c #22B2BF",
"#. c #408784",
"$. c #438986",
"%. c #4C8C86",
"&. c #438C8A",
"*. c #4C8F89",
"=. c #568B84",
"-. c #43928F",
";. c #4C928D",
":. c #56938C",
">. c #429694",
",. c #4E9691",
"<. c #569791",
"1. c #599890",
"2. c #638D82",
"3. c #6E8C81",
"4. c #679286",
"5. c #6D9185",
"6. c #65968A",
"7. c #6A968B",
"8. c #64988E",
"9. c #6B9A8E",
"0. c #759983",
"q. c #779589",
"w. c #729D8C",
"e. c #639B92",
"r. c #6D9E92",
"t. c #749E92",
"y. c #7D9992",
"u. c #7AA08C",
"i. c #6FA194",
"p. c #71A396",
"a. c #72A598",
"s. c #0DB2C1",
"d. c #13B3C1",
"f. c #1BB4C3",
"g. c #21B1C0",
"h. c #24B9C6",
"j. c #2DBCC9",
"k. c #33BDCA",
"l. c #3EC1CD",
"z. c #839F81",
"x. c #819F97",
"c. c #929692",
"v. c #82A388",
"b. c #8AA39D",
"n. c #A8B786",
"m. c #B2BD88",
"M. c #82ACA3",
"N. c #9DACA8",
"B. c #AFA9A6",
"V. c #A8B1AF",
"C. c #BFB5AE",
"Z. c #B3B5B1",
"A. c #C8A08F",
"S. c #DCA48C",
"D. c #F5A88A",
"F. c #FCBE84",
"G. c #C0B6B4",
"H. c #BBC389",
"J. c #C5CB8C",
"K. c #D4D48D",
"L. c #DBDA90",
"P. c #F7CE85",
"I. c #F6D78B",
"U. c #E1DE91",
"Y. c #E3E193",
"T. c #F9E291",
"R. c #F6ED98",
"E. c #F6F29A",
"W. c #F8F299",
"Q. c #BACBCA",
"!. c #C5C8C8",
"~. c #CECECE",
"^. c #CED2D2",
"/. c #D9D8D7",
/* pixels */
"s.s.s.s.s.s.s.s.s.s.s.s.s.s.s.s.s.s.s.s.s.s.s.s.s.s.s.s.s.s.s.s.s.s.s.s.s.s.s.s.s.s.s.s.s.s.s.s.s.s.s.s.s.s.d.s.s.s.s.s.s.s.s.s.",
"s.s.s.s.s.s.s.s.s.s.s.s.s.s.s.s.s.s.s.s.s.s.s.s.s.s.s.s.s.s.s.s.s.s.s.s.s.s.s.s.s.s.s.s.s.s.s.s.s.s.s.s.s.s.s.s.s.s.s.s.s.s.s.s.",
"s.s.s.s.s.s.s.s.s.s.s.s.s.s.s.s.s.s.d.s.s.s.s.s.s.s.s.s.s.s.s.s.s.s.s.s.s.s.s.s.s.s.s.s.s.s.s.s.s.s.s.s.s.s.s.s.s.s.s.s.s.s.s.s.",
"s.s.s.s.f.f.d.s.s.s.s.s.s.s.s.s.s.s.s.s.s.s.s.s.s.s.s.s.s.s.s.s.s.s.s.d.s.s.s.s.s.s.s.s.s.s.s.s.s.s.s.s.s.s.s.s.h.l.f.s.s.s.s.s.",
"s.s.s.+.j.h.f.d.l.d.s.s.s.s.s.s.s.s.s.s.s.s.s.s.s.s.s.s.s.s.s.s.s.s.s.s.s.s.s.s.s.s.s.s.s.s.s.s.s.s.s.s.s.s.s.f.l.l.l.d.s.s.s.s.",
"s.s.s.s.f.h.f.d.h.f.s.s.s.s.s.s.s.s.s.s.s.s.s.s.s.s.s.s.s.s.s.s.s.s.s.s.s.s.s.s.s.s.s.s.s.s.s.s.s.s.s.s.s.s.s.h.l.s.d.d.s.s.s.s.",
"s.s.s.s.s.d.h.f.s.s.s.s.s.s.s.s.s.s.s.s.s.s.s.s.s.s.s.s.s.s.s.s.s.s.s.s.s.s.s.s.s.s.s.s.d.s.s.s.s.s.s.s.s.s.s.d.d.f.f.s.d.h.s.s.",
"s.s.s.s.s.h.j.d.f.s.s.s.s.s.s.s.s.s.s.s.s.s.s.s.s.d.s.s.s.s.s.s.s.d.s.s.s.s.s.s.s.s.s.s.s.s.s.s.s.s.s.s.s.s.s.s.s.s.s.s.l.l.h.s.",
"s.s.s.s.s.d.l.f.d.s.s.s.s.s.s.s.s.s.s.d.s.s.s.s.s.s.s.s.s.s.s.s.s.s.s.s.s.s.s.s.s.s.s.s.s.s.s.s.s.s.s.s.s.s.s.s.l.l.f.s.l.l.s.s.",
"s.s.s.s.s.s.s.d.s.s.s.s.s.s.s.s.s.s.s.s.s.s.s.s.s.s.s.s.s.s.s.s.s.s.s.s.s.s.s.s.s.s.s.s.s.s.s.s.s.s.s.s.s.s.s.l.l.s.h.f.s.s.s.s.",
"s.s.s.s.s.s.s.s.s.s.s.s.s.s.s.s.s.s.s.s.s.s.s.s.s.s.s.s.s.s.s.s.s.s.s.s.s.s.s.d.s.s.s.s.s.s.s.s.s.s.s.s.s.s.s.l.l.s.s.h.s.s.s.s.",
"s.s.s.s.s.s.s.s.s.s.s.s.s.s.s.s.s.s.s.s.s.s.s.s.s.s.s.s.s.s.s.s.s.s.s.s.s.s.s.s.s.s.s.s.s.s.s.s.s.s.s.s.s.s.s.f.s.s.f.f.s.s.s.s.",
"s.s.s.s.s.s.s.s.s.s.s.s.s.s.s.s.s.s.s.s.s.s.s.s.s.s.s.s.s.s.s.s.s.s.s.s.s.s.s.s.s.s.s.s.s.s.s.s.s.s.s.s.s.s.s.s.l.f.d.s.s.s.s.s.",
"s.s.s.s.s.s.s.s.s.s.s.s.s.s.s.s.s.s.s.s.s.s.s.s.s.s.s.X...s.s.s.s.s.s.s.s.s.s.s.s.s.s.d.s.s.d.s.s.s.s.s.s.s.s.s.s.s.s.s.s.s.s.s.",
"s.s.s.s.s.s.s.s.s.s.s.s.s.s.s.s.s.s.s.s.s.s.s.s.s.s.s._ ) s.s.s.s.s.s.s.s.s.s.s.s.s.s.s.s.s.s.s.s.s.s.s.s.s.s.s.s.s.s.s.s.s.s.s.",
"s.s.s.s.s.s.s.s.s.s.s.s.s.s.s.s.s.s.s.s.s.s.s.s.s.s.X.K ` s.s.s.s.s.s.s.s.s.s.s.s.s.s.s.s.s.s.s.s.s.s.s.s.s.s.s.s.s.s.s.s.s.s.s.",
"s.s.s.s.s.s.s.s.s.s.s.s.s.s.s.s.s.s.s.s.s.s.s.s.s.s.K + H s.s.s.s.s.s.s.s.s.s.d.s.s.s.s.s.s.s.s.s.s.s.s.s.s.s.s.s.s.s.s.s.s.s.s.",
"s.s.s.s.s.s.s.s.s.s.s.s.s.s.s.s.s.s.s.s.s.s.s.s.s.s. .8 _ s.s.s.s.s.s.s.s.s.s.s.s.s.s.s.s.s.s.s.s.s.s.s.s.s.s.s.s.s.s.s.s.s.s.s.",
"s.s.s.s.s.s.s.s.s.s.s.s.s.s.s.s.s.s.s.s.s.s.s.s.s.s. .e X.s.s.s.s.s.s.s.s.s.s.s.s.s.s.s.s.s.s.s.s.s.s.s.s.s.s.s.s.s.s.s.s.s.s.s.",
"s.s.s.s.s.s.s.s.s.s.s.s.s.s.s.s.s.s.s.s.s.s.s.s.s.s._ 9 X.s.s.s.s.s.s.s.s.s.s.s.s.s.d.s.s.s.s.s.s.s.s.s.s.s.s.s.s.s.s.s.s.s.s.s.",
"s.s.s.s.s.s.s.s.s.s.s.s.s.s.s.s.s.s.s.s.s.s.s.s.s.s.I q +.s.+.s.d.s.s.s.s.s.s.s.s.s.s.s.s.s.s.s.s.s.s.s.s.s.s.s.s.s.s.s.s.s.s.s.",
"s.s.s.s.s.s.s.s.s.s.s.s.s.s.s.s.s.s.s.s.s.s.s.s.s.} 2 o J s.s.+.d.d.s.s.s.s.s.s.s.s.s.s.s.s.s.s.s.s.s.s.s.s.s.s.s.s.s.s.s.s.s.s.",
"s.s.s.s.s.s.s.s.s.s.s.s.s.s.s.s.s.s.s.s.s.s.s.s.s...e < } +.s.s.s.d.s.s.s.s.s.s.s.s.s.s.s.s.s.s.s.s.s.s.s.s.s.s.s.s.d.s.s.s.s.d.",
"s.s.s.s.s.s.s.s.s.s.s.s.s.s.s.s.s.s.s.s.s.s.s.s.s.s.J 4 X.s.s.s.s.s.s.s.s.s.s.s.s.s.s.s.s.s.s.s.s.s.s.s.s.s.s.s.s.s.s.s.s.s.s.s.",
"s.s.s.s.s.s.s.+.s.s.s.s.s.s.s.s.s.s.s.s.s.s.s.s.s.s.L 1  .+.s.s.s.s.s.s.s.s.s.s.s.s.s.s.s.s.s.s.s.s.s.s.s.s.s.s.s.s.s.s.s.s.s.s.",
"s.s.s.s.s.s.s.+.I L r X.s.s.s.s.s.s.s.s.s.s.s.s.s.s.L , } +.s.s.s.s.s.s.s.s.s.s.s.s.s.s.s.s.s.s.s.s.s.s.s.s.s.s.s.s.s.s.s.s.s.s.",
"s.s.s.s.s.s.s.s...t ; t L  . .} s.s.s.s.s.s.s.s.s.X.9 . 3 X.s.s.s.s.s.s.s.s.s.s.s.s.s.s.s.s.s.s.s.s.s.s.s.s.s.s.s.s.s.s.s.s.s.s.",
"s.s.s.s.s.s.s.s.s.....} H 9 + G s.s.s.s.s.s.s.s.s.X.G * K s.s.s.s.s.s.s.s.s.s.s.d.s.s.s.s.s.s.s.s.s.s.s.s.s.s.s.s.s.s.s.s.s.d.s.",
"s.s.s.s.s.s.s.s.+.s.s.s.s.K ; 3 y } s.s.s.+.s.s.s.s.X.1 y s.s.s.s.s.s.s.s.s.s.s.s.s.s.s.s.s.d.+.d.d.+.s.s.s.s.s.s.s.s.s.s.s.s.s.",
"s.s.s.s.s.l.s.s.s.s.s.s.s.X... .y 4 G I  .s.s.s.s.s.X.w 9 X.s.s.s.d.s.s.s.s.s.s.s.s.s.s.s.s.s.f.f.@.s.s.s.s.s.s.s.s.s.s.s.s.s.s.",
"s.s.s.s.f.l.d.s.s.s.s.s.s.s.s.s.s.) > o K s.s.s.s.s.X.2 o r +.s.s.s.s.s.s.s.s.s.s.s.s.s.s.s.d.+.@.@.+.s.s.s.s.s.s.s.s.s.s.s.s.s.",
"s.s.f.f.f.f.s.s.s.s.s.s.s.s.s.s.s.s.t 3 1 K +.s.s.s.X.H * y s.s.s.s.s.s.s.s.s.s.s.s.s.s.s.X.+.@.@.f.s.s.s.d.f.s.s.s.s.s.s.s.s.s.",
"s.d.l.l.f.s.d.s.s.s.s.s.s.s.s.s.s.s.+.+.K , y } ..s.+.+.6 9 X.} ) X.s.X.s.s.s.s.s.s.s.s.s.s.g.+.g.X.d.s.s.d.g.s.s.s.s.s.s.s.X.s.",
"s.s.s.d.f.f.l.d.s.s.s.s.s.s.s.s.s.+.+.s.+.L * o L s.+.+.u 7 ^ : X P s.s.s.s.s.s.s.s.s.s.s.s.d.f.f.+.s.s.s.d.f.X.s.s.s.s.s.s.s.s.",
"s.s.f.d.s.f.f.s.s.s.d.s.s.s.s.s.s.s.s.+.+.+.3 * 0  .O.^ 9.r.d   # =.~ X.s.s.s.s.s.s.s.s.s.s.s.s.s.s.s.s.s.s.d.s.s.s.s.s.s.s.s.s.",
"s.s.s.s.s.s.s.s.s.s.s.s.s.s.s.s.s.s.s.s.s.+.X.I , 0 -.s # O   @ V J.z.! X.s.s.s.s.s.s.s.s.s.s.s.s.s.s.s.s.s.s.s.s.s.s.s.s.s.s.s.",
"s.s.s.s.s.s.s.s.s.s.s.s.s.s.s.s.s.s.s.s.s.s.s.s.L , f 5   @ a D F.T.Y.0.] s.s.s.s.s.] o.s.s.s.s.s.s.s.s.s.s.s.d.s.s.s.s.s.s.s.s.",
"s.s.s.s.s.s.s.s.s.s.s.s.s.s.s.s.s.s.s.s.s.s.+.s.s.Y 6.6.B K.E.F n C R.H.*.O.s.s.s...,.*. .s.s.s.s.s.s.s.s.s.s.s.s.s.s.s.s.s.s.s.",
"s.s.s.s.s.s.s.s.s.s.s.s.s.s.s.s.s.s.s.s.s.s.s.s.+./ p.a.u.L.E.P.c c T.K.w.~ s.s.s.X.T f ] s.s.s.s.s.s.s.s.s.s.s.s.s.s.s.s.s.s.s.",
"s.s.s.s.s.s.s.s.s.s.s.s.s.s.s.s.s.s.s.s.s.s.s.+.+.! p.p.i.m.E.R.I.P.R.K.w.<.o.s.d.s.! m ..s.s.s.s.s.s.s.s.s.s.s.s.s.s.s.s.s.s.s.",
"s.s.s.s.s.s.s.s.s.s.s.s.s.s.s.s.s.s.s.s.s.s.s.s.s.' i.i.a.u.L.E.E.W.E.n.r.r.! s.s.X.&.E s.s.s.s.s.s.s.s.s.s.s.s.s.s.s.s.s.s.s.s.",
"s.s.s.s.s.s.s.s.s.s.s.d.s.s.s.s.s.s.s.s.s.s.s.s.s...<.a.a.i.v.J.U.L.n.w.9.q.*.o.s.{ m o.s.s.s.s.s.s.s.s.s.s.s.s.s.s.s.s.s.s.s.s.",
"s.s.s.s.s.s.s.s.s.s.s.s.s.s.s.s.s.s.s.s.s.s.+.+.s.+.( i.a.a.a.9.y.0.4.6.x.V.w.Q ..%.E s.s.s.s.s.s.s.s.s.s.s.s.s.s.s.s.s.s.s.s.s.",
"s.s.s.s.s.s.s.s.s.s.s.s.s.s.s.s.s.s.s.s.s.+.[ / X.s.| 1.a.a.i.9.i.9.7.b.!.B.B ^ / #...s.s.s.s.d.s.s.s.s.s.s.s.s.s.s.s.s.s.s.s.s.",
"s.s.s.s.s.s.s.s.s.s.s.s.s.s.s.s.s.s.s.s.s.+.-.=.U s.s.~ i.i.2.N.N.V.^.^.B.x p 6.f ' s.s.s.s.s.s.s.s.s.s.s.s.s.s.s.s.s.s.s.s.s.s.",
"s.s.s.s.s.s.s.s.s.s.s.s.s.s.s.s.d.s.s.s.s.s.U M T o.s...,.a.r.V.^./.G.b z h - 9.T X.s.s.s.s.+.f.s.s.s.s.s.s.s.s.s.s.s.s.s.s.s.s.",
"s.s.s.s.s.s.s.s.s.s.s.s.s.s.s.s.s.s.s.s.s.s.+.| R $.~ X.[ e.a.3.x x l k j j & w.^ X.s.s.s.s.+.g.g.s.s.s.s.s.s.s.s.s.s.s.s.s.s.s.",
"s.s.s.s.s.s.s.s.s.s.s.s.s.s.s.s.s.s.s.s.s.+.+.s.X.U R &.Q ;.a.r.= k j k $ $ % 5.,...s.s.s.f.@.@.g.d.s.s.s.s.s.s.s.s.s.s.s.s.s.s.",
"s.s.s.s.s.s.d.s.s.s.s.s.s.s.s.s.s.s.s.s.s.s.s.s.s.s.X.Q T N 9.a.g $ $ & Z v & 5.e.| s.s.X.+.+.f.d.s.s.s.s.s.s.s.s.s.s.s.s.s.s.s.",
"s.s.s.s.s.s.s.s.s.s.s.s.s.s.s.s.s.s.s.s.s.s.s.s.s.s.s.s...E =.t.r.i Z A D.A.c.M.e.' s.s.d.f.+.s.s.s.s.s.s.s.s.s.s.s.s.s.s.s.s.s.",
"s.s.d.s.s.s.s.s.s.s.s.s.s.s.s.s.s.s.s.s.s.s.s.s.s.s.s.s.s.s.W r.p.3.S S.A.C.Q.a.r.Q s.s.d.s.s.s.s.s.s.s.s.s.s.s.s.s.s.s.s.s.s.s.",
"s.s.s.s.s.s.s.s.s.s.s.s.s.s.s.s.s.s.s.s.s.s.s.s.s.s.s.s.s.s.| e.a.p.q.Z.~.!.b.i.9.Q s.s.s.s.s.s.s.s.s.s.s.s.s.s.s.s.s.s.s.s.s.s.",
"s.s.s.s.s.s.s.s.s.s.s.s.s.s.s.s.s.s.s.s.s.s.s.s.s.s.s.s.s.s.X.,.a.a.p.t.y.q.2.a.8.' s.s.s.s.s.s.s.s.s.s.s.s.s.s.s.s.s.s.s.d.s.s.",
"s.s.s.s.s.s.s.s.s.s.s.s.s.s.s.s.s.s.s.d.s.s.s.s.s.s.s.s.s.s.s.( p.a.a.a.9.6.i.a.:.] s.s.s.s.s.s.s.s.s.s.s.s.s.s.s.s.s.s.s.s.s.s.",
"s.s.s.s.s.s.s.s.s.s.s.s.s.s.s.s.s.s.s.s.s.s.s.s.s.s.s.s.s.s.s.{ r.a.a.a.a.a.a.a.&.X.s.s.s.s.s.s.s.s.s.s.s.s.s.s.s.s.s.s.s.s.s.s.",
"s.s.s.s.s.s.s.s.s.s.s.d.s.s.s.s.s.s.s.s.s.s.s.s.s.s.s.s.s.s.s.o.8.a.a.a.a.a.a.t.Y s.s.s.s.s.s.s.s.s.s.s.d.d.s.s.s.s.s.s.s.s.s.s.",
"s.s.s.s.s.s.s.s.s.s.s.s.s.s.s.s.s.d.s.s.s.s.s.s.s.s.s.s.s.s.+.X.,.a.a.a.a.p.a.4.R X.s.s.s.s.s.s.s.s.s.d.f.k.d.s.s.s.s.s.s.s.s.s.",
"s.s.s.s.s.s.s.s.s.s.s.s.s.s.s.s.s.s.s.s.s.s.s.s.s.s.s.s.s.s.s.s./ a.a.a.a.p.=.N :...s.s.s.s.s.s.s.s.s.d.d.j.d.s.s.s.s.s.s.s.s.s.",
"s.s.s.s.s.s.s.s.s.s.d.s.s.s.s.d.s.s.s.s.s.s.s.s.s.s.s.s.s.s.s.s.[ i.6.%.%.R U >.*.X.s.s.s.s.s.s.s.s.s.s.f.f.f.f.s.s.s.s.X.s.s.s.",
"s.s.s.s.s.s.s.s.s.s.s.s.s.s.s.s.s.s.s.s.s.s.s.s.s.s.s.s.s.s.+.s.{ i.R }  .+.s.! E s.s.s.s.s.s.s.s.s.s.d.l.d.f.k.s.s.X.s.s.s.s.s.",
"s.s.s.s.s.d.s.s.s.s.s.s.s.s.s.s.s.s.s.s.s.s.s.s.s.s.s.s.s.s.s.+.>.9.E s.s.s.s.X.s.s.s.s.s.s.s.s.s.s.s.f.d.s.d.f.s.+.s.s.s.s.s.s.",
"s.s.s.s.s.s.s.s.s.s.s.s.s.s.s.s.s.s.s.s.s.s.s.s.s.s.s.s.s.s.s.X.&.T ..s.s.s.s.s.s.s.s.s.s.s.s.s.s.s.s.s.+.s.s.s.s.s.s.+.s.s.X.s.",
"s.s.s.s.s.s.s.s.s.s.s.s.s.s.s.s.s.s.s.s.s.s.s.s.s.s.s.s.s.s.s.+.| ..s.+.s.s.s.s.s.s.s.s.s.s.s.s.s.s.s.s.s.s.s.s.s.s.s.s.s.s.s.s.",
"d.s.s.s.s.s.s.s.s.s.s.s.s.s.s.s.s.s.s.s.s.s.s.s.s.s.s.s.s.s.+.s.s.s.s.s.s.s.s.s.s.s.s.s.s.s.s.s.s.s.s.s.s.s.s.s.s.s.s.s.s.s.s.s."
};
