/* XPM */
static char *result[] = {
/* columns rows colors chars-per-pixel */
"64 64 212 2 ",
"   c #79B55B",
".  c #79B65B",
"X  c #57B47A",
"o  c #6AB567",
"O  c #72B561",
"+  c #60B371",
"@  c #9EBC3D",
"#  c #A8BE39",
"$  c #B0BF32",
"%  c #BDC62F",
"&  c #AEC034",
"*  c #B4C232",
"=  c #BBC530",
"-  c #C4CB2E",
";  c #C9CF2F",
":  c #C9D12E",
">  c #C9C938",
",  c #CCD432",
"<  c #CFDA37",
"1  c #CFD93C",
"2  c #D0DA37",
"3  c #D1D53C",
"4  c #8EB849",
"5  c #94BA44",
"6  c #99BA42",
"7  c #9CAB5C",
"8  c #82B754",
"9  c #B2AD54",
"0  c #AA957E",
"q  c #8FB863",
"w  c #BCA57A",
"e  c #D59C5E",
"r  c #CFB44F",
"t  c #E69B79",
"y  c #D2AA6E",
"u  c #DEB161",
"i  c #DEBA66",
"p  c #E4B677",
"a  c #CCC445",
"s  c #D0CD4B",
"d  c #D3D343",
"f  c #D7C852",
"g  c #9E7FBA",
"h  c #A47EBA",
"j  c #AB7CBA",
"k  c #BB77B9",
"l  c #B27AB9",
"z  c #BB7FBD",
"x  c #E97890",
"c  c #F27B9A",
"v  c #FE5FB6",
"b  c #FD5EB8",
"n  c #CC78AD",
"m  c #CF6FB8",
"M  c #DC6AB7",
"N  c #D46EB8",
"B  c #D86CB8",
"V  c #C572B8",
"C  c #CB71B8",
"Z  c #F76AAB",
"A  c #E667B6",
"S  c #EC65B6",
"D  c #E269B7",
"F  c #F463B6",
"G  c #FC61B6",
"H  c #FD65B9",
"J  c #F368B8",
"K  c #FD6BBB",
"L  c #EC78B3",
"P  c #FD73BE",
"I  c #F279BA",
"U  c #FE75C0",
"Y  c #FE7CC2",
"T  c #2EB39F",
"R  c #3AB294",
"E  c #32B29D",
"W  c #0EB2BF",
"Q  c #1CB2B3",
"!  c #18B2B6",
"~  c #13B2BB",
"^  c #2CB2A2",
"/  c #23B2AB",
"(  c #29B1AD",
")  c #2DA7BF",
"_  c #33A7BE",
"`  c #3CA2BF",
"'  c #28B5BF",
"]  c #3FB5BF",
"[  c #6B9E9C",
"{  c #4CB384",
"}  c #43B28D",
"|  c #5BAE90",
" . c #75AD93",
".. c #459FBE",
"X. c #4B9DBD",
"o. c #5B97BD",
"O. c #539ABE",
"+. c #768FBC",
"@. c #7D8CBC",
"#. c #6494BD",
"$. c #6B93BD",
"%. c #42A2BA",
"&. c #51B1BA",
"*. c #6DB2B6",
"=. c #76B6BC",
"-. c #16AFC1",
";. c #1CADC0",
":. c #07B3C3",
">. c #0DB2C1",
",. c #13B3C2",
"<. c #1CB5C3",
"1. c #1FB9C6",
"2. c #2DA7C0",
"3. c #23ACC1",
"4. c #2BABC1",
"5. c #33A5C0",
"6. c #34ACC3",
"7. c #3BABC2",
"8. c #25B4C1",
"9. c #24B9C7",
"0. c #27BBC8",
"q. c #2ABBC8",
"w. c #34B4C1",
"e. c #39B6C2",
"r. c #33BECA",
"t. c #749BC2",
"y. c #47A7C2",
"u. c #54A7C3",
"i. c #5EA4C3",
"p. c #47B7C2",
"a. c #57B8C1",
"s. c #68A4C4",
"d. c #78A2C4",
"f. c #65BBC2",
"g. c #3AC1CC",
"h. c #46C4CF",
"j. c #4AC6D1",
"k. c #91A08E",
"l. c #BCB89F",
"z. c #8489BB",
"x. c #8988B9",
"c. c #9587BC",
"v. c #9C81BA",
"b. c #969EBC",
"n. c #AF9DAC",
"m. c #A887BD",
"M. c #8AA3AC",
"N. c #85B8BD",
"B. c #99B8BC",
"V. c #A7BCBE",
"C. c #BBB6B6",
"Z. c #B6BDBE",
"A. c #BCBCBC",
"S. c #D59B8A",
"D. c #EC858B",
"F. c #EF8293",
"G. c #F08094",
"H. c #E99693",
"J. c #EAAC8B",
"K. c #EDA694",
"L. c #F1A39D",
"P. c #C595BC",
"I. c #F598AC",
"U. c #E88FBF",
"Y. c #FC8ABC",
"T. c #EC92B5",
"R. c #F994B7",
"E. c #CCABBB",
"W. c #CAB7BF",
"Q. c #C2BEBE",
"!. c #F3A0A3",
"~. c #C5C695",
"^. c #C5C1B8",
"/. c #8A94C1",
"(. c #869FC5",
"). c #8C9EC5",
"_. c #939CC5",
"`. c #9C9BC6",
"'. c #A39BC6",
"]. c #AB99C6",
"[. c #B697C7",
"{. c #BD96C7",
"}. c #B398C5",
"|. c #82A0C5",
" X c #DC8CC5",
".X c #C395C7",
"XX c #CC94C7",
"oX c #CA95C8",
"OX c #D793C6",
"+X c #DC92C8",
"@X c #E98FC0",
"#X c #EC8FC8",
"$X c #FE83C5",
"%X c #F48BC4",
"&X c #FD8AC6",
"*X c #FF86C8",
"=X c #F38EC8",
"-X c #FF8CC9",
";X c #ED95C3",
":X c #E490C8",
">X c #F891C6",
",X c #DBA5C1",
"<X c #C3BEC1",
"1X c #D4B6C6",
"2X c #E6A8C9",
"3X c #8FC2C7",
"4X c #A1C2C5",
"5X c #B7C5C8",
"6X c #C5C3C3",
"7X c #C8C7C8",
"8X c #C9C9C9",
"9X c #D1C0C9",
/* pixels */
">.>.>.>.>.>.>.>.>.>.>.>.;.#.v.z.y.>.>.>.>.>.>.>.>.>.>.>.>.>.>.>.>.>.>.>.>.>.W >.>.>.>.-.>.>.>.>.>.>.>.>.W >.>.>.>.>.>.>.>.>.>.>.",
">.>.>.>.>.>.>.,.0.1.>.>.x.b G U :Xd.,.>.>.>.>.>.>.>.>.>.>.>.,.>.>.>.>.>.>.>.>.>.>.>.>.>.>.>.>.>.>.>.>.>.>.>.>.>.>.>.>.>.>.>.>.>.",
">.>.>.>.>.>.,.g.j.h.g.5.S v K *X-X>X|.~ >.>.>.>.>.>.>.>.>.>.>.>.>.>.>.>.>.>.>.>.>.>.>.>.>.>.>.>.>.>.>.>.>.>.-.>.>.>.>.>.W ,.>.>.",
">.>.>.>.>.>.1.9.,.9.g.X.F v K -X-X-X=Xu.>.>.>.>.>.>.,.>.>.>.>.>.>.>.>.>.>.-.>.>.>.>.>.>.>.>.>.>.>.>.>.>.>.>.>.>.>.>.>.>.>.>.>.>.",
">.>.1.q.9.>.,.q.,.1.q.5.S v H *X-X-X-X[.,.W >.>.>.>.>.>.>.>.>.>.>.>.>.>.>.>.>.>.>.>.>.>.>.>.>.>.>.>.>.>.>.>.>.>.>.>.>.>.>.>.>.>.",
">.9.j.j.h.r.>.1.0.9.,.;.C v G $X-X-X-X#X7.:.>.>.>.>.>.>.>.>.>.>.>.>.>.>.>.>.>.>.>.W >.>.>.>.>.>.,.>.>.>.>.>.>.>.>.>.>.>.>.>.>.>.",
",.q.1.,.<.q.,.>.>.>.>.>.c.G G U -X-X-X*Xd.W >.>.>.>.>.>.,.>.>.>.>.>.>.>.>.>.>.>.>.>.>.>.>.>.>.>.W >.>.>.>.>.>.>.-.>.>.>.>.>.>.>.",
",.q.>.>.>.0.<.>.,.,.>.>.o.F G K -X-X-X&X).:.>.>.>.>.>.>.>.>.>.>.>.>.>.>.>.>.>.>.>.>.>.,.>.>.>.>.>.>.>.>.>.>.>.>.>.>.>.>.>.>.>.>.",
">.9.9.,.1.0.>.<.j.h.,.>.) D v H &X&X-X-X`.>.>.>.>.>.>.>.>.>.>.>.>.>.>.>.>.>.>.>.>.>.>.>.>.W >.>.-.>.>.>.>.>.>.>.>.>.>.>.>.>.>.W ",
">.>.<.9.9.,.>.0.0.r.1.>.;.V v G $X-X-X-X`.>.>.>.>.>.>.>.>.>.>.>.-.>.>.>.>.>.>.>.>.>.>.>.>.>.>.>.>.>.>.>.>.>.>.>.>.>.>.>.>.>.>.>.",
">.>.>.>.>.>.>.,.0.9.,.>.,.k v G Y -X-X-X).W >.>.>.>.>.>.>.>.>.>.>.>.>.>.>.>.>.>.>.>.>.>.>.>.>.>.>.>.>.>.>.>.>.>.>.>.>.>.>.>.>.>.",
">.>.>.>.>.>.>.>.,.>.>.>.-.k v G $X-X-X-Xd.:.>.>.>.>.,.>.>.>.>.>.>.>.>.>.>.>.>.>.>.,.>.>.>.>.>.>.>.>.>.>.>.>.>.>.>.>.>.>.>.>.>.>.",
">.>.>.>.>.>.>.>.>.>.>.>.! N v G &X*X-X=Xu.:.>.>.>.>.>.>.>.>.>.>.>.>.>.>.>.>.>.>.>.>.>.>.>.>.>.>.>.>.>.>.>.>.>.>.>.>.>.>.>.>.>.>.",
">.>.>.>.>.>.>.>.>.>.>.:.5.S v H &X-X-X:X_ >.>.>.>.>.>.>.>.>.>.>.>.>.>.>.>.W >.>.>.>.>.>.>.>.>.>.>.>.W >.>.>.>.>.>.>.>.>.>.>.,.>.",
">.>.>.>.>.>.>.>.>.>.>.>.+.b v U -X-X*XoX<.W -.>.>.>.>.>.>.>.>.>.>.>.>.>.>.>.>.>.>.>.>.>.>.>.>.>.>.>.>.>.-.>.>.>.>.>.>.>.>.>.>.>.",
">.>.>.>.>.>.>.>.>.>.>.3.C v H $X-X-X-X_.>.>.>.>.>.>.>.>.7.`.].i.-.>.>.>.>.>.>.>.>.>.>.>.-.>.>.>.>.>.>.>.>.>.>.>.>.>.W >.>.>.>.>.",
">.>.W >.;.2.;.>.>.>.>.+.F v P -X-X-X&Xs.:.>.>.>.>.>.>.! .X-XY J +.~ >.W >.>.Q Q ~ >.>.>.>.>.>.>.>.>.>.>.>.>.>.>.>.>.>.>.>.>.>.>.",
">.>.:.y.{.#X{.7.>.>.) m v H &X-X-X-X#X6.W >.>.>.>.>.:.6.#X*XK v A ` :.>./   6 @ 8 } >.>.>.>.>.>.>.>.>.>.>.>.>.>.>.>.>.>.>.W >.>.",
">.>.4.C H &X*X`.>.>.@.G v P *X-X-X-X{.<.>.>.>.>.>.>.W 7.=X-XK v v x.>.W   - < < , $ } -.>.>.>.>.>.>.>.>.>.>.>.>.>.>.>.>.,.>.>.>.",
">.>.+.G G P -XoX,.;.C v G &X-X-X-X-X|.>.>.>.>.>.>.>.>.7.#X*XK v G j -./ # < < < < , 4 ! >.>.>.>.>.>.>.>.>.-.>.>.>.>.>.>.>.>.>.>.",
">.,.l v v P *XOX<...F v K -X-X-X-X-Xu.>.>.>.>.>.>.>.>.7.#X*XK v v l ~ T $ < < < < < * E >.>.>.>.>.>.>.>.>.>.>.>.>.>.>.>.>.>.>.>.",
">.~ V v v K -X+X3.#.G v P -X-X-X-X:X4.>.>.>.>.>.>.>.:.7.#X&XK G v j >.T * < < 1 < 2 = } >.>.>.>.>.>.>.>.>.>.>.>.>.>.>.>.>.>.>.>.",
">.-.k v v K *X#X6.$.G v P &X-X-X-XXX! >.>.>.>.>.>.>.:.s.-X&XH G v x.>.T * < < < < 2 = } >.>.>.>.>.>.>.>.>.>.>.>.>.>.>.>.W >.>.>.",
">.>.v.v v K &X-Xi.o.G G K &X-X-X-X.X,.>.>.>.>.>.>.>.W `.*X$XG G Z [ :.E * < < < < 2 * E >.>.>.>.,.W >.>.>.>.>.>.>.-.>.>.>.>.>.>.",
">.:.o.F F v Y -X]._ M v H &X&X-X-X.X-.>.>.>.>.>.>.>.7.:X*XP G G x | :.R $ 3 < < < < # Q >.>.>.>.>.>.>.>.>.>.>.>.>.>.>.>.>.>.>.>.",
">.>.) C G b P &X=Xu.z.G G P *X-X-X+X;.>.>.>.>.>.>.<.[.-X$XG G G e X :.{ - 2 < < < ;   >.>.>.>.>.>.>.>.>.>.>.>.>.>.>.>.>.>.>.>.>.",
">.>.:.#.b b H Y *XOXy.j v G Y *X-X#X7.>.>.>.>.W ;.'.-X&XK v b c % X >.O , < < < < * R >.>.>.>.>.>.>.>.>.>.>.>.>.>.>.>.>.>.>.>.>.",
">.-.>.~ k v H H $X&XXXs.V G H $X-X-Xs.>.>.>.>.>._.&X&XK G G F u -   { $ < 2 < 2 -   ~ >.>.>.>.>.-.y.@.5.>.>.>.>.>.>.>.>.>.>.>.>.",
">.>.>.>.y.A v v H Y -X+X/.N v H *X-X}.,.>.>.E M.=X*XK G G v x 1 < = = , < < < - 4 / >.>.>.>.>.-.(.=XK N 2.>.>.>.>.>.>.>.>.W >.>.",
">.>.,.>.,./.H G G H Y *X:Xc.F v K *X#Xy.:.{ 9 I.-XU G v G S r , < < < < < < - 4 / >.>.>.>.>.>.u.=X*XP S _ >.>.>.,.9.,.>.>.,.>.>.",
">.0.9.<.,.r.l v G G H $X-XoXm.v H U *X'.! 5 f -X*XK v v v c.O - < < < 2 < - 8 / >.>.W >.>.>.,.].-X*XH C 3.>.>.,.g.r.9.,.:.W :.W ",
">.0.q.<.,.,.5.B v G v K -X>Xt.B v H &X#Xo.@ p -X&XG v v D _ R $ 2 < < < = O Q >.>.>.>.>.>.>.<.XX-X$XG v.>.>.>.9.j.,.<.1.W 9.r.,.",
">.>.,.1.0.1.,.o.F v G G $X-X(.@.G v P *XP.# i -X$XG v v h >.Q @ < < , - O ~ >.>.>.>.>.>.>.>.;.OX*XY b t.:.>.>.,.r.1.q.,.>.h.r.0.",
">.>.>.<.r.,.<.-.j v G G Y *Xd.) M v H &X*Xy s R.&XH v v #.:.! 4 , < -   Q >.>.>.>.>.>.>.>.>.;.oX-XU b O.>.>.>.>.,.1.,.>.>.9.0.1.",
">.>.>.>.9.1.,.>.O.F v G $X=Xy.>.v.v v U -XI.a J.*XP v F ..:./ # < , 6 / >.>.>.>.>.>.>.>.>.>.>.[.-XU b #.:.>.>.>.>.,.0.q.1.>.>.>.",
">.>.>.>.>.>.>.>.;.N v H &XXX<.:.O.F H K *X*Xy f R.&XG S ../ O - < % } :.>.>.>.>.>.3.-.>.>.>.>.(.-X$Xv g ,.>.>.>.>.q.g.,.9.<.>.>.",
">.>.>.>.>.>.>.>.-.l v P -X).>.>.3.N v G $X-XT.a K.&XP F 9 # - < ; 8 ~ >.>.>.>.-.+. Xb.X O o / u.=X*XU A ` >.,.3.1.g.r.>.,.9.>.>.",
">.>.>.>.>.>.>.>.>.v.G Y =Xy.>.>.>.j v v Y *X*Xw y Y.Y F u < < < - { >.>.>.>.>.` S U T.> : : . _ +X-X$XG h >.i.+X].p.0.>.1.<.>.>.",
">.>.>.>.>.>.>.>.>.m.H *XOX3.>.>.>.@.v v U *X-X[.| ;X&XH t < < < $ ^ >.>.>.:.:.$.v U I.d < < & ^ }.-X-XU A 5.'.Y b $.1.0.1.>.>.>.",
">.>.>.>.>.>.>.>.>.j K *X.X-.>.>.>.o.F v U -X-X+X6.oX-XK F.< < < * ^ >.>.>.>.^ 0 v U I.1 < < * E d.-X-XY b o.}.U b g >.>.>.>.>.>.",
">.>.>.>.,.>.>.>.-.V K -X].,.>.>.>.X.F v K *X-X:X6.].&XU Z s < < - + -.>.~ } 6 r Z K Y.f < < * ^ s.-X-XU b t.XXU b z.W >.>.>.>.>.",
">.>.>.>.>.>.>.>.2.D U -X'.>.>.>.>.X.F v K &X*X>X .n.*XU G u < < < $   o 4 * , 3 c G *XJ.2 , 6 ! s.-X-XK B t.=XK F X.:.>.>.>.>.>.",
">.>.>.>.>.>.>.>.%.J U -X].>.>.>.>.O.G v K -X-XR.a J.-XY v H., < < < ; ; , < < < u G K &Xp - X >.|.-XU J c.oXU G j W >.>.W >.>.>.",
">.>.>.>.>.>.W :.#.G U -X[.,.>.>.:.#.v v P -X-XR.s J.-XY v c < < < < < < < < < < 3 F.v K Y.k.~ ! .XY F z OXU G D ..W >.>.>.>.>.>.",
">.>.>.>.>.>.>.>.@.b P -XXX;.>.>.>.x.v v P -X-X!.1 L.*XY v Z 3 < < < < < < < < < - 9 F v P {.( *.&XG N +XU G H +.>.>.>.>.>.>.>.>.",
">.>.>.>.>.>.>.>.x.v K *X:X4.>.>.,.l v G $X-X-XJ.1 I.-XU b c d < < < < 1 < < < - 8 E h v P T.9 H.U Z S.&XH b h -.>.>.>.>.>.>.>.>.",
">.>.>.>.>.>.>.:.z.v H *X-Xs.:.>.4.B v H *X>X-Xy f >X*XK b F.< < < < < < < < < = 4 o 0 v P K.p &XH D.p Y v D ` >.>.>.>.>.>.>.>.>.",
">.>.>.>.>.>.>.W o.G H $X-X}.-.>...F v K -X>X#Xk.S.*X&XF b t < < < < < < < < < < 3 ; r H Y.p I.P Z u f Y.v j >.>.>.>.>.>.>.>.>.>.",
"W >.>.>.>.>.>.>._ D G P *X=Xu.:.@.G v P -X-X:Xy.+X-XP G Z i < < < < < < < < < < 2 2 u P L.J.*XU Z d > H.U x.>.>.>.>.>.>.>.>.>.>.",
">.>.>.>.>.>.>.>.>.v.v G $X-X{.' j v G Y -X-X.X|.-X&XH v F.1 < < < < 3 < < < < < 2 2 t Y J.L.*XH G., # n.Y z.>.>.>.>.>.>.>.>.>.>.",
">.>.>.>.>.>.>.>.>.` D v K *X&X_.m G G $X-X-X.X:X-XP G G i < < < < < < < < < , , , , F.*Xp I.*XG x 5 E d.Y v.>.>.>.>.>.>.>.>.>.>.",
">.>.>.>.>.>.>.>.>.>.z.G G U *X%XK G H &X-X-X#X-X&XH G x > < < < < < < ; * 6 8   . 7 Z *Xy I.*XH n / >.s.Y k -.>.>.>.>.>.>.>.>.>.",
">.>.>.>.>.>.>.>.>.>.3.V G H $X-X&XH K -X-X-X-X-XP v F k.* < < < < , = . R ! W >.W %.J &XM.P.&XH k ~ >.d.Y N 3.>.>.>.>.>.>.>.>.>.",
">.>.>.>.>.>.>.>.>.>.>.O.S v K &X-XP P -X-X-X-X$XG v z ( @ , < 1 < % X ~ >.>.>.>.W %.J Y ).`.*XP D ) W ].Y M 3.>.>.>.>.>.>.>.-.>.",
">.>.>.>.>.W >.>.>.>.>.,.m.I I %X>X-XP -X-X-X-XP G F $.' q d 1 < - O ~ ~ >.>.>.>.>.) M U oX|.-XP F O.4.:XP C ;.>.>.>.>.>.>.>.>.>.",
">.>.>.>.>.,.>.>.>.,.a.3X5X7X7X<XW.,X;X-X-X-X&XH J U.5X5X6X^.~.s $ ^ >.>.>.>.>.>.>.,.g H &X].=X$XG x._.&XH x.>.>.>.>.>.>.>.>.>.>.",
">.>.>.>.>.>.>.<.w.3X7X7X7X8X7X6XQ.A.E.&X*X-X=XU.1X8X8X7X6XQ.Q.l.q W >.>.>.>.>.>.>.>...A U #X=X&XH L =XP N ) >.>.>.>.>.>.>.>.>.>.",
">.>.>.>.>.>.8.3X5X7X7X7X7X7X6XQ.Q.A.C.E.2X1X1X7X7X6X6X6X<XQ.Q.C. .W >.>.>.>.>.>.>.>.>.g H $X-X-XU &XP H #.>.>.>.>.<.,.>.>.>.>.>.",
">.>.>.>.>.>.a.8X7X^.6X6XQ.Q.Q.Q.Q.Q.Q.7X8X7X7X<XA.C.Q.<XQ.Q.Q.C.*.>.>.>.>.>.>.>.>.w.p.=.J U *X*X$X:X@Xm.w.>.>.>.,.r.9.,.,.>.>.>.",
">.>.>.>.>.>.f.^.Q.A.<XQ.Q.Q.Q.Q.6X7X7X7X7X7X6XQ.Q.C.C.Q.Q.Q.Q.C.=.>.>.>.>.>.>.>.&.Z.<X7X1X@X=X=XE.Q.7X7X5Xf.8.>.,.0.1.,.q.q.>.,.",
">.>.>.>.>.>.&.6XA.6X6X^.Q.Q.Q.Q.6X6X<XQ.Q.Q.Q.Q.Q.C.C.Q.A.Z.V.N.&.>.>.>.>.>.>.,.N.W.^.Q.Q.6X9X1XQ.Q.Q.6X6X7X4X8.>.,.1.,.1.1.>.>.",
">.,.>.>.>.>.p.Z.Q.^.6X^.^.5XQ.Q.^.6XQ.Q.A.Q.Q.Q.Q.C.B.p.&.] 8.,.:.>.>.>.>.>.>.,.=.Z.Q.A.A.^.6X6X6X6XQ.Q.Q.Q.A.w.:.<.r.1.,.>.>.>.",
">.>.>.>.>.>.>.9.p.*.N.).B.B.V.N.N.B.Z.A.<XQ.Q.Q.C.B.&.W :.:.>.>.:.>.>.>.>.>.>.>.<.w.&.=.C.<X^.9XA.5XZ.A.Z.V.N.<.>.9.0.,.<.>.>.>.",
">.>.>.>.>.>.>.>.:.:.,.,.<.' <.,.>.8.e.a.=.f.=.a.] ' >.>.>.>.>.>.>.>.>.>.>.>.>.>.>.>.>.8.&.f.N.f.&.w.&.p.] 8.,.>.>.>.1.1.>.>.>.>."
};
